<svg version="1.2" xmlns="http://www.w3.org/2000/svg" xmlns:xlink="http://www.w3.org/1999/xlink" overflow="visible" preserveAspectRatio="none" viewBox="0 0 656 656" width="24" height="24"><g><path xmlns:default="http://www.w3.org/2000/svg" d="M655.1,18.4L636.7,0l-89.5,86.8H355.2L0,442l210.5,210.5l355.2-355.2V105.2L655.1,18.4z M539.3,286.8L210.5,615.6L36.8,442  l328.9-328.9h155.2l-55.2,55.2c-13.2-7.9-28.9-15.8-44.7-15.8c-44.7,0-78.9,34.2-78.9,78.9s34.2,78.9,78.9,78.9s78.9-34.2,78.9-78.9  c0-15.8-5.3-31.6-15.8-44.7l55.2-55.2V286.8z M473.6,231.5c0,28.9-23.7,52.6-52.6,52.6s-52.6-23.7-52.6-52.6s23.7-52.6,52.6-52.6  c10.5,0,18.4,2.6,26.3,7.9l-42.1,42.1l18.4,18.4l42.1-42.1C470.9,213.1,473.6,221,473.6,231.5z" style="fill: rgb(29, 29, 27);" vector-effect="non-scaling-stroke"/></g></svg>