<svg version="1.2" xmlns="http://www.w3.org/2000/svg" xmlns:xlink="http://www.w3.org/1999/xlink" overflow="visible" preserveAspectRatio="none" viewBox="0 -4.490344248530647 56 56" width="24" height="24"><g><path xmlns:default="http://www.w3.org/2000/svg" d="M5.7,47c-0.8,0-1.3,0-1.3,0l-2.7-0.2l2.1-1.6c1.5-1.1,2.7-3.8,3.5-7.8C2.6,33.2,0,27.9,0,22.3C0,10,12.6,0,28,0  s28,10,28,22.3S43.4,44.5,28,44.5c-3.1,0-6.1-0.4-9-1.2C15.1,46.6,8.5,47,5.7,47z M28,2C13.7,2,2,11.1,2,22.3  c0,5.2,2.5,10.1,7.2,13.9l0.5,0.4l-0.1,0.6c-0.7,3.4-1.6,6-2.8,7.8c3-0.1,8.4-0.7,11.4-3.5l0.4-0.4l0.5,0.2c2.9,0.8,5.9,1.2,9,1.2  c14.3,0,26-9.1,26-20.2S42.3,2,28,2z" style="fill: rgb(29, 29, 27);" vector-effect="non-scaling-stroke"/></g></svg>