<svg version="1.2" xmlns="http://www.w3.org/2000/svg" xmlns:xlink="http://www.w3.org/1999/xlink" overflow="visible" preserveAspectRatio="none" viewBox="0 -5.0016077170418 51 51" width="24" height="24"><g>
	<g>
		<path d="M31,23h-8v8h8V23z M29,29h-4v-4h4V29z M41,23h-8v8h8V23z M39,29h-4v-4h4V29z M47,6V0H4v6H0v14h4v21h43V20h4V6H47z M6,2h39    v4H6V2z M19,39h-7V25h7V39z M45,39H21V23H10v16H6V20h39V39z M49,18H2V8h47V18z" style="fill: rgb(29, 29, 27);" vector-effect="non-scaling-stroke"/>
	</g>
</g><g/></svg>