<svg version="1.2" xmlns="http://www.w3.org/2000/svg" xmlns:xlink="http://www.w3.org/1999/xlink" overflow="visible" preserveAspectRatio="none" viewBox="-0.5130000000000017 0 57 57" width="24" height="24"><g>
	<g>
		<path d="M55.8,20c0-0.3-0.1-0.7-0.4-0.9L28.9,0.2C28.6,0,28.3,0,28,0C27.7,0,27.4,0,27.1,0.2L0.5,19.1c-0.3,0.2-0.4,0.5-0.4,0.8    c0,0-0.1-0.1-0.1-0.1v33c0,2.8,2.4,5,5.1,5H51c2.7,0,5-2.2,5-5v-33C55.9,19.9,55.9,19.9,55.8,20z M35.4,36.6L54,22.2V51L35.4,36.6    z M28,2l25.4,18.1L28,39.8L2.6,20.1L28,2z M2,22.2l18.6,14.4L2,51V22.2z M51,55.8H5.1c-1.4,0-2.7-1-3.1-2.4l20.2-15.6l4.9,3.8    c0.2,0.1,0.4,0.2,0.6,0.2c0.1,0,0.2,0,0.3-0.1c0.1,0,0.2,0.1,0.3,0.1c0.2,0,0.4-0.1,0.6-0.2l4.9-3.8l20.2,15.6    C53.6,54.8,52.4,55.8,51,55.8z" style="fill: rgb(29, 29, 27);" vector-effect="non-scaling-stroke"/>
	</g>
</g><g/></svg>