<svg version="1.2" xmlns="http://www.w3.org/2000/svg" xmlns:xlink="http://www.w3.org/1999/xlink" overflow="visible" preserveAspectRatio="none" viewBox="0 -26.345868152274818 737 737" width="24" height="24"><g><path xmlns:default="http://www.w3.org/2000/svg" d="M736.7,236.8H473.6L368.3,0L263.1,236.8H0l210.5,184.2L131.5,684l236.8-131.5L605.1,684l-78.9-263.1L736.7,236.8z   M560.4,628.8l-178.9-100l-13.2-5.3l-13.2,7.9l-178.9,100l60.5-199.9l5.3-15.8l-13.2-10.5L71,268.4h192.1h15.8l7.9-15.8l81.6-186.8  l81.6,181.5l7.9,15.8h15.8h192.1L507.8,399.9l-13.2,10.5l5.3,15.8L560.4,628.8z" style="fill: rgb(29, 29, 27);" vector-effect="non-scaling-stroke"/></g></svg>