<svg version="1.2" xmlns="http://www.w3.org/2000/svg" xmlns:xlink="http://www.w3.org/1999/xlink" overflow="visible" preserveAspectRatio="none" viewBox="0 0 10 19.00001" width="10" height="19.00001"><g transform="translate(0, 0)"><g transform="translate(-4.440892098500626e-16, 0) rotate(0)"><path d="M8.35363,1.09616h-1.47069v-1.09616h-3.84133v1.09616h-1.39537c-0.9079,0 -1.64624,0.7376 -1.64624,1.64426v14.61541c0,0.90645 0.73855,1.64418 1.64624,1.64418h6.70739c0.90818,0 1.64637,-0.73772 1.64637,-1.64418v-14.61545c0,-0.90661 -0.73819,-1.64422 -1.64637,-1.64422zM8.90264,17.35594c0,0.30206 -0.24628,0.54794 -0.549,0.54794h-6.70739c-0.30244,0 -0.54868,-0.24544 -0.54868,-0.54794v-14.61557c0,-0.30206 0.24624,-0.5481 0.54868,-0.5481h6.70739c0.30273,0 0.549,0.246 0.549,0.5481zM8.30416,17.25519h-6.60836v-2.40481h6.60836zM8.30416,14.25802h-6.60836v-2.40469h6.60836zM8.30416,11.26077h-6.60836v-2.40485h6.60836zM8.30416,8.40485h-6.60836v-2.40485h6.60836z" style="stroke-width: 0; stroke-linecap: butt; stroke-linejoin: miter; fill: rgb(119, 208, 102);" vector-effect="non-scaling-stroke"/></g><defs><path id="path-1647275004530400" d="M8.35363,1.09616h-1.47069v-1.09616h-3.84133v1.09616h-1.39537c-0.9079,0 -1.64624,0.7376 -1.64624,1.64426v14.61541c0,0.90645 0.73855,1.64418 1.64624,1.64418h6.70739c0.90818,0 1.64637,-0.73772 1.64637,-1.64418v-14.61545c0,-0.90661 -0.73819,-1.64422 -1.64637,-1.64422zM8.90264,17.35594c0,0.30206 -0.24628,0.54794 -0.549,0.54794h-6.70739c-0.30244,0 -0.54868,-0.24544 -0.54868,-0.54794v-14.61557c0,-0.30206 0.24624,-0.5481 0.54868,-0.5481h6.70739c0.30273,0 0.549,0.246 0.549,0.5481zM8.30416,17.25519h-6.60836v-2.40481h6.60836zM8.30416,14.25802h-6.60836v-2.40469h6.60836zM8.30416,11.26077h-6.60836v-2.40485h6.60836zM8.30416,8.40485h-6.60836v-2.40485h6.60836z" vector-effect="non-scaling-stroke"/></defs></g></svg>