<svg version="1.2" xmlns="http://www.w3.org/2000/svg" xmlns:xlink="http://www.w3.org/1999/xlink" overflow="visible" preserveAspectRatio="none" viewBox="0 0 30 30" width="30" height="30"><g transform="translate(0, 0)"><g transform="translate(0, 0) rotate(0)"><path d="M15,0c-8.28428,0 -15,6.71572 -15,15c0,8.28428 6.71572,15 15,15c8.28428,0 15,-6.71572 15,-15c0,-8.28428 -6.71572,-15 -15,-15zM22.55039,15.07184l-1.81916,1.76467c-0.21434,0.26455 -0.56408,0.40055 -0.91641,0.32813c-0.38531,-0.07559 -0.34066,-0.10922 -2.33971,-2.1699c-0.36047,-0.37166 -0.3515,-0.96516 0.02016,-1.32568c0.37166,-0.36047 0.96527,-0.3515 1.32568,0.02016l0.27193,0.28031c-0.37137,-1.46689 -1.51436,-2.67451 -3.07236,-3.06293c-2.25703,-0.56273 -4.55127,0.81568 -5.114,3.07283c-0.92578,3.7132 3.17801,6.61096 6.36486,4.5757c0.43617,-0.27855 1.01607,-0.15088 1.29469,0.28553c0.27873,0.43635 0.15088,1.01602 -0.28553,1.29475c-0.98572,0.62953 -2.13311,0.95684 -3.28852,0.95684c-3.95807,0 -6.85916,-3.73857 -5.90484,-7.56639c0.81293,-3.26027 4.1267,-5.25141 7.38697,-4.43854c2.41072,0.60105 4.12717,2.56957 4.52953,4.87266l0.24111,-0.23385c0.3716,-0.36059 0.96527,-0.3515 1.32568,0.02016c0.36053,0.37154 0.35156,0.96504 -0.0201,1.32557z" style="stroke-width: 0; stroke-linecap: butt; stroke-linejoin: miter; fill: rgb(0, 0, 0);" vector-effect="non-scaling-stroke"/></g><defs><path id="path-16388076149029304" d="M15,0c-8.28428,0 -15,6.71572 -15,15c0,8.28428 6.71572,15 15,15c8.28428,0 15,-6.71572 15,-15c0,-8.28428 -6.71572,-15 -15,-15zM22.55039,15.07184l-1.81916,1.76467c-0.21434,0.26455 -0.56408,0.40055 -0.91641,0.32813c-0.38531,-0.07559 -0.34066,-0.10922 -2.33971,-2.1699c-0.36047,-0.37166 -0.3515,-0.96516 0.02016,-1.32568c0.37166,-0.36047 0.96527,-0.3515 1.32568,0.02016l0.27193,0.28031c-0.37137,-1.46689 -1.51436,-2.67451 -3.07236,-3.06293c-2.25703,-0.56273 -4.55127,0.81568 -5.114,3.07283c-0.92578,3.7132 3.17801,6.61096 6.36486,4.5757c0.43617,-0.27855 1.01607,-0.15088 1.29469,0.28553c0.27873,0.43635 0.15088,1.01602 -0.28553,1.29475c-0.98572,0.62953 -2.13311,0.95684 -3.28852,0.95684c-3.95807,0 -6.85916,-3.73857 -5.90484,-7.56639c0.81293,-3.26027 4.1267,-5.25141 7.38697,-4.43854c2.41072,0.60105 4.12717,2.56957 4.52953,4.87266l0.24111,-0.23385c0.3716,-0.36059 0.96527,-0.3515 1.32568,0.02016c0.36053,0.37154 0.35156,0.96504 -0.0201,1.32557z" vector-effect="non-scaling-stroke"/></defs></g></svg>