<svg version="1.2" xmlns="http://www.w3.org/2000/svg" xmlns:xlink="http://www.w3.org/1999/xlink" overflow="visible" preserveAspectRatio="none" viewBox="0 0 20.000019999999996 20" width="20.000019999999996" height="20"><g transform="translate(0, 0)"><g transform="translate(0.000009999999998733244, 0) rotate(0)"><path d="M20,10c0,5.52285 -4.47715,10 -10,10c-2.46132,0 -4.71496,-0.88923 -6.45716,-2.36395l14.09322,-14.09322c1.47472,1.74221 2.36395,3.99584 2.36395,6.45716zM10,0c2.46132,0 4.71496,0.88923 6.45716,2.36395l-14.09322,14.09322c-1.47472,-1.74221 -2.36395,-3.99584 -2.36395,-6.45716c0,-5.52285 4.47715,-10 10,-10z" style="stroke-width: 0; stroke-linecap: butt; stroke-linejoin: miter; fill: rgb(255, 183, 18);" vector-effect="non-scaling-stroke"/></g><defs><path id="path-16388265749591072" d="M20,10c0,5.52285 -4.47715,10 -10,10c-2.46132,0 -4.71496,-0.88923 -6.45716,-2.36395l14.09322,-14.09322c1.47472,1.74221 2.36395,3.99584 2.36395,6.45716zM10,0c2.46132,0 4.71496,0.88923 6.45716,2.36395l-14.09322,14.09322c-1.47472,-1.74221 -2.36395,-3.99584 -2.36395,-6.45716c0,-5.52285 4.47715,-10 10,-10z" vector-effect="non-scaling-stroke"/></defs></g></svg>