<svg version="1.2" xmlns="http://www.w3.org/2000/svg" xmlns:xlink="http://www.w3.org/1999/xlink" overflow="visible" preserveAspectRatio="none" viewBox="0 0 20 20" width="20" height="20"><g transform="translate(0, 0)"><g transform="translate(0.0007299999999990092, 0) rotate(0)"><path d="M9.999,0c-5.52264,0 -9.99973,4.4774 -9.99973,9.9998c0,5.5224 4.4771,10.0002 9.99973,10.0002c5.52264,0 10.00027,-4.47753 10.00027,-10.0002c0,-5.52267 -4.47763,-9.9998 -10.00027,-9.9998zM14.7535,7.19633l-0.94981,0.9498l-1.93341,-1.93327l-0.73347,0.73347l1.93341,1.9334l-4.74216,4.74173l-1.93328,-1.93307l-0.73347,0.73347l1.93328,1.93327l-0.47254,0.47253l-0.009,-0.009c-0.0524,0.08627 -0.1376,0.1492 -0.2388,0.17167l-1.80288,0.402c-0.027,0.00607 -0.05447,0.009 -0.0816,0.009c-0.0984,0 -0.194,-0.03873 -0.26487,-0.1098c-0.09093,-0.0906 -0.1288,-0.22147 -0.1008,-0.34687l0.4018,-1.80233c0.02267,-0.10113 0.08573,-0.18653 0.17187,-0.2388l-0.00913,-0.00913l7.63138,-7.63167c0.11187,-0.11167 0.2936,-0.11167 0.40547,0.00033l1.52814,1.5278c0.11187,0.11187 0.11187,0.2936 -0.00013,0.40547z" style="stroke-width: 0; stroke-linecap: butt; stroke-linejoin: miter; fill: rgb(0, 0, 0);" vector-effect="non-scaling-stroke"/></g><defs><path id="path-16388265749831146" d="M9.999,0c-5.52264,0 -9.99973,4.4774 -9.99973,9.9998c0,5.5224 4.4771,10.0002 9.99973,10.0002c5.52264,0 10.00027,-4.47753 10.00027,-10.0002c0,-5.52267 -4.47763,-9.9998 -10.00027,-9.9998zM14.7535,7.19633l-0.94981,0.9498l-1.93341,-1.93327l-0.73347,0.73347l1.93341,1.9334l-4.74216,4.74173l-1.93328,-1.93307l-0.73347,0.73347l1.93328,1.93327l-0.47254,0.47253l-0.009,-0.009c-0.0524,0.08627 -0.1376,0.1492 -0.2388,0.17167l-1.80288,0.402c-0.027,0.00607 -0.05447,0.009 -0.0816,0.009c-0.0984,0 -0.194,-0.03873 -0.26487,-0.1098c-0.09093,-0.0906 -0.1288,-0.22147 -0.1008,-0.34687l0.4018,-1.80233c0.02267,-0.10113 0.08573,-0.18653 0.17187,-0.2388l-0.00913,-0.00913l7.63138,-7.63167c0.11187,-0.11167 0.2936,-0.11167 0.40547,0.00033l1.52814,1.5278c0.11187,0.11187 0.11187,0.2936 -0.00013,0.40547z" vector-effect="non-scaling-stroke"/></defs></g></svg>