<svg version="1.2" xmlns="http://www.w3.org/2000/svg" xmlns:xlink="http://www.w3.org/1999/xlink" overflow="visible" preserveAspectRatio="none" viewBox="0 0 25.00001 15" width="25.00001" height="15"><g transform="translate(0, 0)"><g transform="translate(0.000004999999999713567, 0) rotate(0)"><path d="M12.5,0c-4.77652,0 -9.10811,2.6304 -12.30439,6.90288c-0.26082,0.35003 -0.26082,0.83905 0,1.18909c3.19628,4.27763 7.52787,6.90803 12.30439,6.90803c4.77652,0 9.10811,-2.6304 12.30439,-6.90288c0.26082,-0.35003 0.26082,-0.83905 0,-1.18909c-3.19628,-4.27763 -7.52787,-6.90803 -12.30439,-6.90803zM12.84265,12.7814c-3.17071,0.20075 -5.7891,-2.42965 -5.58965,-5.62629c0.16365,-2.63555 2.28598,-4.77179 4.90437,-4.93651c3.17071,-0.20075 5.7891,2.42965 5.58965,5.62629c-0.16876,2.6304 -2.29109,4.76664 -4.90437,4.93651zM12.68411,10.34146c-1.70809,0.1081 -3.11957,-1.30748 -3.00706,-3.02677c0.08694,-1.42073 1.23248,-2.56863 2.64396,-2.66129c1.70809,-0.1081 3.11957,1.30748 3.00706,3.02677c-0.09205,1.42588 -1.2376,2.57378 -2.64396,2.66129z" style="stroke-width: 0; stroke-linecap: butt; stroke-linejoin: miter; fill: rgb(0, 0, 0);" vector-effect="non-scaling-stroke"/></g><defs><path id="path-16388265750181330" d="M12.5,0c-4.77652,0 -9.10811,2.6304 -12.30439,6.90288c-0.26082,0.35003 -0.26082,0.83905 0,1.18909c3.19628,4.27763 7.52787,6.90803 12.30439,6.90803c4.77652,0 9.10811,-2.6304 12.30439,-6.90288c0.26082,-0.35003 0.26082,-0.83905 0,-1.18909c-3.19628,-4.27763 -7.52787,-6.90803 -12.30439,-6.90803zM12.84265,12.7814c-3.17071,0.20075 -5.7891,-2.42965 -5.58965,-5.62629c0.16365,-2.63555 2.28598,-4.77179 4.90437,-4.93651c3.17071,-0.20075 5.7891,2.42965 5.58965,5.62629c-0.16876,2.6304 -2.29109,4.76664 -4.90437,4.93651zM12.68411,10.34146c-1.70809,0.1081 -3.11957,-1.30748 -3.00706,-3.02677c0.08694,-1.42073 1.23248,-2.56863 2.64396,-2.66129c1.70809,-0.1081 3.11957,1.30748 3.00706,3.02677c-0.09205,1.42588 -1.2376,2.57378 -2.64396,2.66129z" vector-effect="non-scaling-stroke"/></defs></g></svg>