<svg version="1.2" xmlns="http://www.w3.org/2000/svg" xmlns:xlink="http://www.w3.org/1999/xlink" overflow="visible" preserveAspectRatio="none" viewBox="0 0 15 20" width="15" height="20"><g transform="translate(0, 0)"><g transform="translate(0, 0) rotate(0)"><path style="stroke-width: 0; stroke-linecap: butt; stroke-linejoin: miter; fill: rgb(245, 26, 10);" d="M1.07141,4.44443h12.85717v13.33333c0,1.22781 -0.95891,2.22224 -2.14283,2.22224h-8.57146c-1.18396,0 -2.14288,-0.99443 -2.14288,-2.22224zM15,1.11109v2.22224h-15v-2.22224h3.74997l1.07146,-1.11109h5.35712l1.07146,1.11109z" vector-effect="non-scaling-stroke"/></g><defs><path id="path-1638826574788804" d="M1.07141,4.44443h12.85717v13.33333c0,1.22781 -0.95891,2.22224 -2.14283,2.22224h-8.57146c-1.18396,0 -2.14288,-0.99443 -2.14288,-2.22224zM15,1.11109v2.22224h-15v-2.22224h3.74997l1.07146,-1.11109h5.35712l1.07146,1.11109z" vector-effect="non-scaling-stroke"/></defs></g></svg>