<svg version="1.2" xmlns="http://www.w3.org/2000/svg" xmlns:xlink="http://www.w3.org/1999/xlink" overflow="visible" preserveAspectRatio="none" viewBox="0 0 69.99999999999997 58.000009999999996" width="69.99999999999997" height="58.000009999999996"><g transform="translate(0, 0)"><g transform="translate(-7.105427357601002e-15, 0.00000999999999562462) rotate(0)"><path style="stroke-width: 0; stroke-linecap: butt; stroke-linejoin: miter; fill: rgb(201, 206, 214);" d="M37.39248,41.76h-30.39248v-11.29643l6.88893,-7.89566c0.70462,-0.79659 1.72516,-1.24585 2.79197,-1.22906c1.06681,0.01679 2.07254,0.49793 2.75145,1.31629l5.93098,7.2638l11.2343,-13.5249c0.69318,-0.81647 1.71293,-1.28782 2.78755,-1.28847c1.07462,-0.00065 2.09494,0.46947 2.78912,1.2851l8.09982,9.74922c-7.20344,1.94451 -12.37515,8.21566 -12.88163,15.6201zM25.88833,8.72042c-2.57733,0 -4.66667,2.0774 -4.66667,4.64c0,2.5626 2.08934,4.64 4.66667,4.64c2.57733,0 4.66667,-2.0774 4.66667,-4.64c0,-2.5626 -2.08934,-4.64 -4.66667,-4.64zM37.39248,44.08h-31.55915c-0.64433,0 -1.16667,-0.51935 -1.16667,-1.16v-37.12c0,-0.64065 0.52233,-1.16 1.16667,-1.16h49c0.64433,0 1.16667,0.51935 1.16667,1.16v19.77881c1.59238,0.10392 3.16273,0.42572 4.66667,0.9563v-23.05512c-0.00212,-1.92108 -1.56788,-3.47789 -3.5,-3.48h-53.66667c-1.93212,0.00211 -3.49788,1.55892 -3.5,3.48v41.76c0.00212,1.92108 1.56788,3.47789 3.5,3.48h34.85428c-0.53365,-1.49534 -0.8573,-3.05672 -0.9618,-4.64zM54.83333,27.84c-8.37632,0 -15.16667,6.75155 -15.16667,15.08c0,8.32845 6.79035,15.08 15.16667,15.08c8.37632,0 15.16667,-6.75155 15.16667,-15.08c-0.00945,-8.32456 -6.79427,-15.0706 -15.16667,-15.08zM60.66667,42.92h-2.33333v9.28c0,0.64065 -0.52233,1.16 -1.16667,1.16h-4.66667c-0.64433,0 -1.16667,-0.51935 -1.16667,-1.16v-9.3083l-2.3191,0.0283c-0.43879,0.00362 -0.84267,-0.23735 -1.04589,-0.62404c-0.20322,-0.38668 -0.17156,-0.85395 0.08199,-1.21004l5.83333,-8.12c0.22966,-0.28866 0.5795,-0.45701 0.94967,-0.45701c0.37017,0 0.72001,0.16835 0.94967,0.45701l5.83333,8.12c0.24772,0.35486 0.27826,0.81669 0.0794,1.20074c-0.19886,0.38406 -0.59465,0.62765 -1.02906,0.63333z" vector-effect="non-scaling-stroke"/></g><defs><path id="path-1638891957597277" d="M37.39248,41.76h-30.39248v-11.29643l6.88893,-7.89566c0.70462,-0.79659 1.72516,-1.24585 2.79197,-1.22906c1.06681,0.01679 2.07254,0.49793 2.75145,1.31629l5.93098,7.2638l11.2343,-13.5249c0.69318,-0.81647 1.71293,-1.28782 2.78755,-1.28847c1.07462,-0.00065 2.09494,0.46947 2.78912,1.2851l8.09982,9.74922c-7.20344,1.94451 -12.37515,8.21566 -12.88163,15.6201zM25.88833,8.72042c-2.57733,0 -4.66667,2.0774 -4.66667,4.64c0,2.5626 2.08934,4.64 4.66667,4.64c2.57733,0 4.66667,-2.0774 4.66667,-4.64c0,-2.5626 -2.08934,-4.64 -4.66667,-4.64zM37.39248,44.08h-31.55915c-0.64433,0 -1.16667,-0.51935 -1.16667,-1.16v-37.12c0,-0.64065 0.52233,-1.16 1.16667,-1.16h49c0.64433,0 1.16667,0.51935 1.16667,1.16v19.77881c1.59238,0.10392 3.16273,0.42572 4.66667,0.9563v-23.05512c-0.00212,-1.92108 -1.56788,-3.47789 -3.5,-3.48h-53.66667c-1.93212,0.00211 -3.49788,1.55892 -3.5,3.48v41.76c0.00212,1.92108 1.56788,3.47789 3.5,3.48h34.85428c-0.53365,-1.49534 -0.8573,-3.05672 -0.9618,-4.64zM54.83333,27.84c-8.37632,0 -15.16667,6.75155 -15.16667,15.08c0,8.32845 6.79035,15.08 15.16667,15.08c8.37632,0 15.16667,-6.75155 15.16667,-15.08c-0.00945,-8.32456 -6.79427,-15.0706 -15.16667,-15.08zM60.66667,42.92h-2.33333v9.28c0,0.64065 -0.52233,1.16 -1.16667,1.16h-4.66667c-0.64433,0 -1.16667,-0.51935 -1.16667,-1.16v-9.3083l-2.3191,0.0283c-0.43879,0.00362 -0.84267,-0.23735 -1.04589,-0.62404c-0.20322,-0.38668 -0.17156,-0.85395 0.08199,-1.21004l5.83333,-8.12c0.22966,-0.28866 0.5795,-0.45701 0.94967,-0.45701c0.37017,0 0.72001,0.16835 0.94967,0.45701l5.83333,8.12c0.24772,0.35486 0.27826,0.81669 0.0794,1.20074c-0.19886,0.38406 -0.59465,0.62765 -1.02906,0.63333z" vector-effect="non-scaling-stroke"/></defs></g></svg>