<svg version="1.2" xmlns="http://www.w3.org/2000/svg" xmlns:xlink="http://www.w3.org/1999/xlink" overflow="visible" preserveAspectRatio="none" viewBox="0 0 26 26.000009999999996" width="26" height="26.000009999999996"><g transform="translate(0, 0)"><g transform="translate(0, 0.000009999999997845066) rotate(0)"><path d="M17,15.5c0,1.92988 -1.57007,3.5 -3.5,3.5c-1.92993,0 -3.5,-1.57012 -3.5,-3.5c0,-1.92988 1.57007,-3.5 3.5,-3.5c1.92993,0 3.5,1.57012 3.5,3.5zM15.53086,15.5c0,-1.11983 -0.91104,-2.03086 -2.03086,-2.03086c-1.11983,0 -2.03086,0.91104 -2.03086,2.03086c0,1.11983 0.91104,2.03086 2.03086,2.03086c1.11983,0 2.03086,-0.91104 2.03086,-2.03086zM13.60282,9.80505c-2.94171,0.10816 -5.31461,2.48107 -5.42273,5.42283l-3.85287,-3.85288l5.42278,-5.42278zM26,4.0625v15.98528l-7.16259,-7.16259c-0.33008,-0.64726 -0.78163,-1.22261 -1.32438,-1.69599l8.31055,-8.3105c0.11436,0.37471 0.17641,0.77213 0.17641,1.18381zM16.79778,26h-9.22055l4.61028,-4.61028zM11.06508,20.35775l-5.6423,5.64225h-1.36028c-2.24006,0 -4.0625,-1.82244 -4.0625,-4.0625v-6.23528l3.25,-3.25l5.53759,5.53759c0.50812,0.99638 1.30411,1.82223 2.27749,2.36793zM25.06969,1.47809l-8.81969,8.81969l-5.42278,-5.42278l4.875,-4.875h6.23528c1.25922,0 2.38641,0.57591 3.13219,1.47809zM25.99111,22.19334c-0.13254,2.12123 -1.89952,3.80666 -4.05361,3.80666h-2.98528l-4.9301,-4.93005c2.94171,-0.10816 5.31466,-2.48112 5.42278,-5.42283zM13.54778,0l-10.83626,10.83636c-0.00005,0 -0.00005,0 -0.0001,0.00005c-0.00005,0.00005 -2.71136,2.71136 -2.71141,2.71141v-9.48533c0,-2.24006 1.82244,-4.0625 4.0625,-4.0625z" style="stroke-width: 0; stroke-linecap: butt; stroke-linejoin: miter; fill: rgb(57, 57, 57);" vector-effect="non-scaling-stroke"/></g><defs><path id="path-163832295911256346" d="M17,15.5c0,1.92988 -1.57007,3.5 -3.5,3.5c-1.92993,0 -3.5,-1.57012 -3.5,-3.5c0,-1.92988 1.57007,-3.5 3.5,-3.5c1.92993,0 3.5,1.57012 3.5,3.5zM15.53086,15.5c0,-1.11983 -0.91104,-2.03086 -2.03086,-2.03086c-1.11983,0 -2.03086,0.91104 -2.03086,2.03086c0,1.11983 0.91104,2.03086 2.03086,2.03086c1.11983,0 2.03086,-0.91104 2.03086,-2.03086zM13.60282,9.80505c-2.94171,0.10816 -5.31461,2.48107 -5.42273,5.42283l-3.85287,-3.85288l5.42278,-5.42278zM26,4.0625v15.98528l-7.16259,-7.16259c-0.33008,-0.64726 -0.78163,-1.22261 -1.32438,-1.69599l8.31055,-8.3105c0.11436,0.37471 0.17641,0.77213 0.17641,1.18381zM16.79778,26h-9.22055l4.61028,-4.61028zM11.06508,20.35775l-5.6423,5.64225h-1.36028c-2.24006,0 -4.0625,-1.82244 -4.0625,-4.0625v-6.23528l3.25,-3.25l5.53759,5.53759c0.50812,0.99638 1.30411,1.82223 2.27749,2.36793zM25.06969,1.47809l-8.81969,8.81969l-5.42278,-5.42278l4.875,-4.875h6.23528c1.25922,0 2.38641,0.57591 3.13219,1.47809zM25.99111,22.19334c-0.13254,2.12123 -1.89952,3.80666 -4.05361,3.80666h-2.98528l-4.9301,-4.93005c2.94171,-0.10816 5.31466,-2.48112 5.42278,-5.42283zM13.54778,0l-10.83626,10.83636c-0.00005,0 -0.00005,0 -0.0001,0.00005c-0.00005,0.00005 -2.71136,2.71136 -2.71141,2.71141v-9.48533c0,-2.24006 1.82244,-4.0625 4.0625,-4.0625z" vector-effect="non-scaling-stroke"/></defs></g></svg>