<svg version="1.2" xmlns="http://www.w3.org/2000/svg" xmlns:xlink="http://www.w3.org/1999/xlink" overflow="visible" preserveAspectRatio="none" viewBox="0 0 25.999999999999996 26.000000000000004" width="25.999999999999996" height="26.000000000000004"><g transform="translate(0, 0)"><g transform="translate(-3.1086244689504383e-15, 4.440892098500626e-15) rotate(0)"><path d="M26,20.61718c0,2.09996 -1.70864,3.85938 -3.80859,3.85938h-5.47234c-0.3155,0.88471 -1.15309,1.52344 -2.14485,1.52344c-0.99176,0 -1.82934,-0.63873 -2.14485,-1.52344c-0.00295,0 -7.09511,0 -7.0981,0c-0.28961,0 -0.47831,-0.16885 -0.47831,-0.16885c-0.11319,-0.09303 -3.69982,-4.94621 -3.78848,-5.06443c-0.69626,-0.92757 -1.06448,-2.03298 -1.06448,-3.19638c0,-2.93978 2.39225,-5.33204 5.33203,-5.33204c2.93978,0 5.33203,2.39226 5.33203,5.33204c0,1.1634 -0.36821,2.26881 -1.06448,3.19714l-2.74412,3.70912h5.5739c0.3155,-0.88471 1.15309,-1.52344 2.14485,-1.52344c0.99176,0 1.82934,0.63873 2.14485,1.52344h5.47234c1.26009,0 2.28516,-1.07585 2.28516,-2.33594c0,-1.26009 -1.02507,-2.28516 -2.28516,-2.28516h-0.90203c-0.3155,0.88471 -1.15309,1.52344 -2.14485,1.52344c-0.99176,0 -1.82934,-0.63873 -2.14485,-1.52344h-1.66375c-1.6804,0 -3.04687,-1.36648 -3.04687,-3.04688c0,-1.68041 1.36647,-3.04688 3.04688,-3.04688h3.80895l-2.74447,-3.70988c-0.69626,-0.92757 -1.06448,-2.03298 -1.06448,-3.19638c0,-2.93978 2.39225,-5.33204 5.33203,-5.33204c2.93978,0 5.33203,2.39226 5.33203,5.33204c0,1.1634 -0.36821,2.26881 -1.06448,3.19714l-3.65833,4.92757c-0.10344,0.13863 -0.36263,0.30499 -0.60922,0.30499h-5.33203c-0.83982,0 -1.52344,0.68362 -1.52344,1.52344c0,0.83982 0.68362,1.52344 1.52344,1.52344h1.66375c0.3155,-0.88471 1.15309,-1.52344 2.14485,-1.52344c0.99176,0 1.82934,0.63873 2.14485,1.52344h0.90203c2.09996,0 3.80859,1.70859 3.80859,3.80855zM20.66797,7.61721c1.26009,0 2.28516,-1.02507 2.28516,-2.28516c0,-1.26009 -1.02507,-2.28516 -2.28516,-2.28516c-1.26009,0 -2.28516,1.02507 -2.28516,2.28516c0,1.26009 1.02507,2.28516 2.28516,2.28516zM7.61719,16.04691c0,-1.26009 -1.02507,-2.28516 -2.28516,-2.28516c-1.26009,0 -2.28516,1.02507 -2.28516,2.28516c0,1.26009 1.02507,2.28516 2.28516,2.28516c1.26009,0 2.28516,-1.02507 2.28516,-2.28516zM21.42972,5.33204c0,0.42027 -0.34145,0.76172 -0.76172,0.76172c-0.42027,0 -0.76172,-0.34145 -0.76172,-0.76172c0,-0.42027 0.34145,-0.76172 0.76172,-0.76172c0.42027,0 0.76172,0.34145 0.76172,0.76172zM6.09378,16.04689c0,0.42027 -0.34145,0.76172 -0.76172,0.76172c-0.42027,0 -0.76172,-0.34145 -0.76172,-0.76172c0,-0.42027 0.34145,-0.76172 0.76172,-0.76172c0.42027,0 0.76172,0.34145 0.76172,0.76172z" style="stroke-width: 0; stroke-linecap: butt; stroke-linejoin: miter; fill: rgb(57, 57, 57);" vector-effect="non-scaling-stroke"/></g><defs><path id="path-163832295912756356" d="M26,20.61718c0,2.09996 -1.70864,3.85938 -3.80859,3.85938h-5.47234c-0.3155,0.88471 -1.15309,1.52344 -2.14485,1.52344c-0.99176,0 -1.82934,-0.63873 -2.14485,-1.52344c-0.00295,0 -7.09511,0 -7.0981,0c-0.28961,0 -0.47831,-0.16885 -0.47831,-0.16885c-0.11319,-0.09303 -3.69982,-4.94621 -3.78848,-5.06443c-0.69626,-0.92757 -1.06448,-2.03298 -1.06448,-3.19638c0,-2.93978 2.39225,-5.33204 5.33203,-5.33204c2.93978,0 5.33203,2.39226 5.33203,5.33204c0,1.1634 -0.36821,2.26881 -1.06448,3.19714l-2.74412,3.70912h5.5739c0.3155,-0.88471 1.15309,-1.52344 2.14485,-1.52344c0.99176,0 1.82934,0.63873 2.14485,1.52344h5.47234c1.26009,0 2.28516,-1.07585 2.28516,-2.33594c0,-1.26009 -1.02507,-2.28516 -2.28516,-2.28516h-0.90203c-0.3155,0.88471 -1.15309,1.52344 -2.14485,1.52344c-0.99176,0 -1.82934,-0.63873 -2.14485,-1.52344h-1.66375c-1.6804,0 -3.04687,-1.36648 -3.04687,-3.04688c0,-1.68041 1.36647,-3.04688 3.04688,-3.04688h3.80895l-2.74447,-3.70988c-0.69626,-0.92757 -1.06448,-2.03298 -1.06448,-3.19638c0,-2.93978 2.39225,-5.33204 5.33203,-5.33204c2.93978,0 5.33203,2.39226 5.33203,5.33204c0,1.1634 -0.36821,2.26881 -1.06448,3.19714l-3.65833,4.92757c-0.10344,0.13863 -0.36263,0.30499 -0.60922,0.30499h-5.33203c-0.83982,0 -1.52344,0.68362 -1.52344,1.52344c0,0.83982 0.68362,1.52344 1.52344,1.52344h1.66375c0.3155,-0.88471 1.15309,-1.52344 2.14485,-1.52344c0.99176,0 1.82934,0.63873 2.14485,1.52344h0.90203c2.09996,0 3.80859,1.70859 3.80859,3.80855zM20.66797,7.61721c1.26009,0 2.28516,-1.02507 2.28516,-2.28516c0,-1.26009 -1.02507,-2.28516 -2.28516,-2.28516c-1.26009,0 -2.28516,1.02507 -2.28516,2.28516c0,1.26009 1.02507,2.28516 2.28516,2.28516zM7.61719,16.04691c0,-1.26009 -1.02507,-2.28516 -2.28516,-2.28516c-1.26009,0 -2.28516,1.02507 -2.28516,2.28516c0,1.26009 1.02507,2.28516 2.28516,2.28516c1.26009,0 2.28516,-1.02507 2.28516,-2.28516zM21.42972,5.33204c0,0.42027 -0.34145,0.76172 -0.76172,0.76172c-0.42027,0 -0.76172,-0.34145 -0.76172,-0.76172c0,-0.42027 0.34145,-0.76172 0.76172,-0.76172c0.42027,0 0.76172,0.34145 0.76172,0.76172zM6.09378,16.04689c0,0.42027 -0.34145,0.76172 -0.76172,0.76172c-0.42027,0 -0.76172,-0.34145 -0.76172,-0.76172c0,-0.42027 0.34145,-0.76172 0.76172,-0.76172c0.42027,0 0.76172,0.34145 0.76172,0.76172z" vector-effect="non-scaling-stroke"/></defs></g></svg>