<svg version="1.2" xmlns="http://www.w3.org/2000/svg" xmlns:xlink="http://www.w3.org/1999/xlink" overflow="visible" preserveAspectRatio="none" viewBox="0 0 23.999999999999993 25.56856" width="23.999999999999993" height="25.56856"><g transform="translate(0, 0)"><g transform="translate(0, 2.220446049250313e-16) rotate(0)"><path d="M22.88236,11.52068c-0.61704,0 -1.11764,-0.46505 -1.11764,-1.03828c0,-2.91254 -1.22058,-5.6496 -3.43702,-7.70981c-0.43694,-0.40592 -0.43694,-1.06204 0,-1.46815c0.43694,-0.40592 1.14342,-0.40592 1.58037,0c2.63906,2.45149 4.09193,5.71101 4.09193,9.17796c0,0.57323 -0.50059,1.03828 -1.11764,1.03828zM1.11761,11.52068c-0.61682,0 -1.11761,-0.46505 -1.11761,-1.03828c0,-3.46695 1.45303,-6.72647 4.09182,-9.17796c0.43693,-0.40592 1.14339,-0.40592 1.58033,0c0.43714,0.40611 0.43714,1.06224 0,1.46815c-2.21639,2.05907 -3.43673,4.79726 -3.43673,7.70981c0,0.57323 -0.50078,1.03828 -1.11781,1.03828zM23,20.07487c0,1.06166 -0.86347,1.92513 -1.92493,1.92513h-18.14994c-1.06166,0 -1.92513,-0.86347 -1.92513,-1.92513c0,-0.56316 0.24532,-1.0955 0.67333,-1.46187c1.67296,-1.41454 2.62666,-3.46938 2.62666,-5.64628v-3.06675c0,-3.8708 2.8744,-7.07512 6.59998,-7.61189v-1.18815c0,-0.60827 0.49286,-1.09993 1.10013,-1.09993c0.60707,0 1.09993,0.49165 1.09993,1.09993v1.18815c3.72457,0.53677 6.59998,3.74109 6.59998,7.61189v3.06675c0,2.1769 0.9537,4.23174 2.61699,5.63762c0.43768,0.37504 0.683,0.90738 0.683,1.47053zM21.817,18.10434c-1,-1 0,0 0,0zM8,23h8c-0.37897,1.46316 -2.02841,2.56856 -4,2.56856c-1.97179,0 -3.62123,-1.1054 -4,-2.56856z" style="stroke-width: 0; stroke-linecap: butt; stroke-linejoin: miter; fill: rgb(57, 57, 57);" vector-effect="non-scaling-stroke"/></g><defs><path id="path-163832295913056362" d="M22.88236,11.52068c-0.61704,0 -1.11764,-0.46505 -1.11764,-1.03828c0,-2.91254 -1.22058,-5.6496 -3.43702,-7.70981c-0.43694,-0.40592 -0.43694,-1.06204 0,-1.46815c0.43694,-0.40592 1.14342,-0.40592 1.58037,0c2.63906,2.45149 4.09193,5.71101 4.09193,9.17796c0,0.57323 -0.50059,1.03828 -1.11764,1.03828zM1.11761,11.52068c-0.61682,0 -1.11761,-0.46505 -1.11761,-1.03828c0,-3.46695 1.45303,-6.72647 4.09182,-9.17796c0.43693,-0.40592 1.14339,-0.40592 1.58033,0c0.43714,0.40611 0.43714,1.06224 0,1.46815c-2.21639,2.05907 -3.43673,4.79726 -3.43673,7.70981c0,0.57323 -0.50078,1.03828 -1.11781,1.03828zM23,20.07487c0,1.06166 -0.86347,1.92513 -1.92493,1.92513h-18.14994c-1.06166,0 -1.92513,-0.86347 -1.92513,-1.92513c0,-0.56316 0.24532,-1.0955 0.67333,-1.46187c1.67296,-1.41454 2.62666,-3.46938 2.62666,-5.64628v-3.06675c0,-3.8708 2.8744,-7.07512 6.59998,-7.61189v-1.18815c0,-0.60827 0.49286,-1.09993 1.10013,-1.09993c0.60707,0 1.09993,0.49165 1.09993,1.09993v1.18815c3.72457,0.53677 6.59998,3.74109 6.59998,7.61189v3.06675c0,2.1769 0.9537,4.23174 2.61699,5.63762c0.43768,0.37504 0.683,0.90738 0.683,1.47053zM21.817,18.10434c-1,-1 0,0 0,0zM8,23h8c-0.37897,1.46316 -2.02841,2.56856 -4,2.56856c-1.97179,0 -3.62123,-1.1054 -4,-2.56856z" vector-effect="non-scaling-stroke"/></defs></g></svg>