<svg version="1.2" xmlns="http://www.w3.org/2000/svg" xmlns:xlink="http://www.w3.org/1999/xlink" overflow="visible" preserveAspectRatio="none" viewBox="0 0 22.00001 26.00002" width="22.00001" height="26.00002"><g transform="translate(0, 0)"><g transform="translate(-5.551115123125783e-16, 0) rotate(0)"><path d="M6.11606,3.08232c-0.29971,-0.29748 -0.29971,-0.77975 0,-1.07722c1.30266,-1.29294 3.03728,-2.0051 4.8839,-2.0051c0.00015,0 0,0 0.0001,0c1.84677,0 3.58119,0.71211 4.88385,2.0051c0.29971,0.29748 0.29971,0.77975 0,1.07722c-0.1498,0.14879 -0.34627,0.22313 -0.54263,0.22313c-0.19636,0 -0.39278,-0.07439 -0.54263,-0.22313c-1.01282,-1.00522 -2.36183,-1.55888 -3.79858,-1.55888c-1.43681,0 -2.78581,0.55362 -3.79868,1.55888c-0.29971,0.29753 -0.78566,0.29753 -1.08532,0zM12.62806,5.23677c-0.89775,-0.89096 -2.3583,-0.89096 -3.25605,0c-0.29971,0.29748 -0.78566,0.29748 -1.08532,0c-0.29971,-0.29748 -0.29971,-0.77975 0,-1.07722c1.4961,-1.485 3.93053,-1.485 5.42663,0c0.29971,0.29748 0.29971,0.77975 0,1.07722c-0.1498,0.14879 -0.34622,0.22313 -0.54263,0.22313c-0.19641,0 -0.39283,-0.07434 -0.54263,-0.22313zM10.23257,6.85263c0,-0.42069 0.3436,-0.76172 0.76744,-0.76172c0.42385,0 0.76744,0.34103 0.76744,0.76172c0,0.42069 -0.3436,0.76172 -0.76744,0.76172c-0.42385,0 -0.76744,-0.34103 -0.76744,-0.76172zM2.04652,24.47658h4.60465v0.76172c0,0.42067 -0.34361,0.76172 -0.76744,0.76172h-3.06977c-0.42383,0 -0.76744,-0.34105 -0.76744,-0.76172zM15.34885,24.47658h4.60465v0.76172c0,0.42067 -0.34361,0.76172 -0.76744,0.76172h-3.06977c-0.42383,0 -0.76744,-0.34105 -0.76744,-0.76172zM22,18.33333v3.88889c0,0.42954 -0.34361,0.77778 -0.76744,0.77778h-20.46512c-0.42383,0 -0.76744,-0.34824 -0.76744,-0.77778v-3.88889c0,-1.2866 1.03282,-2.33333 2.30233,-2.33333h4.02104c0.94293,0 1.81827,0.47476 2.34131,1.2699c0.11767,0.17889 0.3145,0.28565 0.52662,0.28565h3.61736c0.21212,0 0.40894,-0.10676 0.52662,-0.2856c0.52309,-0.7952 1.39838,-1.26996 2.34136,-1.26996h4.02104c1.2695,0 2.30233,1.04673 2.30233,2.33333zM5.37209,19.5c0,-0.42954 -0.34361,-0.77778 -0.76744,-0.77778h-1.53488c-0.42383,0 -0.76744,0.34824 -0.76744,0.77778c0,0.42954 0.34361,0.77778 0.76744,0.77778h1.53488c0.42383,0 0.76744,-0.34824 0.76744,-0.77778zM19.69767,19.5c0,-0.42954 -0.34361,-0.77778 -0.76744,-0.77778h-1.53488c-0.42383,0 -0.76744,0.34824 -0.76744,0.77778c0,0.42954 0.34361,0.77778 0.76744,0.77778h1.53488c0.42383,0 0.76744,-0.34824 0.76744,-0.77778zM6.32332,14.57423h-4.31835l0.91612,-2.72782c0.52309,-1.55766 1.98604,-2.60422 3.64028,-2.60422h3.67119v1.52344h-0.51163c-0.42383,0 -0.76744,0.34105 -0.76744,0.76172c0,0.42067 0.34361,0.76172 0.76744,0.76172h2.55814c0.42383,0 0.76744,-0.34105 0.76744,-0.76172c0,-0.42067 -0.34361,-0.76172 -0.76744,-0.76172h-0.51163v-1.52344h3.67119c1.65425,0 3.1172,1.04655 3.64028,2.60422l0.91612,2.72782h-4.3184c-1.28843,0 -2.49506,0.56159 -3.31601,1.52344h-2.72125c-0.82101,-0.96185 -2.02758,-1.52344 -3.31607,-1.52344z" style="stroke-width: 0; stroke-linecap: butt; stroke-linejoin: miter; fill: rgb(57, 57, 57);" vector-effect="non-scaling-stroke"/></g><defs><path id="path-163832295907956338" d="M6.11606,3.08232c-0.29971,-0.29748 -0.29971,-0.77975 0,-1.07722c1.30266,-1.29294 3.03728,-2.0051 4.8839,-2.0051c0.00015,0 0,0 0.0001,0c1.84677,0 3.58119,0.71211 4.88385,2.0051c0.29971,0.29748 0.29971,0.77975 0,1.07722c-0.1498,0.14879 -0.34627,0.22313 -0.54263,0.22313c-0.19636,0 -0.39278,-0.07439 -0.54263,-0.22313c-1.01282,-1.00522 -2.36183,-1.55888 -3.79858,-1.55888c-1.43681,0 -2.78581,0.55362 -3.79868,1.55888c-0.29971,0.29753 -0.78566,0.29753 -1.08532,0zM12.62806,5.23677c-0.89775,-0.89096 -2.3583,-0.89096 -3.25605,0c-0.29971,0.29748 -0.78566,0.29748 -1.08532,0c-0.29971,-0.29748 -0.29971,-0.77975 0,-1.07722c1.4961,-1.485 3.93053,-1.485 5.42663,0c0.29971,0.29748 0.29971,0.77975 0,1.07722c-0.1498,0.14879 -0.34622,0.22313 -0.54263,0.22313c-0.19641,0 -0.39283,-0.07434 -0.54263,-0.22313zM10.23257,6.85263c0,-0.42069 0.3436,-0.76172 0.76744,-0.76172c0.42385,0 0.76744,0.34103 0.76744,0.76172c0,0.42069 -0.3436,0.76172 -0.76744,0.76172c-0.42385,0 -0.76744,-0.34103 -0.76744,-0.76172zM2.04652,24.47658h4.60465v0.76172c0,0.42067 -0.34361,0.76172 -0.76744,0.76172h-3.06977c-0.42383,0 -0.76744,-0.34105 -0.76744,-0.76172zM15.34885,24.47658h4.60465v0.76172c0,0.42067 -0.34361,0.76172 -0.76744,0.76172h-3.06977c-0.42383,0 -0.76744,-0.34105 -0.76744,-0.76172zM22,18.33333v3.88889c0,0.42954 -0.34361,0.77778 -0.76744,0.77778h-20.46512c-0.42383,0 -0.76744,-0.34824 -0.76744,-0.77778v-3.88889c0,-1.2866 1.03282,-2.33333 2.30233,-2.33333h4.02104c0.94293,0 1.81827,0.47476 2.34131,1.2699c0.11767,0.17889 0.3145,0.28565 0.52662,0.28565h3.61736c0.21212,0 0.40894,-0.10676 0.52662,-0.2856c0.52309,-0.7952 1.39838,-1.26996 2.34136,-1.26996h4.02104c1.2695,0 2.30233,1.04673 2.30233,2.33333zM5.37209,19.5c0,-0.42954 -0.34361,-0.77778 -0.76744,-0.77778h-1.53488c-0.42383,0 -0.76744,0.34824 -0.76744,0.77778c0,0.42954 0.34361,0.77778 0.76744,0.77778h1.53488c0.42383,0 0.76744,-0.34824 0.76744,-0.77778zM19.69767,19.5c0,-0.42954 -0.34361,-0.77778 -0.76744,-0.77778h-1.53488c-0.42383,0 -0.76744,0.34824 -0.76744,0.77778c0,0.42954 0.34361,0.77778 0.76744,0.77778h1.53488c0.42383,0 0.76744,-0.34824 0.76744,-0.77778zM6.32332,14.57423h-4.31835l0.91612,-2.72782c0.52309,-1.55766 1.98604,-2.60422 3.64028,-2.60422h3.67119v1.52344h-0.51163c-0.42383,0 -0.76744,0.34105 -0.76744,0.76172c0,0.42067 0.34361,0.76172 0.76744,0.76172h2.55814c0.42383,0 0.76744,-0.34105 0.76744,-0.76172c0,-0.42067 -0.34361,-0.76172 -0.76744,-0.76172h-0.51163v-1.52344h3.67119c1.65425,0 3.1172,1.04655 3.64028,2.60422l0.91612,2.72782h-4.3184c-1.28843,0 -2.49506,0.56159 -3.31601,1.52344h-2.72125c-0.82101,-0.96185 -2.02758,-1.52344 -3.31607,-1.52344z" vector-effect="non-scaling-stroke"/></defs></g></svg>