<svg version="1.2" xmlns="http://www.w3.org/2000/svg" xmlns:xlink="http://www.w3.org/1999/xlink" overflow="visible" preserveAspectRatio="none" viewBox="0 0 18 18" width="18" height="18"><g transform="translate(0, 0)"><g transform="translate(0, 0) rotate(0)"><path d="M18,14.27343c0,1.45382 -1.1829,2.67188 -2.63672,2.67188h-3.78854c-0.21843,0.61249 -0.79829,1.05469 -1.48489,1.05469c-0.6866,0 -1.26647,-0.4422 -1.48489,-1.05469c-0.00204,0 -4.912,0 -4.91407,0c-0.2005,0 -0.33114,-0.11689 -0.33114,-0.11689c-0.07836,-0.06441 -2.56141,-3.4243 -2.6228,-3.50614c-0.48203,-0.64217 -0.73695,-1.40745 -0.73695,-2.21288c0,-2.03523 1.65618,-3.69141 3.69141,-3.69141c2.03523,0 3.69141,1.65618 3.69141,3.69141c0,0.80543 -0.25492,1.57071 -0.73695,2.21341l-1.89977,2.56785h3.85886c0.21843,-0.61249 0.79829,-1.05469 1.48489,-1.05469c0.6866,0 1.26647,0.4422 1.48489,1.05469h3.78854c0.87237,0 1.58203,-0.74482 1.58203,-1.61719c0,-0.87237 -0.70966,-1.58203 -1.58203,-1.58203h-0.62448c-0.21843,0.61249 -0.79829,1.05469 -1.48489,1.05469c-0.6866,0 -1.26647,-0.4422 -1.48489,-1.05469h-1.15182c-1.16336,0 -2.10937,-0.94602 -2.10937,-2.10938c0,-1.16336 0.94602,-2.10938 2.10938,-2.10938h2.63696l-1.90002,-2.56838c-0.48203,-0.64217 -0.73695,-1.40745 -0.73695,-2.21288c0,-2.03523 1.65618,-3.69141 3.69141,-3.69141c2.03523,0 3.69141,1.65618 3.69141,3.69141c0,0.80543 -0.25492,1.57071 -0.73695,2.21341l-2.53269,3.41139c-0.07161,0.09598 -0.25105,0.21115 -0.42177,0.21115h-3.69141c-0.58141,0 -1.05469,0.47327 -1.05469,1.05469c0,0.58142 0.47327,1.05469 1.05469,1.05469h1.15182c0.21843,-0.61249 0.79829,-1.05469 1.48489,-1.05469c0.6866,0 1.26647,0.4422 1.48489,1.05469h0.62448c1.45382,0 2.63672,1.18287 2.63672,2.63669zM14.30859,5.27345c0.87237,0 1.58203,-0.70967 1.58203,-1.58203c0,-0.87237 -0.70966,-1.58203 -1.58203,-1.58203c-0.87237,0 -1.58203,0.70967 -1.58203,1.58203c0,0.87237 0.70966,1.58203 1.58203,1.58203zM5.27344,11.1094c0,-0.87237 -0.70966,-1.58203 -1.58203,-1.58203c-0.87237,0 -1.58203,0.70967 -1.58203,1.58203c0,0.87237 0.70966,1.58203 1.58203,1.58203c0.87237,0 1.58203,-0.70967 1.58203,-1.58203zM14.83594,3.6914c0,0.29095 -0.23639,0.52734 -0.52734,0.52734c-0.29095,0 -0.52734,-0.23639 -0.52734,-0.52734c0,-0.29095 0.23639,-0.52734 0.52734,-0.52734c0.29095,0 0.52734,0.23639 0.52734,0.52734zM4.21875,11.10936c0,0.29095 -0.23639,0.52734 -0.52734,0.52734c-0.29095,0 -0.52734,-0.23639 -0.52734,-0.52734c0,-0.29095 0.23639,-0.52734 0.52734,-0.52734c0.29095,0 0.52734,0.23639 0.52734,0.52734z" style="stroke-width: 0; stroke-linecap: butt; stroke-linejoin: miter; fill: rgb(0, 0, 0);" vector-effect="non-scaling-stroke"/></g><defs><path id="path-163838836345595676" d="M18,14.27343c0,1.45382 -1.1829,2.67188 -2.63672,2.67188h-3.78854c-0.21843,0.61249 -0.79829,1.05469 -1.48489,1.05469c-0.6866,0 -1.26647,-0.4422 -1.48489,-1.05469c-0.00204,0 -4.912,0 -4.91407,0c-0.2005,0 -0.33114,-0.11689 -0.33114,-0.11689c-0.07836,-0.06441 -2.56141,-3.4243 -2.6228,-3.50614c-0.48203,-0.64217 -0.73695,-1.40745 -0.73695,-2.21288c0,-2.03523 1.65618,-3.69141 3.69141,-3.69141c2.03523,0 3.69141,1.65618 3.69141,3.69141c0,0.80543 -0.25492,1.57071 -0.73695,2.21341l-1.89977,2.56785h3.85886c0.21843,-0.61249 0.79829,-1.05469 1.48489,-1.05469c0.6866,0 1.26647,0.4422 1.48489,1.05469h3.78854c0.87237,0 1.58203,-0.74482 1.58203,-1.61719c0,-0.87237 -0.70966,-1.58203 -1.58203,-1.58203h-0.62448c-0.21843,0.61249 -0.79829,1.05469 -1.48489,1.05469c-0.6866,0 -1.26647,-0.4422 -1.48489,-1.05469h-1.15182c-1.16336,0 -2.10937,-0.94602 -2.10937,-2.10938c0,-1.16336 0.94602,-2.10938 2.10938,-2.10938h2.63696l-1.90002,-2.56838c-0.48203,-0.64217 -0.73695,-1.40745 -0.73695,-2.21288c0,-2.03523 1.65618,-3.69141 3.69141,-3.69141c2.03523,0 3.69141,1.65618 3.69141,3.69141c0,0.80543 -0.25492,1.57071 -0.73695,2.21341l-2.53269,3.41139c-0.07161,0.09598 -0.25105,0.21115 -0.42177,0.21115h-3.69141c-0.58141,0 -1.05469,0.47327 -1.05469,1.05469c0,0.58142 0.47327,1.05469 1.05469,1.05469h1.15182c0.21843,-0.61249 0.79829,-1.05469 1.48489,-1.05469c0.6866,0 1.26647,0.4422 1.48489,1.05469h0.62448c1.45382,0 2.63672,1.18287 2.63672,2.63669zM14.30859,5.27345c0.87237,0 1.58203,-0.70967 1.58203,-1.58203c0,-0.87237 -0.70966,-1.58203 -1.58203,-1.58203c-0.87237,0 -1.58203,0.70967 -1.58203,1.58203c0,0.87237 0.70966,1.58203 1.58203,1.58203zM5.27344,11.1094c0,-0.87237 -0.70966,-1.58203 -1.58203,-1.58203c-0.87237,0 -1.58203,0.70967 -1.58203,1.58203c0,0.87237 0.70966,1.58203 1.58203,1.58203c0.87237,0 1.58203,-0.70967 1.58203,-1.58203zM14.83594,3.6914c0,0.29095 -0.23639,0.52734 -0.52734,0.52734c-0.29095,0 -0.52734,-0.23639 -0.52734,-0.52734c0,-0.29095 0.23639,-0.52734 0.52734,-0.52734c0.29095,0 0.52734,0.23639 0.52734,0.52734zM4.21875,11.10936c0,0.29095 -0.23639,0.52734 -0.52734,0.52734c-0.29095,0 -0.52734,-0.23639 -0.52734,-0.52734c0,-0.29095 0.23639,-0.52734 0.52734,-0.52734c0.29095,0 0.52734,0.23639 0.52734,0.52734z" vector-effect="non-scaling-stroke"/></defs></g></svg>