<svg version="1.2" xmlns="http://www.w3.org/2000/svg" xmlns:xlink="http://www.w3.org/1999/xlink" overflow="visible" preserveAspectRatio="none" viewBox="0 0 15.000004719496726 18.99999" width="15.000004719496726" height="18.99999"><g transform="translate(0, 0)"><g transform="translate(0.000002359748364100245, 0) rotate(0)"><path d="M13.65686,3.31395c-1.36338,-2.12093 -3.61404,-3.31395 -6.14604,-3.31395c-2.51035,0 -4.76101,1.19302 -6.16768,3.31395c-1.40666,2.07674 -1.73128,4.72791 -0.86564,7.04767c0.23805,0.6186 0.60595,1.2593 1.08205,1.83372l5.47517,6.58372c0.12985,0.13256 0.25969,0.22093 0.45446,0.22093c0.19477,0 0.32461,-0.08837 0.45446,-0.22093l5.49681,-6.58372c0.4761,-0.57442 0.86564,-1.19302 1.08205,-1.83372c0.86564,-2.31977 0.54102,-4.97093 -0.86564,-7.04767zM7.51082,11.13488c-1.86112,0 -3.39763,-1.5686 -3.39763,-3.4686c0,-1.9 1.53651,-3.4686 3.39763,-3.4686c1.86112,0 3.39763,1.5686 3.39763,3.4686c0,1.9 -1.51487,3.4686 -3.39763,3.4686z" style="stroke: rgb(245, 88, 60); stroke-width: 0; stroke-linecap: butt; stroke-linejoin: miter; fill: rgb(245, 88, 60);" vector-effect="non-scaling-stroke"/></g><defs><path id="path-1638842465376471" d="M13.65686,3.31395c-1.36338,-2.12093 -3.61404,-3.31395 -6.14604,-3.31395c-2.51035,0 -4.76101,1.19302 -6.16768,3.31395c-1.40666,2.07674 -1.73128,4.72791 -0.86564,7.04767c0.23805,0.6186 0.60595,1.2593 1.08205,1.83372l5.47517,6.58372c0.12985,0.13256 0.25969,0.22093 0.45446,0.22093c0.19477,0 0.32461,-0.08837 0.45446,-0.22093l5.49681,-6.58372c0.4761,-0.57442 0.86564,-1.19302 1.08205,-1.83372c0.86564,-2.31977 0.54102,-4.97093 -0.86564,-7.04767zM7.51082,11.13488c-1.86112,0 -3.39763,-1.5686 -3.39763,-3.4686c0,-1.9 1.53651,-3.4686 3.39763,-3.4686c1.86112,0 3.39763,1.5686 3.39763,3.4686c0,1.9 -1.51487,3.4686 -3.39763,3.4686z" vector-effect="non-scaling-stroke"/></defs></g></svg>