<svg version="1.2" xmlns="http://www.w3.org/2000/svg" xmlns:xlink="http://www.w3.org/1999/xlink" overflow="visible" preserveAspectRatio="none" viewBox="0 0 19.000004999999994 19.00001" width="19.000004999999994" height="19.00001"><g transform="translate(0, 0)"><g transform="translate(0.000004999999999810711, 0) rotate(0)"><path d="M16.22053,2.77953c-3.70674,-3.70604 -9.73494,-3.70604 -13.44168,0c-3.70514,3.70604 -3.70514,9.73592 0,13.44196c1.85337,1.85263 4.28729,2.77852 6.72125,2.77852c2.43396,0 4.86706,-0.92592 6.72043,-2.77852c3.70596,-3.706 3.70596,-9.73592 0,-13.44196zM13.41987,12.30081c0.30967,0.30968 0.30967,0.81027 0,1.11995c-0.15445,0.15445 -0.3572,0.23208 -0.55998,0.23208c-0.20275,0 -0.40554,-0.07763 -0.55998,-0.23208l-2.79984,-2.80072l-2.79906,2.7999c-0.15523,0.15445 -0.35801,0.23208 -0.55998,0.23208c-0.20275,0 -0.40554,-0.07763 -0.55998,-0.23208c-0.30967,-0.30968 -0.30967,-0.81105 0,-1.11995l2.79906,-2.7999l-2.79984,-2.7999c-0.30967,-0.30968 -0.30967,-0.81105 0,-1.11995c0.30889,-0.30968 0.81025,-0.30968 1.11993,0l2.79984,2.7999l2.79984,-2.7999c0.30967,-0.30968 0.81025,-0.30968 1.11993,0c0.30967,0.3089 0.30967,0.81027 0,1.11995l-2.79984,2.7999z" style="stroke-width: 0; stroke-linecap: butt; stroke-linejoin: miter; fill: rgb(0, 0, 0);" vector-effect="non-scaling-stroke"/></g><defs><path id="path-16386442048958539" d="M16.22053,2.77953c-3.70674,-3.70604 -9.73494,-3.70604 -13.44168,0c-3.70514,3.70604 -3.70514,9.73592 0,13.44196c1.85337,1.85263 4.28729,2.77852 6.72125,2.77852c2.43396,0 4.86706,-0.92592 6.72043,-2.77852c3.70596,-3.706 3.70596,-9.73592 0,-13.44196zM13.41987,12.30081c0.30967,0.30968 0.30967,0.81027 0,1.11995c-0.15445,0.15445 -0.3572,0.23208 -0.55998,0.23208c-0.20275,0 -0.40554,-0.07763 -0.55998,-0.23208l-2.79984,-2.80072l-2.79906,2.7999c-0.15523,0.15445 -0.35801,0.23208 -0.55998,0.23208c-0.20275,0 -0.40554,-0.07763 -0.55998,-0.23208c-0.30967,-0.30968 -0.30967,-0.81105 0,-1.11995l2.79906,-2.7999l-2.79984,-2.7999c-0.30967,-0.30968 -0.30967,-0.81105 0,-1.11995c0.30889,-0.30968 0.81025,-0.30968 1.11993,0l2.79984,2.7999l2.79984,-2.7999c0.30967,-0.30968 0.81025,-0.30968 1.11993,0c0.30967,0.3089 0.30967,0.81027 0,1.11995l-2.79984,2.7999z" vector-effect="non-scaling-stroke"/></defs></g></svg>