<svg version="1.2" xmlns="http://www.w3.org/2000/svg" xmlns:xlink="http://www.w3.org/1999/xlink" overflow="visible" preserveAspectRatio="none" viewBox="0 0 17 19" width="17" height="19"><g transform="translate(0, 0)"><g transform="translate(0, 0) rotate(0)"><path d="M15,6.13126c0,1.27482 -0.41316,2.50007 -1.19568,3.54354l-4.80689,7.06861c-0.23172,0.34179 -0.76267,0.34246 -0.99485,0l-4.78613,-7.04464c-0.79974,-1.093 -1.21645,-2.25943 -1.21645,-3.5675c0,-3.43834 2.95592,-6.13126 6.5,-6.13126c3.5841,0 6.5,2.75049 6.5,6.13126zM11.45455,6.13126c0,-1.53664 -1.32549,-2.78694 -2.95455,-2.78694c-1.62906,0 -2.95455,1.25029 -2.95455,2.78694c0,1.53664 1.32549,2.78694 2.95455,2.78694c1.62906,0 2.95455,-1.25029 2.95455,-2.78694zM17,15.66016c0,2.16949 -4.3795,3.33984 -8.5,3.33984c-4.1205,0 -8.5,-1.17036 -8.5,-3.33984c0,-1.25025 1.55017,-2.29648 4.06481,-2.86759l2.85804,4.38206c0.73504,1.12638 2.41513,1.13009 3.15373,-0.00108l2.85339,-4.38213c2.5177,0.57082 4.07003,1.6176 4.07003,2.86874z" style="stroke-width: 0; stroke-linecap: butt; stroke-linejoin: miter; fill: rgb(0, 0, 0);" vector-effect="non-scaling-stroke"/></g><defs><path id="path-1638388469277127411" d="M15,6.13126c0,1.27482 -0.41316,2.50007 -1.19568,3.54354l-4.80689,7.06861c-0.23172,0.34179 -0.76267,0.34246 -0.99485,0l-4.78613,-7.04464c-0.79974,-1.093 -1.21645,-2.25943 -1.21645,-3.5675c0,-3.43834 2.95592,-6.13126 6.5,-6.13126c3.5841,0 6.5,2.75049 6.5,6.13126zM11.45455,6.13126c0,-1.53664 -1.32549,-2.78694 -2.95455,-2.78694c-1.62906,0 -2.95455,1.25029 -2.95455,2.78694c0,1.53664 1.32549,2.78694 2.95455,2.78694c1.62906,0 2.95455,-1.25029 2.95455,-2.78694zM17,15.66016c0,2.16949 -4.3795,3.33984 -8.5,3.33984c-4.1205,0 -8.5,-1.17036 -8.5,-3.33984c0,-1.25025 1.55017,-2.29648 4.06481,-2.86759l2.85804,4.38206c0.73504,1.12638 2.41513,1.13009 3.15373,-0.00108l2.85339,-4.38213c2.5177,0.57082 4.07003,1.6176 4.07003,2.86874z" vector-effect="non-scaling-stroke"/></defs></g></svg>