<svg version="1.2" xmlns="http://www.w3.org/2000/svg" xmlns:xlink="http://www.w3.org/1999/xlink" overflow="visible" preserveAspectRatio="none" viewBox="0 0 15 19" width="15" height="19"><g transform="translate(0, 0)"><g transform="translate(0, 0) rotate(0)"><path d="M14.99999,4.75h-5v-4.75zM15,5.9375v11.875c0,0.6555 -0.56,1.1875 -1.25,1.1875h-12.5c-0.68875,0 -1.25,-0.532 -1.25,-1.1875v-16.625c0,-0.65431 0.56125,-1.1875 1.25,-1.1875h7.5v4.75c0,0.65431 0.56125,1.1875 1.25,1.1875zM4.99999,13.0625h-2.5v3.5625h2.5zM8.74999,10.6875h-2.5v5.9375h2.5zM12.49999,8.3125h-2.5v8.3125h2.5z" style="stroke-width: 0; stroke-linecap: butt; stroke-linejoin: miter; fill: rgb(0, 0, 0);" vector-effect="non-scaling-stroke"/></g><defs><path id="path-1638388469274127338" d="M14.99999,4.75h-5v-4.75zM15,5.9375v11.875c0,0.6555 -0.56,1.1875 -1.25,1.1875h-12.5c-0.68875,0 -1.25,-0.532 -1.25,-1.1875v-16.625c0,-0.65431 0.56125,-1.1875 1.25,-1.1875h7.5v4.75c0,0.65431 0.56125,1.1875 1.25,1.1875zM4.99999,13.0625h-2.5v3.5625h2.5zM8.74999,10.6875h-2.5v5.9375h2.5zM12.49999,8.3125h-2.5v8.3125h2.5z" vector-effect="non-scaling-stroke"/></defs></g></svg>