<svg version="1.2" xmlns="http://www.w3.org/2000/svg" xmlns:xlink="http://www.w3.org/1999/xlink" overflow="visible" preserveAspectRatio="none" viewBox="0 0 20.000001810113076 20.00001142803689" width="20.000001810113076" height="20.00001142803689"><g transform="translate(0, 0)"><g transform="translate(0.000007500000000132401, 0.000011428036886484277) rotate(0)"><path d="M19.85423,16.95641c-0.05508,0.20145 -0.21266,0.35844 -0.41451,0.41207c-0.2018,0.05363 -0.41697,-0.0043 -0.56459,-0.15191l-1.57458,-1.5741c-0.44525,-0.44645 -1.20164,-0.45367 -1.65826,0.00059c-0.45459,0.4557 -0.45908,1.19461 0.00113,1.65594l1.5738,1.57375c0.14762,0.14766 0.20606,0.36223 0.1527,0.56406c-0.05336,0.20184 -0.21009,0.36004 -0.41142,0.41527c-1.40848,0.38645 -2.90174,0.00379 -3.95294,-1.04816c-1.04265,-1.04262 -1.46352,-2.45633 -0.97562,-4.2891l-6.53814,-6.54406c-1.83447,0.49238 -3.26026,0.05465 -4.28866,-0.97445c-1.05492,-1.05488 -1.43079,-2.55664 -1.04871,-3.95266c0.05508,-0.20148 0.21266,-0.35855 0.41454,-0.41215c0.20184,-0.05363 0.41701,0.0043 0.56463,0.15199l1.57447,1.57453c0.44919,0.45035 1.20727,0.45105 1.65826,-0.00113c0.45459,-0.45578 0.45908,-1.19461 -0.00113,-1.65594l-1.57415,-1.5741c-0.14754,-0.14762 -0.20602,-0.36215 -0.1527,-0.56398c0.05332,-0.20184 0.21001,-0.36 0.4113,-0.41527c1.41157,-0.38773 2.90412,-0.00223 3.954,1.04844c1.03113,1.03109 1.43798,2.54965 1.06144,3.96238l-0.08641,0.32672l6.53764,6.54406c1.83338,-0.49133 3.26097,-0.05516 4.28979,0.97441c1.05441,1.05488 1.4302,2.55703 1.04812,3.95281zM10,13.45777l-5.8269,5.82709c-0.95357,0.95352 -2.50429,0.95352 -3.4579,0c-0.95361,-0.95348 -0.95361,-2.50408 0,-3.4576l5.82702,-5.82725zM7.30634,13.68016c0.23876,-0.23874 0.23876,-0.62551 0,-0.86425c-0.23872,-0.23874 -0.62556,-0.23874 -0.86432,0l-3.7075,3.70787c-0.23876,0.23874 -0.23876,0.62551 0,0.86425c0.2388,0.23878 0.62552,0.23878 0.86432,0zM19.91654,1.89751l-1.86424,3.1073c-0.1961,0.32695 -0.64721,0.38242 -0.91679,0.11293l-0.34841,-0.34848l-3.94466,3.9284l-1.65767,-1.65762l3.94466,-3.9284l-0.24735,-0.24727c-0.26954,-0.26957 -0.21403,-0.72062 0.11293,-0.91676l3.10741,-1.86418c0.23055,-0.13824 0.5256,-0.10191 0.71573,0.0882l1.01015,1.01012c0.19012,0.19012 0.22645,0.48516 0.08825,0.71574z" style="stroke-width: 0; stroke-linecap: butt; stroke-linejoin: miter; fill: rgb(0, 0, 0);" vector-effect="non-scaling-stroke"/></g><defs><path id="path-16386442048958546" d="M19.85423,16.95641c-0.05508,0.20145 -0.21266,0.35844 -0.41451,0.41207c-0.2018,0.05363 -0.41697,-0.0043 -0.56459,-0.15191l-1.57458,-1.5741c-0.44525,-0.44645 -1.20164,-0.45367 -1.65826,0.00059c-0.45459,0.4557 -0.45908,1.19461 0.00113,1.65594l1.5738,1.57375c0.14762,0.14766 0.20606,0.36223 0.1527,0.56406c-0.05336,0.20184 -0.21009,0.36004 -0.41142,0.41527c-1.40848,0.38645 -2.90174,0.00379 -3.95294,-1.04816c-1.04265,-1.04262 -1.46352,-2.45633 -0.97562,-4.2891l-6.53814,-6.54406c-1.83447,0.49238 -3.26026,0.05465 -4.28866,-0.97445c-1.05492,-1.05488 -1.43079,-2.55664 -1.04871,-3.95266c0.05508,-0.20148 0.21266,-0.35855 0.41454,-0.41215c0.20184,-0.05363 0.41701,0.0043 0.56463,0.15199l1.57447,1.57453c0.44919,0.45035 1.20727,0.45105 1.65826,-0.00113c0.45459,-0.45578 0.45908,-1.19461 -0.00113,-1.65594l-1.57415,-1.5741c-0.14754,-0.14762 -0.20602,-0.36215 -0.1527,-0.56398c0.05332,-0.20184 0.21001,-0.36 0.4113,-0.41527c1.41157,-0.38773 2.90412,-0.00223 3.954,1.04844c1.03113,1.03109 1.43798,2.54965 1.06144,3.96238l-0.08641,0.32672l6.53764,6.54406c1.83338,-0.49133 3.26097,-0.05516 4.28979,0.97441c1.05441,1.05488 1.4302,2.55703 1.04812,3.95281zM10,13.45777l-5.8269,5.82709c-0.95357,0.95352 -2.50429,0.95352 -3.4579,0c-0.95361,-0.95348 -0.95361,-2.50408 0,-3.4576l5.82702,-5.82725zM7.30634,13.68016c0.23876,-0.23874 0.23876,-0.62551 0,-0.86425c-0.23872,-0.23874 -0.62556,-0.23874 -0.86432,0l-3.7075,3.70787c-0.23876,0.23874 -0.23876,0.62551 0,0.86425c0.2388,0.23878 0.62552,0.23878 0.86432,0zM19.91654,1.89751l-1.86424,3.1073c-0.1961,0.32695 -0.64721,0.38242 -0.91679,0.11293l-0.34841,-0.34848l-3.94466,3.9284l-1.65767,-1.65762l3.94466,-3.9284l-0.24735,-0.24727c-0.26954,-0.26957 -0.21403,-0.72062 0.11293,-0.91676l3.10741,-1.86418c0.23055,-0.13824 0.5256,-0.10191 0.71573,0.0882l1.01015,1.01012c0.19012,0.19012 0.22645,0.48516 0.08825,0.71574z" vector-effect="non-scaling-stroke"/></defs></g></svg>