<svg version="1.2" xmlns="http://www.w3.org/2000/svg" xmlns:xlink="http://www.w3.org/1999/xlink" overflow="visible" preserveAspectRatio="none" viewBox="0 0 19.999529817892416 19.99999999999998" width="19.999529817892416" height="19.99999999999998"><g transform="translate(0, 0)"><g transform="translate(-0.000470182107584427, -1.9973675956145326e-14) rotate(0)"><path d="M1.01637,15.45098c-1.35487,-1.47808 -1.35441,-3.87106 0.00061,-5.33497c0.64424,-0.71221 1.54329,-1.11616 2.48436,-1.116c0.94091,0.00032 1.83981,0.40459 2.48374,1.11712c1.35425,1.47744 1.35379,3.87043 -0.00107,5.33434l-2.25683,2.44792c-0.05918,0.06417 -0.14121,0.10063 -0.22676,0.10063c-0.0857,0 -0.16758,-0.03646 -0.22691,-0.10063zM1.51495,12.62952c0,1.13861 0.88878,2.06148 1.985,2.06148c1.09622,0 1.985,-0.92286 1.985,-2.06148c-0.00015,-1.13845 -0.88878,-2.06132 -1.985,-2.06132c-1.09576,0.00127 -1.98378,0.9235 -1.985,2.06132zM18.98462,1.11712c1.35425,1.47744 1.35379,3.87043 -0.00107,5.33434l-2.25683,2.44792c-0.05918,0.06417 -0.14121,0.10063 -0.22676,0.10063c-0.0857,0 -0.16758,-0.03646 -0.22691,-0.10063l-2.25713,-2.44839c-1.35486,-1.47808 -1.3544,-3.87106 0.00046,-5.33497c0.64378,-0.71237 1.54283,-1.11632 2.48358,-1.116c0.94121,-0.00032 1.84073,0.40411 2.48466,1.11712zM18.48481,3.62952c0,-1.13845 -0.88863,-2.06132 -1.98484,-2.06132c-1.09637,0 -1.985,0.92286 -1.985,2.06148c0,1.13845 0.88878,2.06132 1.985,2.06132c1.09576,-0.00127 1.98362,-0.9235 1.98484,-2.06148zM15.99996,5.191c-1,-1 0,0 0,0zM5.16245,18.52788h2.79701c1.25819,0 2.28177,-1.15776 2.28177,-2.55576v-2.98513c0,-2.20962 1.61788,-3.98699 3.60667,-3.98699h1.50891c0.36587,0 0.66245,0.32953 0.66245,0.73606c0,0.40653 -0.29658,0.73606 -0.66245,0.73606h-1.50891c-1.25819,0 -2.28177,1.11703 -2.28177,2.51487v2.98513c0,2.20978 -1.61803,4.02788 -3.60667,4.02788h-2.79701c-0.36573,-0.00048 -0.66202,-0.32969 -0.66245,-0.73606c0.00043,-0.40621 0.29672,-0.73558 0.66245,-0.73606z" style="stroke-width: 0; stroke-linecap: butt; stroke-linejoin: miter; fill: rgb(0, 0, 0);" vector-effect="non-scaling-stroke"/></g><defs><path id="path-1638388469276127383" d="M1.01637,15.45098c-1.35487,-1.47808 -1.35441,-3.87106 0.00061,-5.33497c0.64424,-0.71221 1.54329,-1.11616 2.48436,-1.116c0.94091,0.00032 1.83981,0.40459 2.48374,1.11712c1.35425,1.47744 1.35379,3.87043 -0.00107,5.33434l-2.25683,2.44792c-0.05918,0.06417 -0.14121,0.10063 -0.22676,0.10063c-0.0857,0 -0.16758,-0.03646 -0.22691,-0.10063zM1.51495,12.62952c0,1.13861 0.88878,2.06148 1.985,2.06148c1.09622,0 1.985,-0.92286 1.985,-2.06148c-0.00015,-1.13845 -0.88878,-2.06132 -1.985,-2.06132c-1.09576,0.00127 -1.98378,0.9235 -1.985,2.06132zM18.98462,1.11712c1.35425,1.47744 1.35379,3.87043 -0.00107,5.33434l-2.25683,2.44792c-0.05918,0.06417 -0.14121,0.10063 -0.22676,0.10063c-0.0857,0 -0.16758,-0.03646 -0.22691,-0.10063l-2.25713,-2.44839c-1.35486,-1.47808 -1.3544,-3.87106 0.00046,-5.33497c0.64378,-0.71237 1.54283,-1.11632 2.48358,-1.116c0.94121,-0.00032 1.84073,0.40411 2.48466,1.11712zM18.48481,3.62952c0,-1.13845 -0.88863,-2.06132 -1.98484,-2.06132c-1.09637,0 -1.985,0.92286 -1.985,2.06148c0,1.13845 0.88878,2.06132 1.985,2.06132c1.09576,-0.00127 1.98362,-0.9235 1.98484,-2.06148zM15.99996,5.191c-1,-1 0,0 0,0zM5.16245,18.52788h2.79701c1.25819,0 2.28177,-1.15776 2.28177,-2.55576v-2.98513c0,-2.20962 1.61788,-3.98699 3.60667,-3.98699h1.50891c0.36587,0 0.66245,0.32953 0.66245,0.73606c0,0.40653 -0.29658,0.73606 -0.66245,0.73606h-1.50891c-1.25819,0 -2.28177,1.11703 -2.28177,2.51487v2.98513c0,2.20978 -1.61803,4.02788 -3.60667,4.02788h-2.79701c-0.36573,-0.00048 -0.66202,-0.32969 -0.66245,-0.73606c0.00043,-0.40621 0.29672,-0.73558 0.66245,-0.73606z" vector-effect="non-scaling-stroke"/></defs></g></svg>