<svg version="1.2" xmlns="http://www.w3.org/2000/svg" xmlns:xlink="http://www.w3.org/1999/xlink" overflow="visible" preserveAspectRatio="none" viewBox="0 0 18 25" width="18" height="25"><g transform="translate(0, 0)"><g transform="translate(-1.7763568394002505e-15, 0.000010000000000530418) rotate(0)"><path d="M17.96198,6.57187c-0.02498,-0.0646 -0.06202,-0.12187 -0.10898,-0.16978l-5.99902,-6.24897c-0.04598,-0.0479 -0.102,-0.08647 -0.16298,-0.11353c-0.06098,-0.02607 -0.126,-0.0396 -0.19102,-0.0396h-9.99998c-0.82702,0 -1.5,0.70103 -1.5,1.5625v21.875c0,0.86147 0.67298,1.5625 1.5,1.5625h15c0.82702,0 1.5,-0.70103 1.5,-1.5625v-16.66665c0,-0.06772 -0.01298,-0.13545 -0.03802,-0.19897zM12.50002,6.25c-0.27502,0 -0.50002,-0.23335 -0.50002,-0.52085v-3.95103l4.293,4.47187z" style="stroke-width: 0; stroke-linecap: butt; stroke-linejoin: miter; fill: rgb(161, 161, 194);" vector-effect="non-scaling-stroke"/></g><defs><path id="path-1638929437709331" d="M17.96198,6.57187c-0.02498,-0.0646 -0.06202,-0.12187 -0.10898,-0.16978l-5.99902,-6.24897c-0.04598,-0.0479 -0.102,-0.08647 -0.16298,-0.11353c-0.06098,-0.02607 -0.126,-0.0396 -0.19102,-0.0396h-9.99998c-0.82702,0 -1.5,0.70103 -1.5,1.5625v21.875c0,0.86147 0.67298,1.5625 1.5,1.5625h15c0.82702,0 1.5,-0.70103 1.5,-1.5625v-16.66665c0,-0.06772 -0.01298,-0.13545 -0.03802,-0.19897zM12.50002,6.25c-0.27502,0 -0.50002,-0.23335 -0.50002,-0.52085v-3.95103l4.293,4.47187z" vector-effect="non-scaling-stroke"/></defs></g></svg>