<svg version="1.2" xmlns="http://www.w3.org/2000/svg" xmlns:xlink="http://www.w3.org/1999/xlink" overflow="visible" preserveAspectRatio="none" viewBox="0 0 15.000000000000025 18.000000000000043" width="15.000000000000025" height="18.000000000000043"><g transform="translate(0, 0)"><g transform="translate(6.2727600891321345e-15, 0) rotate(0)"><path d="M9.7484,0v1.50154h-1.49884v0.75075c-0.52461,-0.07506 -0.97426,-0.07506 -1.49884,0v-0.75075h-1.49884v-1.50154zM13.88267,14.40107c-2.10028,3.54316 -6.75081,4.6504 -10.27625,2.50973c-3.52544,-2.14067 -4.65054,-6.56963 -2.5503,-10.11279c2.10024,-3.54316 6.75081,-4.6504 10.35125,-2.50973l0.67508,-0.66434l-0.60008,-0.5905l1.05014,-1.03343l2.25027,2.21448l-1.05014,1.03343l-0.60008,-0.59054l-0.52505,0.5167c2.62533,2.36212 3.15038,6.20054 1.27517,9.227zM12.7575,10.56262h-5.25062v-5.1671c-2.92535,0 -5.25062,2.28832 -5.25062,5.16714c0,2.87882 2.32527,5.1671 5.25062,5.1671c2.92535,0 5.25066,-2.28832 5.25062,-5.16714z" style="stroke-width: 0; stroke-linecap: butt; stroke-linejoin: miter; fill: rgb(0, 0, 0);" vector-effect="non-scaling-stroke"/></g><defs><path id="path-1638388469270127238" d="M9.7484,0v1.50154h-1.49884v0.75075c-0.52461,-0.07506 -0.97426,-0.07506 -1.49884,0v-0.75075h-1.49884v-1.50154zM13.88267,14.40107c-2.10028,3.54316 -6.75081,4.6504 -10.27625,2.50973c-3.52544,-2.14067 -4.65054,-6.56963 -2.5503,-10.11279c2.10024,-3.54316 6.75081,-4.6504 10.35125,-2.50973l0.67508,-0.66434l-0.60008,-0.5905l1.05014,-1.03343l2.25027,2.21448l-1.05014,1.03343l-0.60008,-0.59054l-0.52505,0.5167c2.62533,2.36212 3.15038,6.20054 1.27517,9.227zM12.7575,10.56262h-5.25062v-5.1671c-2.92535,0 -5.25062,2.28832 -5.25062,5.16714c0,2.87882 2.32527,5.1671 5.25062,5.1671c2.92535,0 5.25066,-2.28832 5.25062,-5.16714z" vector-effect="non-scaling-stroke"/></defs></g></svg>