<svg version="1.2" xmlns="http://www.w3.org/2000/svg" xmlns:xlink="http://www.w3.org/1999/xlink" overflow="visible" preserveAspectRatio="none" viewBox="0 0 20 20" width="20" height="20"><g transform="translate(0, 0)"><g transform="translate(0, 0) rotate(0)"><path d="M20,12.92969c0,1.33609 -1.80258,2.34375 -4.14062,2.34375c-0.85324,0 -1.62664,-0.13695 -2.26906,-0.37234l-2.4841,1.41949c0.41191,0.36711 0.6516,0.80902 0.6516,1.2966c0,1.33609 -1.76352,2.38281 -4.10156,2.38281c-2.33805,0 -4.14062,-1.04672 -4.14062,-2.38281c0,-1.33609 1.80258,-2.34375 4.14063,-2.34375c0.85324,0 1.62664,0.13695 2.2691,0.37238l2.4841,-1.41949c-0.41191,-0.36711 -0.6516,-0.80902 -0.6516,-1.2966c0,-0.13961 0.03004,-0.27316 0.06715,-0.40484l-4.97355,-1.23383c-0.45105,0.94742 -1.76527,1.63863 -3.33582,1.63863c-1.94164,0 -3.51562,-1.04934 -3.51562,-2.34375c0,-0.74801 0.53535,-1.40633 1.35367,-1.83547l0.75488,1.13109c0.3302,0.44117 0.85605,0.70437 1.40707,0.70437c0.55102,0 1.07688,-0.2632 1.44367,-0.75645l0.71867,-1.07883c0.63754,0.33438 1.09355,0.81 1.26816,1.35668l5.62992,1.39797c0.73523,-0.56238 1.90332,-0.91938 3.28332,-0.91938c2.33805,0 4.14063,1.00766 4.14063,2.34375zM0.69841,5.37573c-0.45687,-0.58478 -0.69841,-1.2817 -0.69841,-2.01473c0,-1.85337 1.56998,-3.361 3.5,-3.361c1.93002,0 3.5,1.50763 3.5,3.361c0,0.73359 -0.24154,1.42995 -0.69841,2.01473l-2.33504,3.39998c-0.10994,0.14112 -0.28311,0.22429 -0.46655,0.22429c-0.18344,0 -0.35661,-0.08317 -0.46655,-0.22429zM1.75,3.361c0,0.92666 0.78501,1.6805 1.75,1.6805c0.96499,0 1.75,-0.75383 1.75,-1.6805c0,-0.92666 -0.78501,-1.6805 -1.75,-1.6805c-0.96499,0 -1.75,0.75383 -1.75,1.6805z" style="stroke-width: 0; stroke-linecap: butt; stroke-linejoin: miter; fill: rgb(0, 0, 0);" vector-effect="non-scaling-stroke"/></g><defs><path id="path-1638388469276127385" d="M20,12.92969c0,1.33609 -1.80258,2.34375 -4.14062,2.34375c-0.85324,0 -1.62664,-0.13695 -2.26906,-0.37234l-2.4841,1.41949c0.41191,0.36711 0.6516,0.80902 0.6516,1.2966c0,1.33609 -1.76352,2.38281 -4.10156,2.38281c-2.33805,0 -4.14062,-1.04672 -4.14062,-2.38281c0,-1.33609 1.80258,-2.34375 4.14063,-2.34375c0.85324,0 1.62664,0.13695 2.2691,0.37238l2.4841,-1.41949c-0.41191,-0.36711 -0.6516,-0.80902 -0.6516,-1.2966c0,-0.13961 0.03004,-0.27316 0.06715,-0.40484l-4.97355,-1.23383c-0.45105,0.94742 -1.76527,1.63863 -3.33582,1.63863c-1.94164,0 -3.51562,-1.04934 -3.51562,-2.34375c0,-0.74801 0.53535,-1.40633 1.35367,-1.83547l0.75488,1.13109c0.3302,0.44117 0.85605,0.70437 1.40707,0.70437c0.55102,0 1.07688,-0.2632 1.44367,-0.75645l0.71867,-1.07883c0.63754,0.33438 1.09355,0.81 1.26816,1.35668l5.62992,1.39797c0.73523,-0.56238 1.90332,-0.91938 3.28332,-0.91938c2.33805,0 4.14063,1.00766 4.14063,2.34375zM0.69841,5.37573c-0.45687,-0.58478 -0.69841,-1.2817 -0.69841,-2.01473c0,-1.85337 1.56998,-3.361 3.5,-3.361c1.93002,0 3.5,1.50763 3.5,3.361c0,0.73359 -0.24154,1.42995 -0.69841,2.01473l-2.33504,3.39998c-0.10994,0.14112 -0.28311,0.22429 -0.46655,0.22429c-0.18344,0 -0.35661,-0.08317 -0.46655,-0.22429zM1.75,3.361c0,0.92666 0.78501,1.6805 1.75,1.6805c0.96499,0 1.75,-0.75383 1.75,-1.6805c0,-0.92666 -0.78501,-1.6805 -1.75,-1.6805c-0.96499,0 -1.75,0.75383 -1.75,1.6805z" vector-effect="non-scaling-stroke"/></defs></g></svg>