<svg version="1.2" xmlns="http://www.w3.org/2000/svg" xmlns:xlink="http://www.w3.org/1999/xlink" overflow="visible" preserveAspectRatio="none" viewBox="0 0 18 15" width="18" height="15"><g transform="translate(0, 0)"><g transform="translate(0, 0) rotate(0)"><path d="M11.34829,0.64295v13.70979c0,0.35509 -0.28544,0.64295 -0.63754,0.64295h-3.44274c-0.3521,0 -0.63754,-0.28786 -0.63754,-0.64295v-13.70979c0,-0.35509 0.28544,-0.64295 0.63754,-0.64295h3.44274c0.3521,0 0.63754,0.28782 0.63754,0.64295zM18,8.63694v5.72011c0,0.35509 -0.28544,0.64295 -0.63754,0.64295h-3.44274c-0.3521,0 -0.63754,-0.28786 -0.63754,-0.64295v-5.72011c0,-0.35509 0.28544,-0.64295 0.63754,-0.64295h3.44274c0.3521,0 0.63754,0.28782 0.63754,0.64295zM4.71783,5.76511v8.58336c0,0.35509 -0.28544,0.64295 -0.63754,0.64295h-3.44274c-0.3521,0 -0.63754,-0.28786 -0.63754,-0.64295v-8.58336c0,-0.35509 0.28544,-0.64295 0.63754,-0.64295h3.44274c0.3521,0 0.63754,0.28786 0.63754,0.64295z" style="stroke-width: 0; stroke-linecap: butt; stroke-linejoin: miter; fill: rgb(0, 0, 0);" vector-effect="non-scaling-stroke"/></g><defs><path id="path-1638388469273127288" d="M11.34829,0.64295v13.70979c0,0.35509 -0.28544,0.64295 -0.63754,0.64295h-3.44274c-0.3521,0 -0.63754,-0.28786 -0.63754,-0.64295v-13.70979c0,-0.35509 0.28544,-0.64295 0.63754,-0.64295h3.44274c0.3521,0 0.63754,0.28782 0.63754,0.64295zM18,8.63694v5.72011c0,0.35509 -0.28544,0.64295 -0.63754,0.64295h-3.44274c-0.3521,0 -0.63754,-0.28786 -0.63754,-0.64295v-5.72011c0,-0.35509 0.28544,-0.64295 0.63754,-0.64295h3.44274c0.3521,0 0.63754,0.28782 0.63754,0.64295zM4.71783,5.76511v8.58336c0,0.35509 -0.28544,0.64295 -0.63754,0.64295h-3.44274c-0.3521,0 -0.63754,-0.28786 -0.63754,-0.64295v-8.58336c0,-0.35509 0.28544,-0.64295 0.63754,-0.64295h3.44274c0.3521,0 0.63754,0.28786 0.63754,0.64295z" vector-effect="non-scaling-stroke"/></defs></g></svg>