<svg version="1.2" xmlns="http://www.w3.org/2000/svg" xmlns:xlink="http://www.w3.org/1999/xlink" overflow="visible" preserveAspectRatio="none" viewBox="0 0 18 17.999999999999943" width="18" height="17.999999999999943"><g transform="translate(0, 0)"><g transform="translate(0, 0) rotate(0)"><path d="M17.69158,6.56817c0.41123,0.41126 0.41123,1.08035 0,1.49157l-0.85056,0.83992l-2.36664,-2.36661c0.91173,-0.91171 0.86536,-0.86871 0.92523,-0.91751c0.41408,-0.33739 1.02641,-0.31317 1.4116,0.07228zM13.72859,7.27879l2.36196,2.36194c-4.41672,4.36145 -4.05942,4.02704 -4.17744,4.08213l-2.98323,1.39215c-0.20089,0.09376 -0.43911,0.05186 -0.59591,-0.10498c-0.1568,-0.1568 -0.19874,-0.39491 -0.10498,-0.5959l1.39215,-2.98315c0.05618,-0.12034 -0.27166,0.22683 4.10745,-4.1522zM13,13.71547v2.7025c0,0.87233 -0.6852,1.58203 -1.52742,1.58203h-9.94517c-0.84222,0 -1.52742,-0.7097 -1.52742,-1.58203v-14.83594c0,-0.87233 0.6852,-1.58203 1.52742,-1.58203h9.94517c0.84222,0 1.52742,0.7097 1.52742,1.58203v4.46857l-4.32995,4.48478c-0.12623,0.13078 -0.22854,0.28202 -0.30402,0.44954l-1.34409,2.98322c-0.27059,0.60068 -0.14836,1.3191 0.30413,1.78773c0.46763,0.48445 1.15955,0.58869 1.72591,0.31493l2.88016,-1.39215c0.15875,-0.07675 0.30246,-0.18028 0.42717,-0.30779zM2.2063,3.9375c0,0.29123 0.22796,0.52734 0.50914,0.52734h7.60313c0.28118,0 0.50914,-0.23611 0.50914,-0.52734c0,-0.29123 -0.22796,-0.52734 -0.50914,-0.52734h-7.60313c-0.28118,0 -0.50914,0.23611 -0.50914,0.52734zM2.2063,6.75c0,0.29123 0.22796,0.52734 0.50914,0.52734h5.97389c0.28118,0 0.50914,-0.23611 0.50914,-0.52734c0,-0.29123 -0.22796,-0.52734 -0.50914,-0.52734h-5.97389c-0.28118,0 -0.50914,0.23611 -0.50914,0.52734zM2.71544,10.08984h4.34465c0.28118,0 0.50914,-0.23611 0.50914,-0.52734c0,-0.29123 -0.22796,-0.52734 -0.50914,-0.52734h-4.34465c-0.28118,0 -0.50914,0.23611 -0.50914,0.52734c0,0.29123 0.22796,0.52734 0.50914,0.52734z" style="stroke-width: 0; stroke-linecap: butt; stroke-linejoin: miter; fill: rgb(0, 0, 0);" vector-effect="non-scaling-stroke"/></g><defs><path id="path-1638388469277127409" d="M17.69158,6.56817c0.41123,0.41126 0.41123,1.08035 0,1.49157l-0.85056,0.83992l-2.36664,-2.36661c0.91173,-0.91171 0.86536,-0.86871 0.92523,-0.91751c0.41408,-0.33739 1.02641,-0.31317 1.4116,0.07228zM13.72859,7.27879l2.36196,2.36194c-4.41672,4.36145 -4.05942,4.02704 -4.17744,4.08213l-2.98323,1.39215c-0.20089,0.09376 -0.43911,0.05186 -0.59591,-0.10498c-0.1568,-0.1568 -0.19874,-0.39491 -0.10498,-0.5959l1.39215,-2.98315c0.05618,-0.12034 -0.27166,0.22683 4.10745,-4.1522zM13,13.71547v2.7025c0,0.87233 -0.6852,1.58203 -1.52742,1.58203h-9.94517c-0.84222,0 -1.52742,-0.7097 -1.52742,-1.58203v-14.83594c0,-0.87233 0.6852,-1.58203 1.52742,-1.58203h9.94517c0.84222,0 1.52742,0.7097 1.52742,1.58203v4.46857l-4.32995,4.48478c-0.12623,0.13078 -0.22854,0.28202 -0.30402,0.44954l-1.34409,2.98322c-0.27059,0.60068 -0.14836,1.3191 0.30413,1.78773c0.46763,0.48445 1.15955,0.58869 1.72591,0.31493l2.88016,-1.39215c0.15875,-0.07675 0.30246,-0.18028 0.42717,-0.30779zM2.2063,3.9375c0,0.29123 0.22796,0.52734 0.50914,0.52734h7.60313c0.28118,0 0.50914,-0.23611 0.50914,-0.52734c0,-0.29123 -0.22796,-0.52734 -0.50914,-0.52734h-7.60313c-0.28118,0 -0.50914,0.23611 -0.50914,0.52734zM2.2063,6.75c0,0.29123 0.22796,0.52734 0.50914,0.52734h5.97389c0.28118,0 0.50914,-0.23611 0.50914,-0.52734c0,-0.29123 -0.22796,-0.52734 -0.50914,-0.52734h-5.97389c-0.28118,0 -0.50914,0.23611 -0.50914,0.52734zM2.71544,10.08984h4.34465c0.28118,0 0.50914,-0.23611 0.50914,-0.52734c0,-0.29123 -0.22796,-0.52734 -0.50914,-0.52734h-4.34465c-0.28118,0 -0.50914,0.23611 -0.50914,0.52734c0,0.29123 0.22796,0.52734 0.50914,0.52734z" vector-effect="non-scaling-stroke"/></defs></g></svg>