<svg version="1.2" xmlns="http://www.w3.org/2000/svg" xmlns:xlink="http://www.w3.org/1999/xlink" overflow="visible" preserveAspectRatio="none" viewBox="0 0 18 18" width="18" height="18"><g transform="translate(0, 0)"><g transform="translate(0, 0) rotate(0)"><path d="M18,16c0,0.92059 -0.83926,1.6666 -1.87492,1.6666c-0.76904,0 -1.42764,-0.41262 -1.71698,-1h-3.29579c-0.30986,0.7748 -1.13378,1.3334 -2.11231,1.3334c-0.97853,0 -1.8025,-0.55859 -2.11231,-1.3334h-3.29579c-0.28938,0.58738 -0.94794,1 -1.71698,1c-1.03565,0 -1.87492,-0.74602 -1.87492,-1.6666c0,-0.92059 0.83926,-1.6666 1.87492,-1.6666c0.76838,0 1.42694,0.41141 1.71698,1h3.29571c0.31052,-0.77621 1.13378,-1.3334 2.11231,-1.3334c0.97853,0 1.8025,0.55719 2.11231,1.3334h3.29579c0.29004,-0.58859 0.9486,-1 1.71698,-1c1.03565,0 1.87492,0.74602 1.87501,1.6666zM9.74988,16c0,-0.36859 -0.33526,-0.6666 -0.74992,-0.6666c-0.41467,0 -0.74992,0.29801 -0.74992,0.6666c0,0.36859 0.33526,0.6666 0.74992,0.6666c0.41467,0 0.74992,-0.29801 0.74992,-0.6666zM14,5.08952c0.00084,1.40621 -0.55866,2.67886 -1.46403,3.59936l-3.53597,3.31112l-3.53514,-3.30959c-0.90558,-0.92203 -1.46486,-2.19469 -1.46486,-3.59957c0,-2.81259 2.23974,-5.09084 5,-5.09084c2.76177,0 5,2.27979 5,5.08952zM11.14289,5.09084c0,-1.2046 -0.95915,-2.18182 -2.14289,-2.18182c-1.18311,0 -2.14289,0.97722 -2.14289,2.18182c0,1.2046 0.95978,2.18182 2.14289,2.18182c1.18374,0 2.14289,-0.97722 2.14289,-2.18182z" style="stroke-width: 0; stroke-linecap: butt; stroke-linejoin: miter; fill: rgb(0, 0, 0);" vector-effect="non-scaling-stroke"/></g><defs><path id="path-163838836345595680" d="M18,16c0,0.92059 -0.83926,1.6666 -1.87492,1.6666c-0.76904,0 -1.42764,-0.41262 -1.71698,-1h-3.29579c-0.30986,0.7748 -1.13378,1.3334 -2.11231,1.3334c-0.97853,0 -1.8025,-0.55859 -2.11231,-1.3334h-3.29579c-0.28938,0.58738 -0.94794,1 -1.71698,1c-1.03565,0 -1.87492,-0.74602 -1.87492,-1.6666c0,-0.92059 0.83926,-1.6666 1.87492,-1.6666c0.76838,0 1.42694,0.41141 1.71698,1h3.29571c0.31052,-0.77621 1.13378,-1.3334 2.11231,-1.3334c0.97853,0 1.8025,0.55719 2.11231,1.3334h3.29579c0.29004,-0.58859 0.9486,-1 1.71698,-1c1.03565,0 1.87492,0.74602 1.87501,1.6666zM9.74988,16c0,-0.36859 -0.33526,-0.6666 -0.74992,-0.6666c-0.41467,0 -0.74992,0.29801 -0.74992,0.6666c0,0.36859 0.33526,0.6666 0.74992,0.6666c0.41467,0 0.74992,-0.29801 0.74992,-0.6666zM14,5.08952c0.00084,1.40621 -0.55866,2.67886 -1.46403,3.59936l-3.53597,3.31112l-3.53514,-3.30959c-0.90558,-0.92203 -1.46486,-2.19469 -1.46486,-3.59957c0,-2.81259 2.23974,-5.09084 5,-5.09084c2.76177,0 5,2.27979 5,5.08952zM11.14289,5.09084c0,-1.2046 -0.95915,-2.18182 -2.14289,-2.18182c-1.18311,0 -2.14289,0.97722 -2.14289,2.18182c0,1.2046 0.95978,2.18182 2.14289,2.18182c1.18374,0 2.14289,-0.97722 2.14289,-2.18182z" vector-effect="non-scaling-stroke"/></defs></g></svg>