<svg version="1.2" xmlns="http://www.w3.org/2000/svg" xmlns:xlink="http://www.w3.org/1999/xlink" overflow="visible" preserveAspectRatio="none" viewBox="0 0 17.999999999999996 18" width="17.999999999999996" height="18"><g transform="translate(0, 0)"><g transform="translate(0, 0) rotate(0)"><path d="M3.15761,3.91304c0,-2.16111 1.76714,-3.91304 3.94701,-3.91304c2.17988,0 3.94701,1.75193 3.94701,3.91304c0,2.16111 -1.76714,3.91304 -3.94701,3.91304c-2.17988,0 -3.94701,-1.75193 -3.94701,-3.91304zM9.19575,16.43478h-8.6037c-0.32681,0 -0.59205,-0.26296 -0.59205,-0.58696v-2.73913c0,-2.04965 1.68222,-3.71739 3.74966,-3.71739h6.70992c0.4839,0 0.94413,0.09861 1.3704,0.2653c-0.03237,0.06104 -0.06552,0.1213 -0.09157,0.18548c-0.09394,-0.0133 -0.18867,-0.02035 -0.28497,-0.02035c-0.70336,0 -1.35856,0.37487 -1.70985,0.97826l-0.63863,1.09565c-0.41128,0.7067 -0.32918,1.57539 0.16025,2.1913c-0.48943,0.61591 -0.57153,1.48539 -0.16025,2.1913zM17.83418,14.92c0.16745,0.1224 0.2141,0.3448 0.10913,0.5192l-0.67395,1.1208c-0.10497,0.1752 -0.32906,0.2472 -0.52233,0.1688l-0.86389,-0.3496c-0.20993,0.1536 -0.43486,0.2904 -0.68228,0.3896l-0.11496,0.8808c-0.02583,0.2 -0.20327,0.3504 -0.4132,0.3504h-1.34707c-0.20993,0 -0.38654,-0.1504 -0.41237,-0.3504l-0.11496,-0.8808c-0.24742,-0.0992 -0.47151,-0.2352 -0.68228,-0.3896l-0.86389,0.3504c-0.19327,0.0784 -0.41737,0.0056 -0.52233,-0.1688l-0.67395,-1.1208c-0.10497,-0.1752 -0.05831,-0.3976 0.10913,-0.5192l0.75059,-0.5456c-0.01583,-0.124 -0.03915,-0.2464 -0.03915,-0.3752c0,-0.128 0.02249,-0.2512 0.03915,-0.3752l-0.75059,-0.5456c-0.16745,-0.1224 -0.2141,-0.3448 -0.10913,-0.5192l0.67395,-1.12c0.10497,-0.1752 0.32906,-0.2472 0.52233,-0.1688l0.86389,0.3496c0.20993,-0.1536 0.43486,-0.2904 0.68228,-0.3896l0.11496,-0.8808c0.02583,-0.2 0.20327,-0.3504 0.4132,-0.3504h1.34707c0.20993,0 0.38654,0.1504 0.4132,0.3504l0.11496,0.8808c0.24742,0.0992 0.47151,0.2352 0.68228,0.3896l0.86389,-0.3496c0.19327,-0.0784 0.41737,-0.0056 0.52233,0.1688l0.67395,1.12c0.10497,0.1752 0.05831,0.3976 -0.10913,0.5192l-0.75059,0.5456c0.01583,0.124 0.03915,0.2464 0.03915,0.3752c0,0.128 -0.02249,0.2512 -0.03915,0.3752zM15.66571,14c0,-0.884 -0.74559,-1.6 -1.66613,-1.6c-0.92054,0 -1.66613,0.716 -1.66613,1.6c0,0.884 0.74559,1.6 1.66613,1.6c0.92054,0 1.66613,-0.716 1.66613,-1.6z" style="stroke-width: 0; stroke-linecap: butt; stroke-linejoin: miter; fill: rgb(0, 0, 0);" vector-effect="non-scaling-stroke"/></g><defs><path id="path-1638388813448159984" d="M3.15761,3.91304c0,-2.16111 1.76714,-3.91304 3.94701,-3.91304c2.17988,0 3.94701,1.75193 3.94701,3.91304c0,2.16111 -1.76714,3.91304 -3.94701,3.91304c-2.17988,0 -3.94701,-1.75193 -3.94701,-3.91304zM9.19575,16.43478h-8.6037c-0.32681,0 -0.59205,-0.26296 -0.59205,-0.58696v-2.73913c0,-2.04965 1.68222,-3.71739 3.74966,-3.71739h6.70992c0.4839,0 0.94413,0.09861 1.3704,0.2653c-0.03237,0.06104 -0.06552,0.1213 -0.09157,0.18548c-0.09394,-0.0133 -0.18867,-0.02035 -0.28497,-0.02035c-0.70336,0 -1.35856,0.37487 -1.70985,0.97826l-0.63863,1.09565c-0.41128,0.7067 -0.32918,1.57539 0.16025,2.1913c-0.48943,0.61591 -0.57153,1.48539 -0.16025,2.1913zM17.83418,14.92c0.16745,0.1224 0.2141,0.3448 0.10913,0.5192l-0.67395,1.1208c-0.10497,0.1752 -0.32906,0.2472 -0.52233,0.1688l-0.86389,-0.3496c-0.20993,0.1536 -0.43486,0.2904 -0.68228,0.3896l-0.11496,0.8808c-0.02583,0.2 -0.20327,0.3504 -0.4132,0.3504h-1.34707c-0.20993,0 -0.38654,-0.1504 -0.41237,-0.3504l-0.11496,-0.8808c-0.24742,-0.0992 -0.47151,-0.2352 -0.68228,-0.3896l-0.86389,0.3504c-0.19327,0.0784 -0.41737,0.0056 -0.52233,-0.1688l-0.67395,-1.1208c-0.10497,-0.1752 -0.05831,-0.3976 0.10913,-0.5192l0.75059,-0.5456c-0.01583,-0.124 -0.03915,-0.2464 -0.03915,-0.3752c0,-0.128 0.02249,-0.2512 0.03915,-0.3752l-0.75059,-0.5456c-0.16745,-0.1224 -0.2141,-0.3448 -0.10913,-0.5192l0.67395,-1.12c0.10497,-0.1752 0.32906,-0.2472 0.52233,-0.1688l0.86389,0.3496c0.20993,-0.1536 0.43486,-0.2904 0.68228,-0.3896l0.11496,-0.8808c0.02583,-0.2 0.20327,-0.3504 0.4132,-0.3504h1.34707c0.20993,0 0.38654,0.1504 0.4132,0.3504l0.11496,0.8808c0.24742,0.0992 0.47151,0.2352 0.68228,0.3896l0.86389,-0.3496c0.19327,-0.0784 0.41737,-0.0056 0.52233,0.1688l0.67395,1.12c0.10497,0.1752 0.05831,0.3976 -0.10913,0.5192l-0.75059,0.5456c0.01583,0.124 0.03915,0.2464 0.03915,0.3752c0,0.128 -0.02249,0.2512 -0.03915,0.3752zM15.66571,14c0,-0.884 -0.74559,-1.6 -1.66613,-1.6c-0.92054,0 -1.66613,0.716 -1.66613,1.6c0,0.884 0.74559,1.6 1.66613,1.6c0.92054,0 1.66613,-0.716 1.66613,-1.6z" vector-effect="non-scaling-stroke"/></defs></g></svg>