<svg version="1.2" xmlns="http://www.w3.org/2000/svg" xmlns:xlink="http://www.w3.org/1999/xlink" overflow="visible" preserveAspectRatio="none" viewBox="0 0 11.999994999999998 11.999994999999998" width="11.999994999999998" height="11.999994999999998"><g transform="translate(0, 0)"><g transform="translate(0, -8.881784197001252e-16) rotate(0)"><path d="M11.70712,10.29311l-2.53853,-2.53853c0.52451,-0.79051 0.83151,-1.73702 0.83151,-2.75453c0,-2.75703 -2.24302,-5.00005 -5.00005,-5.00005c-2.75703,0 -5.00005,2.24302 -5.00005,5.00005c0,2.75703 2.24302,5.00005 5.00005,5.00005c1.01751,0 1.96402,-0.307 2.75453,-0.83151l2.53853,2.53853c0.39,0.3905 1.02401,0.3905 1.41401,0c0.3905,-0.3905 0.3905,-1.02351 0,-1.41401zM1.50002,5.00005c0,-1.93002 1.57002,-3.50004 3.50004,-3.50004c1.93002,0 3.50004,1.57002 3.50004,3.50004c0,1.93002 -1.57002,3.50004 -3.50004,3.50004c-1.93002,0 -3.50004,-1.57002 -3.50004,-3.50004z" style="stroke-width: 0; stroke-linecap: butt; stroke-linejoin: miter; fill: rgb(161, 161, 194);" vector-effect="non-scaling-stroke"/></g><defs><path id="path-1638644186302579" d="M11.70712,10.29311l-2.53853,-2.53853c0.52451,-0.79051 0.83151,-1.73702 0.83151,-2.75453c0,-2.75703 -2.24302,-5.00005 -5.00005,-5.00005c-2.75703,0 -5.00005,2.24302 -5.00005,5.00005c0,2.75703 2.24302,5.00005 5.00005,5.00005c1.01751,0 1.96402,-0.307 2.75453,-0.83151l2.53853,2.53853c0.39,0.3905 1.02401,0.3905 1.41401,0c0.3905,-0.3905 0.3905,-1.02351 0,-1.41401zM1.50002,5.00005c0,-1.93002 1.57002,-3.50004 3.50004,-3.50004c1.93002,0 3.50004,1.57002 3.50004,3.50004c0,1.93002 -1.57002,3.50004 -3.50004,3.50004c-1.93002,0 -3.50004,-1.57002 -3.50004,-3.50004z" vector-effect="non-scaling-stroke"/></defs></g></svg>