<svg version="1.2" xmlns="http://www.w3.org/2000/svg" xmlns:xlink="http://www.w3.org/1999/xlink" overflow="visible" preserveAspectRatio="none" viewBox="0 0 20 15.75" width="20" height="15.75"><g transform="translate(0, 0)"><g transform="translate(6.38378239159465e-16, -4.440892098500626e-16) rotate(0)"><path d="M18.3,5.45c-4.6,-4.6 -12,-4.6 -16.6,0c-0.4,0.4 -1,0.4 -1.4,0c-0.4,-0.4 -0.4,-1 0,-1.4c5.4,-5.4 14.1,-5.4 19.4,0c0.4,0.4 0.4,1 0,1.4c-0.4,0.4 -1,0.4 -1.4,0zM15.4,8.25c-3,-2.9 -7.8,-2.9 -10.7,0c-0.4,0.4 -1,0.4 -1.4,0c-0.4,-0.4 -0.4,-1 0,-1.4c3.7,-3.8 9.8,-3.8 13.5,0c0.4,0.4 0.4,1 0,1.4c-0.4,0.4 -1,0.4 -1.4,0zM12.6,11.25c-1.4,-1.4 -3.6,-1.4 -4.9,0c-0.4,0.4 -1,0.4 -1.4,0c-0.4,-0.4 -0.4,-1.1 0,-1.5c2.1,-2.3 5.6,-2.3 7.7,0c0.4,0.4 0.4,1.1 0,1.5c-0.4,0.4 -1,0.4 -1.4,0zM8.2,13.85c0,-1.04934 0.85066,-1.9 1.9,-1.9c1.04934,0 1.9,0.85066 1.9,1.9c0,1.04934 -0.85066,1.9 -1.9,1.9c-1.04934,0 -1.9,-0.85066 -1.9,-1.9z" style="stroke-width: 0; stroke-linecap: butt; stroke-linejoin: miter; fill: rgb(0, 188, 225);" vector-effect="non-scaling-stroke"/></g><defs><path id="path-1638399549253299715" d="M18.3,5.45c-4.6,-4.6 -12,-4.6 -16.6,0c-0.4,0.4 -1,0.4 -1.4,0c-0.4,-0.4 -0.4,-1 0,-1.4c5.4,-5.4 14.1,-5.4 19.4,0c0.4,0.4 0.4,1 0,1.4c-0.4,0.4 -1,0.4 -1.4,0zM15.4,8.25c-3,-2.9 -7.8,-2.9 -10.7,0c-0.4,0.4 -1,0.4 -1.4,0c-0.4,-0.4 -0.4,-1 0,-1.4c3.7,-3.8 9.8,-3.8 13.5,0c0.4,0.4 0.4,1 0,1.4c-0.4,0.4 -1,0.4 -1.4,0zM12.6,11.25c-1.4,-1.4 -3.6,-1.4 -4.9,0c-0.4,0.4 -1,0.4 -1.4,0c-0.4,-0.4 -0.4,-1.1 0,-1.5c2.1,-2.3 5.6,-2.3 7.7,0c0.4,0.4 0.4,1.1 0,1.5c-0.4,0.4 -1,0.4 -1.4,0zM8.2,13.85c0,-1.04934 0.85066,-1.9 1.9,-1.9c1.04934,0 1.9,0.85066 1.9,1.9c0,1.04934 -0.85066,1.9 -1.9,1.9c-1.04934,0 -1.9,-0.85066 -1.9,-1.9z" vector-effect="non-scaling-stroke"/></defs></g></svg>