<svg version="1.2" xmlns="http://www.w3.org/2000/svg" xmlns:xlink="http://www.w3.org/1999/xlink" overflow="visible" preserveAspectRatio="none" viewBox="0 0 15 14.999997500000003" width="15" height="14.999997500000003"><g transform="translate(0, 0)"><g transform="translate(0, 8.881784197001252e-16) rotate(0)"><path d="M14.49312,11.82045l-2.4781,-2.46883c0.45056,-0.89776 0.75094,-1.94514 0.75094,-2.99252c0,-3.51621 -2.85357,-6.3591 -6.38298,-6.3591c-3.52941,0 -6.38298,2.84289 -6.38298,6.3591c0,3.51621 2.85357,6.3591 6.38298,6.3591c1.05131,0 2.10263,-0.29925 3.00375,-0.74813l2.4781,2.46883c0.75094,0.74813 1.87735,0.74813 2.62829,0c0.67584,-0.74813 0.67584,-1.87032 0,-2.61845zM6.38298,11.22195c-2.70338,0 -4.8811,-2.16958 -4.8811,-4.86284c0,-2.69327 2.17772,-4.86284 4.8811,-4.86284c2.70338,0 4.8811,2.16958 4.8811,4.86284c0,2.69327 -2.17772,4.86284 -4.8811,4.86284z" style="stroke-width: 0; stroke-linecap: butt; stroke-linejoin: miter; fill: rgb(255, 255, 255);" vector-effect="non-scaling-stroke"/></g><defs><path id="path-1638644186295574" d="M14.49312,11.82045l-2.4781,-2.46883c0.45056,-0.89776 0.75094,-1.94514 0.75094,-2.99252c0,-3.51621 -2.85357,-6.3591 -6.38298,-6.3591c-3.52941,0 -6.38298,2.84289 -6.38298,6.3591c0,3.51621 2.85357,6.3591 6.38298,6.3591c1.05131,0 2.10263,-0.29925 3.00375,-0.74813l2.4781,2.46883c0.75094,0.74813 1.87735,0.74813 2.62829,0c0.67584,-0.74813 0.67584,-1.87032 0,-2.61845zM6.38298,11.22195c-2.70338,0 -4.8811,-2.16958 -4.8811,-4.86284c0,-2.69327 2.17772,-4.86284 4.8811,-4.86284c2.70338,0 4.8811,2.16958 4.8811,4.86284c0,2.69327 -2.17772,4.86284 -4.8811,4.86284z" vector-effect="non-scaling-stroke"/></defs></g></svg>