<svg version="1.2" xmlns="http://www.w3.org/2000/svg" xmlns:xlink="http://www.w3.org/1999/xlink" overflow="visible" preserveAspectRatio="none" viewBox="0 0 5 20" width="5" height="20"><g transform="translate(0, 0)"><g transform="translate(0, 0) rotate(0)"><path d="M0,10c0,-1.2745 1.11929,-2.30769 2.5,-2.30769c1.38071,0 2.5,1.03319 2.5,2.30769c0,1.2745 -1.11929,2.30769 -2.5,2.30769c-1.38071,0 -2.5,-1.03319 -2.5,-2.30769zM0,2.30769c0,-1.2745 1.11929,-2.30769 2.5,-2.30769c1.38071,0 2.5,1.03319 2.5,2.30769c0,1.2745 -1.11929,2.30769 -2.5,2.30769c-1.38071,0 -2.5,-1.03319 -2.5,-2.30769zM0,17.69231c0,-1.2745 1.11929,-2.30769 2.5,-2.30769c1.38071,0 2.5,1.03319 2.5,2.30769c0,1.2745 -1.11929,2.30769 -2.5,2.30769c-1.38071,0 -2.5,-1.03319 -2.5,-2.30769z" style="stroke-width: 0; stroke-linecap: butt; stroke-linejoin: miter; fill: rgb(255, 255, 255);" vector-effect="non-scaling-stroke"/></g><defs><path id="path-1647275005811633" d="M0,10c0,-1.2745 1.11929,-2.30769 2.5,-2.30769c1.38071,0 2.5,1.03319 2.5,2.30769c0,1.2745 -1.11929,2.30769 -2.5,2.30769c-1.38071,0 -2.5,-1.03319 -2.5,-2.30769zM0,2.30769c0,-1.2745 1.11929,-2.30769 2.5,-2.30769c1.38071,0 2.5,1.03319 2.5,2.30769c0,1.2745 -1.11929,2.30769 -2.5,2.30769c-1.38071,0 -2.5,-1.03319 -2.5,-2.30769zM0,17.69231c0,-1.2745 1.11929,-2.30769 2.5,-2.30769c1.38071,0 2.5,1.03319 2.5,2.30769c0,1.2745 -1.11929,2.30769 -2.5,2.30769c-1.38071,0 -2.5,-1.03319 -2.5,-2.30769z" vector-effect="non-scaling-stroke"/></defs></g></svg>