<svg version="1.2" xmlns="http://www.w3.org/2000/svg" xmlns:xlink="http://www.w3.org/1999/xlink" overflow="visible" preserveAspectRatio="none" viewBox="0 0 14.000004923410364 14.999999454786305" width="14.000004923410364" height="14.999999454786305"><g transform="translate(0, 0)"><g transform="translate(-3.654375365161333e-7, 2.220446049250313e-16) rotate(0)"><path d="M13.7462,0h-13.4924c-0.2022,0 -0.33088,0.22468 -0.2022,0.41191l4.94476,7.05872c0.22058,0.29957 0.34926,0.69277 0.34926,1.08596v6.15999c0.01838,0.20596 0.18382,0.33702 0.34926,0.26213l2.81245,-1.08596c0.09191,-0.01872 0.14706,-0.13106 0.14706,-0.22468v-5.11148c0,-0.39319 0.12867,-0.76766 0.34926,-1.08596l4.94476,-7.05872c0.12867,-0.18723 0,-0.41191 -0.2022,-0.41191z" style="stroke-width: 0; stroke-linecap: butt; stroke-linejoin: miter; fill: rgb(255, 255, 255);" vector-effect="non-scaling-stroke"/></g><defs><path id="path-1638644186301577" d="M13.7462,0h-13.4924c-0.2022,0 -0.33088,0.22468 -0.2022,0.41191l4.94476,7.05872c0.22058,0.29957 0.34926,0.69277 0.34926,1.08596v6.15999c0.01838,0.20596 0.18382,0.33702 0.34926,0.26213l2.81245,-1.08596c0.09191,-0.01872 0.14706,-0.13106 0.14706,-0.22468v-5.11148c0,-0.39319 0.12867,-0.76766 0.34926,-1.08596l4.94476,-7.05872c0.12867,-0.18723 0,-0.41191 -0.2022,-0.41191z" vector-effect="non-scaling-stroke"/></defs></g></svg>