<svg version="1.2" xmlns="http://www.w3.org/2000/svg" xmlns:xlink="http://www.w3.org/1999/xlink" overflow="visible" preserveAspectRatio="none" viewBox="0 0 17.99999999999997 18" width="17.99999999999997" height="18"><g transform="translate(0, 0)"><g transform="translate(0, 0) rotate(0)"><path d="M15.86068,17.5725c-0.063,0.252 -0.29323,0.4275 -0.55553,0.4275h-12.71993c-0.2497,0 -0.47191,-0.16087 -0.54522,-0.39375c-0.0756,-0.23513 0.01375,-0.4905 0.21992,-0.63112l5.51178,-3.7485c0.17754,-0.11812 0.40663,-0.13163 0.59447,-0.03375l7.20815,3.7485c0.23138,0.12038 0.3505,0.38025 0.28636,0.63113zM17.77353,16.44187c-0.10194,0.07763 -0.2245,0.11588 -0.34706,0.11588c-0.09163,0 -0.18327,-0.0225 -0.26803,-0.06637l-7.207,-3.7485c-0.1764,-0.09113 -0.29208,-0.26663 -0.30354,-0.4635c-0.0126,-0.19463 0.08018,-0.3825 0.24512,-0.495l5.51292,-3.7485c0.15578,-0.10575 0.35623,-0.12938 0.53491,-0.06075c0.17754,0.06862 0.30926,0.21825 0.3505,0.40162l1.69523,7.49587c0.04811,0.21488 -0.03551,0.4365 -0.21305,0.56925zM13.77601,7.77375l-12.51146,8.50838c-0.09851,0.0675 -0.2119,0.10012 -0.32645,0.10012c-0.11111,0 -0.22336,-0.0315 -0.31957,-0.09562c-0.19472,-0.12938 -0.28979,-0.36225 -0.23939,-0.58838l1.38596,-6.12675c0.39632,0.48375 0.74223,0.87413 0.96559,1.11825c0.3253,0.3555 0.79149,0.56025 1.27829,0.56025c0.4868,0 0.95299,-0.20475 1.27829,-0.56025c0.57844,-0.63225 1.98502,-2.24887 2.93572,-3.93975h5.22771c0.25085,0 0.47191,0.15975 0.54751,0.39487c0.07331,0.23513 -0.01489,0.4905 -0.22221,0.62888zM8,3.88889c0,1.99556 -3.20914,5.53 -3.57486,5.92667c-0.10857,0.11667 -0.26286,0.18444 -0.42514,0.18444c-0.16229,0 -0.31657,-0.06778 -0.42514,-0.18444c-0.36571,-0.39667 -3.57486,-3.93111 -3.57486,-5.92667c0,-2.14444 1.79429,-3.88889 4,-3.88889c2.20571,0 4,1.74444 4,3.88889zM5.71429,3.88889c0,-0.92 -0.768,-1.66667 -1.71429,-1.66667c-0.94629,0 -1.71429,0.74667 -1.71429,1.66667c0,0.92 0.768,1.66667 1.71429,1.66667c0.94629,0 1.71429,-0.74667 1.71429,-1.66667z" style="stroke-width: 0; stroke-linecap: butt; stroke-linejoin: miter; fill: rgb(0, 0, 0);" vector-effect="non-scaling-stroke"/></g><defs><path id="path-163832296052660198" d="M15.86068,17.5725c-0.063,0.252 -0.29323,0.4275 -0.55553,0.4275h-12.71993c-0.2497,0 -0.47191,-0.16087 -0.54522,-0.39375c-0.0756,-0.23513 0.01375,-0.4905 0.21992,-0.63112l5.51178,-3.7485c0.17754,-0.11812 0.40663,-0.13163 0.59447,-0.03375l7.20815,3.7485c0.23138,0.12038 0.3505,0.38025 0.28636,0.63113zM17.77353,16.44187c-0.10194,0.07763 -0.2245,0.11588 -0.34706,0.11588c-0.09163,0 -0.18327,-0.0225 -0.26803,-0.06637l-7.207,-3.7485c-0.1764,-0.09113 -0.29208,-0.26663 -0.30354,-0.4635c-0.0126,-0.19463 0.08018,-0.3825 0.24512,-0.495l5.51292,-3.7485c0.15578,-0.10575 0.35623,-0.12938 0.53491,-0.06075c0.17754,0.06862 0.30926,0.21825 0.3505,0.40162l1.69523,7.49587c0.04811,0.21488 -0.03551,0.4365 -0.21305,0.56925zM13.77601,7.77375l-12.51146,8.50838c-0.09851,0.0675 -0.2119,0.10012 -0.32645,0.10012c-0.11111,0 -0.22336,-0.0315 -0.31957,-0.09562c-0.19472,-0.12938 -0.28979,-0.36225 -0.23939,-0.58838l1.38596,-6.12675c0.39632,0.48375 0.74223,0.87413 0.96559,1.11825c0.3253,0.3555 0.79149,0.56025 1.27829,0.56025c0.4868,0 0.95299,-0.20475 1.27829,-0.56025c0.57844,-0.63225 1.98502,-2.24887 2.93572,-3.93975h5.22771c0.25085,0 0.47191,0.15975 0.54751,0.39487c0.07331,0.23513 -0.01489,0.4905 -0.22221,0.62888zM8,3.88889c0,1.99556 -3.20914,5.53 -3.57486,5.92667c-0.10857,0.11667 -0.26286,0.18444 -0.42514,0.18444c-0.16229,0 -0.31657,-0.06778 -0.42514,-0.18444c-0.36571,-0.39667 -3.57486,-3.93111 -3.57486,-5.92667c0,-2.14444 1.79429,-3.88889 4,-3.88889c2.20571,0 4,1.74444 4,3.88889zM5.71429,3.88889c0,-0.92 -0.768,-1.66667 -1.71429,-1.66667c-0.94629,0 -1.71429,0.74667 -1.71429,1.66667c0,0.92 0.768,1.66667 1.71429,1.66667c0.94629,0 1.71429,-0.74667 1.71429,-1.66667z" vector-effect="non-scaling-stroke"/></defs></g></svg>