<svg version="1.2" xmlns="http://www.w3.org/2000/svg" xmlns:xlink="http://www.w3.org/1999/xlink" overflow="visible" preserveAspectRatio="none" viewBox="0 0 19 18.000000000000114" width="19" height="18.000000000000114">
	<g transform="translate(0, 0)">
		<g transform="translate(0, 0) rotate(0)">
			<path d="M19,16.32134v1.3605c0,0.17561 -0.14187,0.31816 -0.31665,0.31816h-18.36669c-0.17512,0 -0.31665,-0.14254 -0.31665,-0.31816v-1.3605c0,-0.65924 0.36037,-1.25965 0.9408,-1.56669c1.90034,-1.0048 3.35321,-1.56222 4.64362,-1.78239l-0.14061,-0.19407c-0.05511,-0.07602 -0.07377,-0.17308 -0.05099,-0.26439l0.29387,-1.18105c-0.78754,-1.11614 -1.25337,-2.51035 -1.25337,-3.83233v-1.96188c-0.00126,-0.00127 -0.00286,-0.0019 -0.00412,-0.00317c-0.26188,-0.2208 -0.44873,-0.50935 -0.54785,-0.82945l0.13326,-0.03343c0.18545,-2.61433 1.96388,-4.67249 4.12828,-4.67249h2.714c2.16581,0 3.94564,2.06115 4.12878,4.67773l0.13076,0.03583c-0.03074,0.09767 -0.06969,0.1924 -0.11648,0.28314c0.00002,0.0011 0.00004,0.0022 0.00006,0.0033l-0.00151,-0.00051c-0.10491,0.20258 -0.24895,0.38516 -0.428,0.53591c-0.00126,0.00097 -0.00252,0.0019 -0.00379,0.00287v1.96214c0,1.32199 -0.46583,2.7162 -1.25371,3.83233l0.29387,1.18105c0.02312,0.09131 0.00412,0.18837 -0.05099,0.26439l-0.14027,0.19407c1.29041,0.22017 2.74328,0.77762 4.64328,1.78239c0.58047,0.30704 0.94113,0.90745 0.9411,1.56669zM9.02596,13.51543c-0.00096,0 -0.0016,-0.00034 -0.00223,-0.00034c-1.09692,-0.13397 -2.06971,-0.72255 -2.83479,-1.55808c-0.00126,-0.00127 -0.00252,-0.0022 -0.00379,-0.0038l-0.14217,0.5708l2.12389,2.93413zM9.49995,12.90929c0.87779,0 1.7974,-0.41107 2.57165,-1.11263c0.07919,-0.07446 0.15927,-0.14698 0.23561,-0.22845c0.00096,-0.00097 0.00189,-0.0019 0.00286,-0.00287c0.11589,-0.12379 0.22863,-0.25581 0.33725,-0.39549c0.0095,-0.01242 0.02405,-0.01939 0.03514,-0.0299c0.74609,-0.94593 1.25085,-2.20681 1.25085,-3.63953v-1.62165c-0.1507,0.04456 -0.30715,0.06588 -0.46517,0.06842c-0.0095,0 -0.01867,0.00254 -0.0285,0.00254c-0.01013,0 -0.02026,-0.00254 -0.03039,-0.00254c-0.09214,-0.0019 -0.18462,-0.00794 -0.27739,-0.0245c-2.44466,-0.44224 -4.88713,-0.44224 -7.2615,-0.00063c-0.0665,0.01208 -0.133,0.01972 -0.1995,0.02386c-0.02408,0.0016 -0.04813,0.0003 -0.07221,0.00063c-0.04115,0.00097 -0.08264,0.00254 -0.1238,0.00063c-0.03325,-0.0016 -0.06587,-0.00638 -0.09879,-0.00988c-0.03165,-0.0035 -0.06331,-0.00574 -0.09467,-0.01081c-0.03481,-0.00541 -0.06902,-0.01398 -0.10354,-0.02163c-0.02913,-0.00671 -0.05889,-0.01242 -0.08773,-0.02069c-0.0079,-0.0019 -0.01581,-0.00317 -0.02342,-0.00541v1.62169c0,1.43273 0.50443,2.6936 1.25051,3.63953c0.01139,0.01048 0.02564,0.01749 0.03514,0.0299c0.10895,0.13967 0.22169,0.2717 0.33758,0.39578c0.00093,0.00063 0.00156,0.0016 0.00252,0.00224c0.0763,0.08177 0.15642,0.15432 0.2359,0.22908c0.77392,0.70123 1.69353,1.1123 2.57157,1.1123zM12.95703,12.52398l-0.1425,-0.5708c-0.00093,0.00157 -0.00252,0.00254 -0.00379,0.0038c-0.76475,0.83553 -1.73787,1.42411 -2.83479,1.55808c-0.00063,0 -0.00126,0.00034 -0.00189,0.00034l0.85912,1.94275zM8.58236,3.39907c0,0.20846 0.13669,0.37766 0.30582,0.37766h1.22333c0.16913,0 0.30582,-0.1692 0.30582,-0.37766v-1.88839c0,-0.20846 -0.13669,-0.37766 -0.30582,-0.37766h-1.22333c-0.16913,0 -0.30582,0.1692 -0.30582,0.37766zM9.18324,2.52836v-0.94815h0.63335v0.94815z" style="stroke-width: 0; stroke-linecap: butt; stroke-linejoin: miter; fill: rgb(0, 0, 0);" vector-effect="non-scaling-stroke"/>
		</g>
		<defs>
			<path id="path-163832296052860237" d="M19,16.32134v1.3605c0,0.17561 -0.14187,0.31816 -0.31665,0.31816h-18.36669c-0.17512,0 -0.31665,-0.14254 -0.31665,-0.31816v-1.3605c0,-0.65924 0.36037,-1.25965 0.9408,-1.56669c1.90034,-1.0048 3.35321,-1.56222 4.64362,-1.78239l-0.14061,-0.19407c-0.05511,-0.07602 -0.07377,-0.17308 -0.05099,-0.26439l0.29387,-1.18105c-0.78754,-1.11614 -1.25337,-2.51035 -1.25337,-3.83233v-1.96188c-0.00126,-0.00127 -0.00286,-0.0019 -0.00412,-0.00317c-0.26188,-0.2208 -0.44873,-0.50935 -0.54785,-0.82945l0.13326,-0.03343c0.18545,-2.61433 1.96388,-4.67249 4.12828,-4.67249h2.714c2.16581,0 3.94564,2.06115 4.12878,4.67773l0.13076,0.03583c-0.03074,0.09767 -0.06969,0.1924 -0.11648,0.28314c0.00002,0.0011 0.00004,0.0022 0.00006,0.0033l-0.00151,-0.00051c-0.10491,0.20258 -0.24895,0.38516 -0.428,0.53591c-0.00126,0.00097 -0.00252,0.0019 -0.00379,0.00287v1.96214c0,1.32199 -0.46583,2.7162 -1.25371,3.83233l0.29387,1.18105c0.02312,0.09131 0.00412,0.18837 -0.05099,0.26439l-0.14027,0.19407c1.29041,0.22017 2.74328,0.77762 4.64328,1.78239c0.58047,0.30704 0.94113,0.90745 0.9411,1.56669zM9.02596,13.51543c-0.00096,0 -0.0016,-0.00034 -0.00223,-0.00034c-1.09692,-0.13397 -2.06971,-0.72255 -2.83479,-1.55808c-0.00126,-0.00127 -0.00252,-0.0022 -0.00379,-0.0038l-0.14217,0.5708l2.12389,2.93413zM9.49995,12.90929c0.87779,0 1.7974,-0.41107 2.57165,-1.11263c0.07919,-0.07446 0.15927,-0.14698 0.23561,-0.22845c0.00096,-0.00097 0.00189,-0.0019 0.00286,-0.00287c0.11589,-0.12379 0.22863,-0.25581 0.33725,-0.39549c0.0095,-0.01242 0.02405,-0.01939 0.03514,-0.0299c0.74609,-0.94593 1.25085,-2.20681 1.25085,-3.63953v-1.62165c-0.1507,0.04456 -0.30715,0.06588 -0.46517,0.06842c-0.0095,0 -0.01867,0.00254 -0.0285,0.00254c-0.01013,0 -0.02026,-0.00254 -0.03039,-0.00254c-0.09214,-0.0019 -0.18462,-0.00794 -0.27739,-0.0245c-2.44466,-0.44224 -4.88713,-0.44224 -7.2615,-0.00063c-0.0665,0.01208 -0.133,0.01972 -0.1995,0.02386c-0.02408,0.0016 -0.04813,0.0003 -0.07221,0.00063c-0.04115,0.00097 -0.08264,0.00254 -0.1238,0.00063c-0.03325,-0.0016 -0.06587,-0.00638 -0.09879,-0.00988c-0.03165,-0.0035 -0.06331,-0.00574 -0.09467,-0.01081c-0.03481,-0.00541 -0.06902,-0.01398 -0.10354,-0.02163c-0.02913,-0.00671 -0.05889,-0.01242 -0.08773,-0.02069c-0.0079,-0.0019 -0.01581,-0.00317 -0.02342,-0.00541v1.62169c0,1.43273 0.50443,2.6936 1.25051,3.63953c0.01139,0.01048 0.02564,0.01749 0.03514,0.0299c0.10895,0.13967 0.22169,0.2717 0.33758,0.39578c0.00093,0.00063 0.00156,0.0016 0.00252,0.00224c0.0763,0.08177 0.15642,0.15432 0.2359,0.22908c0.77392,0.70123 1.69353,1.1123 2.57157,1.1123zM12.95703,12.52398l-0.1425,-0.5708c-0.00093,0.00157 -0.00252,0.00254 -0.00379,0.0038c-0.76475,0.83553 -1.73787,1.42411 -2.83479,1.55808c-0.00063,0 -0.00126,0.00034 -0.00189,0.00034l0.85912,1.94275zM8.58236,3.39907c0,0.20846 0.13669,0.37766 0.30582,0.37766h1.22333c0.16913,0 0.30582,-0.1692 0.30582,-0.37766v-1.88839c0,-0.20846 -0.13669,-0.37766 -0.30582,-0.37766h-1.22333c-0.16913,0 -0.30582,0.1692 -0.30582,0.37766zM9.18324,2.52836v-0.94815h0.63335v0.94815z" vector-effect="non-scaling-stroke"/>
		</defs>
	</g>
</svg>