<svg version="1.2" xmlns="http://www.w3.org/2000/svg" xmlns:xlink="http://www.w3.org/1999/xlink" overflow="visible" preserveAspectRatio="none" viewBox="0 0 20 20.000000000000004" width="20" height="20.000000000000004"><g transform="translate(0, 0)"><g transform="translate(0, 0.000010000000002285958) rotate(0)"><path d="M14,0h-8c-3.30833,0 -6,2.69095 -6,5.9984v4.66542c0,3.19581 2.51267,5.81578 5.66667,5.9894v2.78059c0,0.31225 0.25467,0.56618 0.56767,0.56618c0.14967,0 0.29133,-0.05932 0.39833,-0.16629l0.62533,-0.62517c1.642,-1.6419 3.82567,-2.54632 6.14833,-2.54632h0.59367c3.30833,0 6,-2.69095 6,-5.9984v-4.66542c0,-3.30745 -2.69167,-5.9984 -6,-5.9984zM5.66667,9.66409c-0.73533,0 -1.33333,-0.59784 -1.33333,-1.33298c0,-0.73514 0.598,-1.33298 1.33333,-1.33298c0.73533,0 1.33333,0.59784 1.33333,1.33298c0,0.73514 -0.59833,1.33298 -1.33333,1.33298zM10,9.66409c-0.73533,0 -1.33333,-0.59784 -1.33333,-1.33298c0,-0.73514 0.598,-1.33298 1.33333,-1.33298c0.73533,0 1.33333,0.59784 1.33333,1.33298c0,0.73514 -0.59833,1.33298 -1.33333,1.33298zM14.33333,9.66409c-0.73533,0 -1.33333,-0.59784 -1.33333,-1.33298c0,-0.73514 0.598,-1.33298 1.33333,-1.33298c0.73533,0 1.33333,0.59784 1.33333,1.33298c0,0.73514 -0.59833,1.33298 -1.33333,1.33298z" style="stroke-width: 0; stroke-linecap: butt; stroke-linejoin: miter; fill: rgb(0, 0, 0);" vector-effect="non-scaling-stroke"/></g><defs><path id="path-16386442048958543" d="M14,0h-8c-3.30833,0 -6,2.69095 -6,5.9984v4.66542c0,3.19581 2.51267,5.81578 5.66667,5.9894v2.78059c0,0.31225 0.25467,0.56618 0.56767,0.56618c0.14967,0 0.29133,-0.05932 0.39833,-0.16629l0.62533,-0.62517c1.642,-1.6419 3.82567,-2.54632 6.14833,-2.54632h0.59367c3.30833,0 6,-2.69095 6,-5.9984v-4.66542c0,-3.30745 -2.69167,-5.9984 -6,-5.9984zM5.66667,9.66409c-0.73533,0 -1.33333,-0.59784 -1.33333,-1.33298c0,-0.73514 0.598,-1.33298 1.33333,-1.33298c0.73533,0 1.33333,0.59784 1.33333,1.33298c0,0.73514 -0.59833,1.33298 -1.33333,1.33298zM10,9.66409c-0.73533,0 -1.33333,-0.59784 -1.33333,-1.33298c0,-0.73514 0.598,-1.33298 1.33333,-1.33298c0.73533,0 1.33333,0.59784 1.33333,1.33298c0,0.73514 -0.59833,1.33298 -1.33333,1.33298zM14.33333,9.66409c-0.73533,0 -1.33333,-0.59784 -1.33333,-1.33298c0,-0.73514 0.598,-1.33298 1.33333,-1.33298c0.73533,0 1.33333,0.59784 1.33333,1.33298c0,0.73514 -0.59833,1.33298 -1.33333,1.33298z" vector-effect="non-scaling-stroke"/></defs></g></svg>