<svg version="1.2" xmlns="http://www.w3.org/2000/svg" xmlns:xlink="http://www.w3.org/1999/xlink" overflow="visible" preserveAspectRatio="none" viewBox="0 0 18 18" width="18" height="18"><g transform="translate(0, 0)"><g transform="translate(0, 0) rotate(0)"><path d="M17.45521,7.21308l-1.26392,-0.21792c-0.15254,-0.58838 -0.39225,-1.15496 -0.69734,-1.67797l0.74092,-1.046c0.19613,-0.2615 0.17433,-0.63196 -0.06538,-0.84988l-1.61259,-1.61259c-0.21792,-0.23971 -0.58838,-0.2615 -0.84988,-0.06538l-1.046,0.74092c-0.523,-0.28329 -1.08959,-0.523 -1.65617,-0.67554l-0.21792,-1.26392c-0.04358,-0.32688 -0.32688,-0.54479 -0.65375,-0.54479h-2.26634c-0.32688,0 -0.61017,0.21792 -0.65375,0.54479l-0.21792,1.26392c-0.58838,0.15254 -1.15496,0.39225 -1.67797,0.69734l-1.046,-0.74092c-0.2615,-0.19613 -0.63196,-0.17433 -0.84988,0.06538l-1.61259,1.61259c-0.23971,0.21792 -0.2615,0.58838 -0.06538,0.84988l0.74092,1.046c-0.28329,0.523 -0.523,1.08959 -0.67554,1.65617l-1.26392,0.21792c-0.32688,0.04358 -0.54479,0.32688 -0.54479,0.65375v2.26634c0,0.32688 0.21792,0.61017 0.54479,0.65375l1.26392,0.21792c0.15254,0.58838 0.39225,1.15496 0.69734,1.67797l-0.74092,1.046c-0.19613,0.2615 -0.17433,0.63196 0.06538,0.84988l1.61259,1.61259c0.21792,0.23971 0.58838,0.2615 0.84988,0.06538l1.046,-0.74092c0.523,0.28329 1.08959,0.523 1.65617,0.67554l0.21792,1.26392c0.04358,0.32688 0.32688,0.54479 0.65375,0.54479h2.26634c0.32688,0 0.61017,-0.21792 0.65375,-0.54479l0.21792,-1.26392c0.58838,-0.15254 1.15496,-0.39225 1.67797,-0.69734l1.046,0.74092c0.2615,0.19613 0.63196,0.17433 0.84988,-0.06538l1.61259,-1.61259c0.23971,-0.21792 0.2615,-0.58838 0.06538,-0.84988l-0.74092,-1.046c0.28329,-0.523 0.523,-1.08959 0.67554,-1.65617l1.26392,-0.21792c0.32688,-0.04358 0.54479,-0.32688 0.54479,-0.65375v-2.26634c0,-0.32688 -0.21792,-0.61017 -0.54479,-0.65375zM9,12.59564c-1.98305,0 -3.59564,-1.61259 -3.59564,-3.59564c0,-1.98305 1.61259,-3.59564 3.59564,-3.59564c1.98305,0 3.59564,1.61259 3.59564,3.59564c0,1.98305 -1.61259,3.59564 -3.59564,3.59564z" style="stroke-width: 0; stroke-linecap: butt; stroke-linejoin: miter; fill: rgb(0, 0, 0);" vector-effect="non-scaling-stroke"/></g><defs><path id="path-1638388469274127328" d="M17.45521,7.21308l-1.26392,-0.21792c-0.15254,-0.58838 -0.39225,-1.15496 -0.69734,-1.67797l0.74092,-1.046c0.19613,-0.2615 0.17433,-0.63196 -0.06538,-0.84988l-1.61259,-1.61259c-0.21792,-0.23971 -0.58838,-0.2615 -0.84988,-0.06538l-1.046,0.74092c-0.523,-0.28329 -1.08959,-0.523 -1.65617,-0.67554l-0.21792,-1.26392c-0.04358,-0.32688 -0.32688,-0.54479 -0.65375,-0.54479h-2.26634c-0.32688,0 -0.61017,0.21792 -0.65375,0.54479l-0.21792,1.26392c-0.58838,0.15254 -1.15496,0.39225 -1.67797,0.69734l-1.046,-0.74092c-0.2615,-0.19613 -0.63196,-0.17433 -0.84988,0.06538l-1.61259,1.61259c-0.23971,0.21792 -0.2615,0.58838 -0.06538,0.84988l0.74092,1.046c-0.28329,0.523 -0.523,1.08959 -0.67554,1.65617l-1.26392,0.21792c-0.32688,0.04358 -0.54479,0.32688 -0.54479,0.65375v2.26634c0,0.32688 0.21792,0.61017 0.54479,0.65375l1.26392,0.21792c0.15254,0.58838 0.39225,1.15496 0.69734,1.67797l-0.74092,1.046c-0.19613,0.2615 -0.17433,0.63196 0.06538,0.84988l1.61259,1.61259c0.21792,0.23971 0.58838,0.2615 0.84988,0.06538l1.046,-0.74092c0.523,0.28329 1.08959,0.523 1.65617,0.67554l0.21792,1.26392c0.04358,0.32688 0.32688,0.54479 0.65375,0.54479h2.26634c0.32688,0 0.61017,-0.21792 0.65375,-0.54479l0.21792,-1.26392c0.58838,-0.15254 1.15496,-0.39225 1.67797,-0.69734l1.046,0.74092c0.2615,0.19613 0.63196,0.17433 0.84988,-0.06538l1.61259,-1.61259c0.23971,-0.21792 0.2615,-0.58838 0.06538,-0.84988l-0.74092,-1.046c0.28329,-0.523 0.523,-1.08959 0.67554,-1.65617l1.26392,-0.21792c0.32688,-0.04358 0.54479,-0.32688 0.54479,-0.65375v-2.26634c0,-0.32688 -0.21792,-0.61017 -0.54479,-0.65375zM9,12.59564c-1.98305,0 -3.59564,-1.61259 -3.59564,-3.59564c0,-1.98305 1.61259,-3.59564 3.59564,-3.59564c1.98305,0 3.59564,1.61259 3.59564,3.59564c0,1.98305 -1.61259,3.59564 -3.59564,3.59564z" vector-effect="non-scaling-stroke"/></defs></g></svg>