<svg version="1.2" xmlns="http://www.w3.org/2000/svg" xmlns:xlink="http://www.w3.org/1999/xlink" overflow="visible" preserveAspectRatio="none" viewBox="0 0 9 8.999999999999998" width="9" height="8.999999999999998"><g transform="translate(0, 0)"><g transform="translate(-4.863334197580116e-7, 0.0012367814664298038) rotate(0)"><path d="M5.32454,4.49883l3.50442,-3.5046c0.22806,-0.22796 0.22806,-0.59654 0,-0.8245c-0.22795,-0.22796 -0.59653,-0.22796 -0.82448,0l-3.50453,3.5046l-3.50442,-3.5046c-0.22806,-0.22796 -0.59653,-0.22796 -0.82448,0c-0.22806,0.22796 -0.22806,0.59654 0,0.8245l3.50442,3.5046l-3.50442,3.5046c-0.22806,0.22796 -0.22806,0.59654 0,0.8245c0.1136,0.11371 0.26298,0.17084 0.41224,0.17084c0.14927,0 0.29853,-0.05712 0.41224,-0.17084l3.50442,-3.5046l3.50453,3.5046c0.11371,0.11371 0.26298,0.17084 0.41224,0.17084c0.14927,0 0.29853,-0.05712 0.41224,-0.17084c0.22806,-0.22796 0.22806,-0.59654 0,-0.8245zM5.82453,5.00007v0c-1,-1 -1,-1 -1,-1v0z" style="stroke-width: 0; stroke-linecap: butt; stroke-linejoin: miter; fill: rgb(136, 136, 148);" vector-effect="non-scaling-stroke"/></g><defs><path id="path-163864421099215334" d="M5.32454,4.49883l3.50442,-3.5046c0.22806,-0.22796 0.22806,-0.59654 0,-0.8245c-0.22795,-0.22796 -0.59653,-0.22796 -0.82448,0l-3.50453,3.5046l-3.50442,-3.5046c-0.22806,-0.22796 -0.59653,-0.22796 -0.82448,0c-0.22806,0.22796 -0.22806,0.59654 0,0.8245l3.50442,3.5046l-3.50442,3.5046c-0.22806,0.22796 -0.22806,0.59654 0,0.8245c0.1136,0.11371 0.26298,0.17084 0.41224,0.17084c0.14927,0 0.29853,-0.05712 0.41224,-0.17084l3.50442,-3.5046l3.50453,3.5046c0.11371,0.11371 0.26298,0.17084 0.41224,0.17084c0.14927,0 0.29853,-0.05712 0.41224,-0.17084c0.22806,-0.22796 0.22806,-0.59654 0,-0.8245zM5.82453,5.00007v0c-1,-1 -1,-1 -1,-1v0z" vector-effect="non-scaling-stroke"/></defs></g></svg>