<svg version="1.2" xmlns="http://www.w3.org/2000/svg" xmlns:xlink="http://www.w3.org/1999/xlink" overflow="visible" preserveAspectRatio="none" viewBox="0 0 21.99340364857278 18" width="21.99340364857278" height="18"><g transform="translate(0, 0)"><g transform="translate(0, 0) rotate(0)"><path d="M20.6217,18h-19.25c-0.77659,-0.06953 -1.3717,-0.7203 -1.3717,-1.5c0,-0.7797 0.59511,-1.43047 1.3717,-1.5h19.25c0.77659,0.06953 1.3717,0.7203 1.3717,1.5c0,0.7797 -0.59511,1.43047 -1.3717,1.5zM20.6217,10.5h-19.25c-0.77659,-0.06953 -1.3717,-0.7203 -1.3717,-1.5c0,-0.7797 0.59511,-1.43047 1.3717,-1.5h19.25c0.77659,0.06953 1.3717,0.7203 1.3717,1.5c0,0.7797 -0.59511,1.43047 -1.3717,1.5zM20.6217,3h-19.25c-0.77659,-0.06953 -1.3717,-0.7203 -1.3717,-1.5c0,-0.7797 0.59511,-1.43047 1.3717,-1.5h19.25c0.77659,0.06953 1.3717,0.7203 1.3717,1.5c0,0.7797 -0.59511,1.43047 -1.3717,1.5z" style="stroke-width: 0; stroke-linecap: butt; stroke-linejoin: miter; fill: rgb(0, 0, 0);" vector-effect="non-scaling-stroke"/></g><defs><path id="path-1638399549836302695" d="M20.6217,18h-19.25c-0.77659,-0.06953 -1.3717,-0.7203 -1.3717,-1.5c0,-0.7797 0.59511,-1.43047 1.3717,-1.5h19.25c0.77659,0.06953 1.3717,0.7203 1.3717,1.5c0,0.7797 -0.59511,1.43047 -1.3717,1.5zM20.6217,10.5h-19.25c-0.77659,-0.06953 -1.3717,-0.7203 -1.3717,-1.5c0,-0.7797 0.59511,-1.43047 1.3717,-1.5h19.25c0.77659,0.06953 1.3717,0.7203 1.3717,1.5c0,0.7797 -0.59511,1.43047 -1.3717,1.5zM20.6217,3h-19.25c-0.77659,-0.06953 -1.3717,-0.7203 -1.3717,-1.5c0,-0.7797 0.59511,-1.43047 1.3717,-1.5h19.25c0.77659,0.06953 1.3717,0.7203 1.3717,1.5c0,0.7797 -0.59511,1.43047 -1.3717,1.5z" vector-effect="non-scaling-stroke"/></defs></g></svg>