<svg version="1.2" xmlns="http://www.w3.org/2000/svg" xmlns:xlink="http://www.w3.org/1999/xlink" overflow="visible" preserveAspectRatio="none" viewBox="0 0 20 9.999992857173652" width="20" height="9.999992857173652"><g transform="translate(0, 0)"><g transform="translate(0, 0) rotate(0)"><path d="M7.54272,5.59072h-2.89945c-0.00997,0.77998 -0.71267,1.40928 -1.57915,1.40928c-0.86615,0 -1.56921,-0.62931 -1.57911,-1.40928h-0.00377c0,0.00037 0.00004,0.00077 0.00004,0.00113l-1.27008,-0.00113v-0.30156h-0.21121v-0.95892l0.5253,-0.49491l0.25337,-0.80605l2.14758,-0.65564l3.07928,-2.37365c0,0 9.31552,0 9.99447,0v3.44714c-0.19511,-0.00278 -0.39136,-0.00424 -0.58814,-0.00424c-0.69666,0 -3.01641,0.02092 -3.61395,0.29044c-0.43535,0.19642 -1.37467,0.94579 -1.79343,1.2882zM3.65972,5.5907h-0.00227c0,-0.00022 0.00004,-0.00051 0.00004,-0.0008c0,-0.29608 -0.26764,-0.5374 -0.59673,-0.5374c-0.32723,0 -0.59328,0.23884 -0.59608,0.53283h0.00365c0.00657,0.29202 0.27084,0.52757 0.59576,0.52757c0.32289,0 0.58591,-0.23266 0.59564,-0.52219zM8.56783,2.40218v-1.87121h-2.16015l-2.24682,1.87121zM19.99822,8.75806c0.00041,0.00961 0.00074,0.01909 0.00074,0.0287h-0.20168v0.35055h-0.69016c-0.18343,0.50397 -0.65449,0.86268 -1.20692,0.86268c-0.67369,0 -1.22625,-0.5334 -1.28373,-1.21323l-6.56463,-0.00009c-0.05744,0.67982 -0.61016,1.21331 -1.28382,1.21331c-0.55239,0 -1.02349,-0.35871 -1.20692,-0.86268h-1.14343v-0.35072h-0.22651l-0.19117,-1.04481l0.27924,-0.25252l0.29848,-0.86101l3.19696,-0.84568c0,0 1.35306,-1.28003 1.80396,-1.51278c0.45103,-0.2327 3.4574,-0.3743 5.96606,-0.17457c0.37612,0.03353 0.54481,0.21344 0.54481,0.21344l1.57336,1.83313l0.33627,1.08859l0.00087,1.52243zM9.24381,8.66913c0,-0.2702 -0.21339,-0.49031 -0.47586,-0.49031c-0.26243,0 -0.47562,0.2201 -0.47562,0.49031c0,0.27114 0.21318,0.49137 0.47562,0.49137c0.26247,0 0.47586,-0.22032 0.47586,-0.49137zM14.31243,5.85997v-1.29814c-0.80911,0.01269 -2.26857,0.13912 -2.26857,0.13912l-0.89838,1.15902zM15.12672,5.85997l3.16691,-0.00004l-0.949,-1.20105c0,0 -0.94333,-0.126 -2.21791,-0.09704zM18.37594,8.66913c0,-0.2702 -0.21347,-0.49031 -0.47586,-0.49031c-0.26247,0 -0.4757,0.2201 -0.4757,0.49031c0,0.27114 0.21331,0.49137 0.4757,0.49137c0.26239,0 0.47578,-0.22032 0.47586,-0.49137z" style="stroke-width: 0; stroke-linecap: butt; stroke-linejoin: miter; fill: rgb(0, 0, 0);" vector-effect="non-scaling-stroke"/></g><defs><path id="path-1638388469277127413" d="M7.54272,5.59072h-2.89945c-0.00997,0.77998 -0.71267,1.40928 -1.57915,1.40928c-0.86615,0 -1.56921,-0.62931 -1.57911,-1.40928h-0.00377c0,0.00037 0.00004,0.00077 0.00004,0.00113l-1.27008,-0.00113v-0.30156h-0.21121v-0.95892l0.5253,-0.49491l0.25337,-0.80605l2.14758,-0.65564l3.07928,-2.37365c0,0 9.31552,0 9.99447,0v3.44714c-0.19511,-0.00278 -0.39136,-0.00424 -0.58814,-0.00424c-0.69666,0 -3.01641,0.02092 -3.61395,0.29044c-0.43535,0.19642 -1.37467,0.94579 -1.79343,1.2882zM3.65972,5.5907h-0.00227c0,-0.00022 0.00004,-0.00051 0.00004,-0.0008c0,-0.29608 -0.26764,-0.5374 -0.59673,-0.5374c-0.32723,0 -0.59328,0.23884 -0.59608,0.53283h0.00365c0.00657,0.29202 0.27084,0.52757 0.59576,0.52757c0.32289,0 0.58591,-0.23266 0.59564,-0.52219zM8.56783,2.40218v-1.87121h-2.16015l-2.24682,1.87121zM19.99822,8.75806c0.00041,0.00961 0.00074,0.01909 0.00074,0.0287h-0.20168v0.35055h-0.69016c-0.18343,0.50397 -0.65449,0.86268 -1.20692,0.86268c-0.67369,0 -1.22625,-0.5334 -1.28373,-1.21323l-6.56463,-0.00009c-0.05744,0.67982 -0.61016,1.21331 -1.28382,1.21331c-0.55239,0 -1.02349,-0.35871 -1.20692,-0.86268h-1.14343v-0.35072h-0.22651l-0.19117,-1.04481l0.27924,-0.25252l0.29848,-0.86101l3.19696,-0.84568c0,0 1.35306,-1.28003 1.80396,-1.51278c0.45103,-0.2327 3.4574,-0.3743 5.96606,-0.17457c0.37612,0.03353 0.54481,0.21344 0.54481,0.21344l1.57336,1.83313l0.33627,1.08859l0.00087,1.52243zM9.24381,8.66913c0,-0.2702 -0.21339,-0.49031 -0.47586,-0.49031c-0.26243,0 -0.47562,0.2201 -0.47562,0.49031c0,0.27114 0.21318,0.49137 0.47562,0.49137c0.26247,0 0.47586,-0.22032 0.47586,-0.49137zM14.31243,5.85997v-1.29814c-0.80911,0.01269 -2.26857,0.13912 -2.26857,0.13912l-0.89838,1.15902zM15.12672,5.85997l3.16691,-0.00004l-0.949,-1.20105c0,0 -0.94333,-0.126 -2.21791,-0.09704zM18.37594,8.66913c0,-0.2702 -0.21347,-0.49031 -0.47586,-0.49031c-0.26247,0 -0.4757,0.2201 -0.4757,0.49031c0,0.27114 0.21331,0.49137 0.4757,0.49137c0.26239,0 0.47578,-0.22032 0.47586,-0.49137z" vector-effect="non-scaling-stroke"/></defs></g></svg>