<svg version="1.2" xmlns="http://www.w3.org/2000/svg" xmlns:xlink="http://www.w3.org/1999/xlink" overflow="visible" preserveAspectRatio="none" viewBox="0 0 18 18" width="18" height="18"><g transform="translate(0, 0)"><g transform="translate(0, 0) rotate(0)"><path d="M9.52734,9c0,0.29078 -0.23657,0.52734 -0.52734,0.52734c-0.29078,0 -0.52734,-0.23657 -0.52734,-0.52734c0,-0.29078 0.23657,-0.52734 0.52734,-0.52734c0.29078,0 0.52734,0.23657 0.52734,0.52734zM18,9c0,4.96262 -4.03738,9 -9,9c-4.96262,0 -9,-4.03738 -9,-9c0,-4.96262 4.03738,-9 9,-9c4.96262,0 9,4.03738 9,9zM13.87241,4.12763c-0.02422,-0.02422 -0.11897,-0.11626 -0.14393,-0.13982c-1.28398,-1.21131 -2.96329,-1.87843 -4.72848,-1.87843c-3.79951,0 -6.89062,3.09111 -6.89062,6.89063c0,3.79951 3.09111,6.89063 6.89063,6.89063c1.1314,0 2.25657,-0.28241 3.25389,-0.81668c0.25675,-0.13753 0.35336,-0.45714 0.21582,-0.71388c-0.1375,-0.25675 -0.45717,-0.35332 -0.71385,-0.21582c-0.8447,0.45253 -1.79764,0.6917 -2.75586,0.6917c-3.21796,0 -5.83594,-2.61798 -5.83594,-5.83594c0,-3.21796 2.61798,-5.83594 5.83594,-5.83594c1.37517,0 2.68854,0.47837 3.73669,1.35348l-0.74918,0.74918c-0.84509,-0.67894 -1.88786,-1.04797 -2.98751,-1.04797c-2.6364,0 -4.78125,2.14485 -4.78125,4.78125c0,1.90494 1.12897,3.62626 2.87617,4.38529c0.06845,0.02974 0.13968,0.0438 0.20985,0.0438c0.20362,0 0.39762,-0.11869 0.48393,-0.31736c0.11605,-0.26712 -0.00643,-0.57772 -0.27355,-0.69377c-1.36178,-0.59157 -2.2417,-1.93321 -2.2417,-3.41796c0,-2.05485 1.67171,-3.72656 3.72656,-3.72656c0.81738,0 1.59444,0.26156 2.23601,0.74479l-1.55436,1.55436c-0.20654,-0.09904 -0.4377,-0.15462 -0.68164,-0.15462c-0.87233,0 -1.58203,0.7097 -1.58203,1.58203c0,0.87233 0.7097,1.58203 1.58203,1.58203c0.87233,0 1.58203,-0.7097 1.58203,-1.58203c0,-0.24395 -0.05558,-0.47514 -0.15462,-0.68168l1.95335,-1.95332c0.00004,-0.00004 0.00004,-0.00004 0.00007,-0.00007c0.00004,-0.00004 1.49154,-1.49154 1.49157,-1.49157c0.20595,-0.20595 0.20595,-0.53982 0,-0.74573z" style="stroke-width: 0; stroke-linecap: butt; stroke-linejoin: miter; fill: rgb(0, 0, 0);" vector-effect="non-scaling-stroke"/></g><defs><path id="path-1638388469273127310" d="M9.52734,9c0,0.29078 -0.23657,0.52734 -0.52734,0.52734c-0.29078,0 -0.52734,-0.23657 -0.52734,-0.52734c0,-0.29078 0.23657,-0.52734 0.52734,-0.52734c0.29078,0 0.52734,0.23657 0.52734,0.52734zM18,9c0,4.96262 -4.03738,9 -9,9c-4.96262,0 -9,-4.03738 -9,-9c0,-4.96262 4.03738,-9 9,-9c4.96262,0 9,4.03738 9,9zM13.87241,4.12763c-0.02422,-0.02422 -0.11897,-0.11626 -0.14393,-0.13982c-1.28398,-1.21131 -2.96329,-1.87843 -4.72848,-1.87843c-3.79951,0 -6.89062,3.09111 -6.89062,6.89063c0,3.79951 3.09111,6.89063 6.89063,6.89063c1.1314,0 2.25657,-0.28241 3.25389,-0.81668c0.25675,-0.13753 0.35336,-0.45714 0.21582,-0.71388c-0.1375,-0.25675 -0.45717,-0.35332 -0.71385,-0.21582c-0.8447,0.45253 -1.79764,0.6917 -2.75586,0.6917c-3.21796,0 -5.83594,-2.61798 -5.83594,-5.83594c0,-3.21796 2.61798,-5.83594 5.83594,-5.83594c1.37517,0 2.68854,0.47837 3.73669,1.35348l-0.74918,0.74918c-0.84509,-0.67894 -1.88786,-1.04797 -2.98751,-1.04797c-2.6364,0 -4.78125,2.14485 -4.78125,4.78125c0,1.90494 1.12897,3.62626 2.87617,4.38529c0.06845,0.02974 0.13968,0.0438 0.20985,0.0438c0.20362,0 0.39762,-0.11869 0.48393,-0.31736c0.11605,-0.26712 -0.00643,-0.57772 -0.27355,-0.69377c-1.36178,-0.59157 -2.2417,-1.93321 -2.2417,-3.41796c0,-2.05485 1.67171,-3.72656 3.72656,-3.72656c0.81738,0 1.59444,0.26156 2.23601,0.74479l-1.55436,1.55436c-0.20654,-0.09904 -0.4377,-0.15462 -0.68164,-0.15462c-0.87233,0 -1.58203,0.7097 -1.58203,1.58203c0,0.87233 0.7097,1.58203 1.58203,1.58203c0.87233,0 1.58203,-0.7097 1.58203,-1.58203c0,-0.24395 -0.05558,-0.47514 -0.15462,-0.68168l1.95335,-1.95332c0.00004,-0.00004 0.00004,-0.00004 0.00007,-0.00007c0.00004,-0.00004 1.49154,-1.49154 1.49157,-1.49157c0.20595,-0.20595 0.20595,-0.53982 0,-0.74573z" vector-effect="non-scaling-stroke"/></defs></g></svg>