<svg version="1.2" xmlns="http://www.w3.org/2000/svg" xmlns:xlink="http://www.w3.org/1999/xlink" overflow="visible" preserveAspectRatio="none" viewBox="0 0 20.000000000000004 19.999999999999996" width="20.000000000000004" height="19.999999999999996"><g transform="translate(0, 0)"><g transform="translate(4.440892098500626e-15, 0.00001000000000095369) rotate(0)"><path d="M17.91099,9.25549h2.08901c-0.15857,-2.19637 -1.02017,-4.19542 -2.37082,-5.77216l-1.49297,1.48998l-1.03067,-1.02953l1.49488,-1.49286c-1.57224,-1.37468 -3.57818,-2.26505 -5.78945,-2.44236v2.16208h-1.45764v-2.17065c-2.23421,0.14301 -4.26783,1.00761 -5.86779,2.37178l1.57512,1.57104l-1.0316,1.02953l-1.578,-1.57484c-1.39365,1.59008 -2.28868,3.6206 -2.45009,5.85891h2.25237v1.45472h-2.25334c0.37538,5.18973 4.70246,9.28886 9.99905,9.28886c5.29659,0 9.6246,-4.09913 10.00095,-9.28886h-2.08999l0.00097,-1.45565zM10.08217,16.00765c-1.06791,0 -1.93332,-0.86275 -1.93332,-1.93042c0,-0.78837 0.47568,-1.46616 1.15771,-1.76456l0.72596,-6.70447l0.17863,0.0019l0.661,6.70544c0.67437,0.3041 1.14527,0.97425 1.14527,1.76169c0.00093,1.06767 -0.86643,1.93042 -1.93526,1.93042z" style="stroke-width: 0; stroke-linecap: butt; stroke-linejoin: miter; fill: rgb(245, 26, 10);" vector-effect="non-scaling-stroke"/></g><defs><path id="path-1638399549218299683" d="M17.91099,9.25549h2.08901c-0.15857,-2.19637 -1.02017,-4.19542 -2.37082,-5.77216l-1.49297,1.48998l-1.03067,-1.02953l1.49488,-1.49286c-1.57224,-1.37468 -3.57818,-2.26505 -5.78945,-2.44236v2.16208h-1.45764v-2.17065c-2.23421,0.14301 -4.26783,1.00761 -5.86779,2.37178l1.57512,1.57104l-1.0316,1.02953l-1.578,-1.57484c-1.39365,1.59008 -2.28868,3.6206 -2.45009,5.85891h2.25237v1.45472h-2.25334c0.37538,5.18973 4.70246,9.28886 9.99905,9.28886c5.29659,0 9.6246,-4.09913 10.00095,-9.28886h-2.08999l0.00097,-1.45565zM10.08217,16.00765c-1.06791,0 -1.93332,-0.86275 -1.93332,-1.93042c0,-0.78837 0.47568,-1.46616 1.15771,-1.76456l0.72596,-6.70447l0.17863,0.0019l0.661,6.70544c0.67437,0.3041 1.14527,0.97425 1.14527,1.76169c0.00093,1.06767 -0.86643,1.93042 -1.93526,1.93042z" vector-effect="non-scaling-stroke"/></defs></g></svg>