<svg version="1.2" xmlns="http://www.w3.org/2000/svg" xmlns:xlink="http://www.w3.org/1999/xlink" overflow="visible" preserveAspectRatio="none" viewBox="0 0 18.00000000000001 18.000000000000007" width="18.00000000000001" height="18.000000000000007"><g transform="translate(0, 0)"><g transform="translate(-0.0004829465130445354, -0.0004829465130853361) rotate(0)"><path d="M15.3559,2.64506c-3.52548,-3.52551 -9.18416,-3.52671 -12.71084,0c-3.52551,3.52548 -3.52671,9.18416 0,12.71084c3.52548,3.52551 9.18416,3.52671 12.71084,0c3.52551,-3.52544 3.52671,-9.18416 0,-12.71084zM8.47276,4.78208c0,-0.29118 0.23606,-0.52724 0.52724,-0.52724c0.29118,0 0.52724,0.23606 0.52724,0.52724v2.81195c0,0.29118 -0.23606,0.52724 -0.52724,0.52724c-0.29118,0 -0.52724,-0.23606 -0.52724,-0.52724zM9,12.90157c-2.15135,0 -3.90157,-1.75023 -3.90157,-3.90157c0,-1.12569 0.48636,-2.19659 1.33444,-2.9381c0.21923,-0.19167 0.5523,-0.16935 0.74397,0.04984c0.19167,0.21919 0.16935,0.5523 -0.04984,0.74397c-0.61901,0.54126 -0.97406,1.32284 -0.97406,2.14428c0,1.56991 1.27719,2.84709 2.84709,2.84709c1.56991,0 2.84709,-1.27719 2.84709,-2.84709c0,-0.81343 -0.34924,-1.58987 -0.95817,-2.13029c-0.21779,-0.19329 -0.23764,-0.5265 -0.04439,-0.74432c0.19329,-0.21782 0.5265,-0.23764 0.74432,-0.04439c0.83427,0.74039 1.31272,1.80432 1.31272,2.91897c-0.00004,2.15138 -1.75026,3.90161 -3.90161,3.90161z" style="stroke-width: 0; stroke-linecap: butt; stroke-linejoin: miter; fill: rgb(0, 0, 0);" vector-effect="non-scaling-stroke"/></g><defs><path id="path-1638388813445159912" d="M15.3559,2.64506c-3.52548,-3.52551 -9.18416,-3.52671 -12.71084,0c-3.52551,3.52548 -3.52671,9.18416 0,12.71084c3.52548,3.52551 9.18416,3.52671 12.71084,0c3.52551,-3.52544 3.52671,-9.18416 0,-12.71084zM8.47276,4.78208c0,-0.29118 0.23606,-0.52724 0.52724,-0.52724c0.29118,0 0.52724,0.23606 0.52724,0.52724v2.81195c0,0.29118 -0.23606,0.52724 -0.52724,0.52724c-0.29118,0 -0.52724,-0.23606 -0.52724,-0.52724zM9,12.90157c-2.15135,0 -3.90157,-1.75023 -3.90157,-3.90157c0,-1.12569 0.48636,-2.19659 1.33444,-2.9381c0.21923,-0.19167 0.5523,-0.16935 0.74397,0.04984c0.19167,0.21919 0.16935,0.5523 -0.04984,0.74397c-0.61901,0.54126 -0.97406,1.32284 -0.97406,2.14428c0,1.56991 1.27719,2.84709 2.84709,2.84709c1.56991,0 2.84709,-1.27719 2.84709,-2.84709c0,-0.81343 -0.34924,-1.58987 -0.95817,-2.13029c-0.21779,-0.19329 -0.23764,-0.5265 -0.04439,-0.74432c0.19329,-0.21782 0.5265,-0.23764 0.74432,-0.04439c0.83427,0.74039 1.31272,1.80432 1.31272,2.91897c-0.00004,2.15138 -1.75026,3.90161 -3.90161,3.90161z" vector-effect="non-scaling-stroke"/></defs></g></svg>