<svg version="1.2" xmlns="http://www.w3.org/2000/svg" xmlns:xlink="http://www.w3.org/1999/xlink" overflow="visible" preserveAspectRatio="none" viewBox="0 0 25 28" width="25" height="28"><g transform="translate(0, 0)"><g transform="translate(0, -4.440892098500626e-16) rotate(0)"><path d="M4.97788,12.32875c0,-4.11566 3.36777,-7.45205 7.52212,-7.45205c4.15435,0 7.52212,3.3364 7.52212,7.45205c0,4.11566 -3.36777,7.45205 -7.52212,7.45205c-4.15435,0 -7.52212,-3.3364 -7.52212,-7.45205zM25,12.38356c0,5.83556 -4.11803,10.87353 -9.83883,12.10126l-2.66117,3.51518l-2.66112,-3.51512c-5.72085,-1.22773 -9.83888,-6.26575 -9.83888,-12.10132c0,-3.30778 1.30022,-6.41753 3.66117,-8.75655c2.3609,-2.3389 5.49994,-3.62701 8.83883,-3.62701c3.33888,0 6.47793,1.28811 8.83883,3.62701c2.36095,2.33901 3.66117,5.44877 3.66117,8.75655zM3.31858,12.32877c0,5.01545 4.11875,9.09589 9.18142,9.09589c5.06267,0 9.18142,-4.08044 9.18142,-9.09589c0,-5.01545 -4.11875,-9.09589 -9.18142,-9.09589c-5.06267,0 -9.18142,4.08044 -9.18142,9.09589z" style="stroke: rgb(140, 140, 140); stroke-width: 0; stroke-linecap: butt; stroke-linejoin: miter; fill: rgb(0, 0, 0);" vector-effect="non-scaling-stroke"/></g><defs><path id="path-1638640473847102607" d="M4.97788,12.32875c0,-4.11566 3.36777,-7.45205 7.52212,-7.45205c4.15435,0 7.52212,3.3364 7.52212,7.45205c0,4.11566 -3.36777,7.45205 -7.52212,7.45205c-4.15435,0 -7.52212,-3.3364 -7.52212,-7.45205zM25,12.38356c0,5.83556 -4.11803,10.87353 -9.83883,12.10126l-2.66117,3.51518l-2.66112,-3.51512c-5.72085,-1.22773 -9.83888,-6.26575 -9.83888,-12.10132c0,-3.30778 1.30022,-6.41753 3.66117,-8.75655c2.3609,-2.3389 5.49994,-3.62701 8.83883,-3.62701c3.33888,0 6.47793,1.28811 8.83883,3.62701c2.36095,2.33901 3.66117,5.44877 3.66117,8.75655zM3.31858,12.32877c0,5.01545 4.11875,9.09589 9.18142,9.09589c5.06267,0 9.18142,-4.08044 9.18142,-9.09589c0,-5.01545 -4.11875,-9.09589 -9.18142,-9.09589c-5.06267,0 -9.18142,4.08044 -9.18142,9.09589z" vector-effect="non-scaling-stroke"/></defs></g></svg>