<svg version="1.2" xmlns="http://www.w3.org/2000/svg" xmlns:xlink="http://www.w3.org/1999/xlink" overflow="visible" preserveAspectRatio="none" viewBox="0 0 20 20" width="20" height="20"><g transform="translate(0, 0)"><g transform="translate(0, 0) rotate(0)"><path d="M11.62787,13.37859l4.37213,4.3721c-1.69138,1.40457 -3.86426,2.24931 -6.2346,2.24931c-5.39327,0 -9.7654,-4.37214 -9.7654,-9.76543c0,-2.37034 0.84473,-4.54323 2.2493,-6.23457l2.18505,2.18506c-0.75557,0.44653 -1.46013,0.99103 -2.09704,1.62793l0.81175,0.81175c0.64651,-0.64647 1.36508,-1.17781 2.12979,-1.59518l1.68652,1.68652c-0.80719,0.3452 -1.56307,0.84638 -2.22083,1.50414l0.81175,0.81175c0.66836,-0.66832 1.45753,-1.14382 2.29775,-1.42723l1.86097,1.86098c-0.95065,0.01255 -1.89748,0.37987 -2.62129,1.10364l0.81175,0.81175c1.02562,-1.0255 2.69434,-1.02558 3.71988,0zM10.34101,15.66823c-0.01393,-0.31099 -0.25221,-0.574 -0.574,-0.574c-0.30024,0 -0.58789,0.264 -0.574,0.574c0.01393,0.31099 0.25221,0.574 0.574,0.574c0.30024,0 0.58789,-0.264 0.574,-0.574zM5.63765,5.29153l-2.5314,-2.53333c1.79392,-1.70906 4.2214,-2.7582 6.89375,-2.7582c5.52284,0 10,4.48059 10,10.00761c0,2.67443 -1.04834,5.10376 -2.75609,6.89906l-7.83154,-7.83753c1.75043,-0.1682 3.56018,0.41702 4.89782,1.75565l0.83125,-0.83188c-1.82911,-1.83051 -4.39824,-2.47957 -6.75256,-1.94804l-1.84694,-1.84835c3.4295,-1.32259 7.4715,-0.60255 10.23331,2.16137l0.83125,-0.83188c-2.03174,-2.03329 -4.73313,-3.15314 -7.6065,-3.15314c-1.52766,0 -3.00672,0.31659 -4.36235,0.91867z" style="stroke-width: 0; stroke-linecap: butt; stroke-linejoin: miter; fill: rgb(245, 26, 10);" vector-effect="non-scaling-stroke"/></g><defs><path id="path-1638399549248299707" d="M11.62787,13.37859l4.37213,4.3721c-1.69138,1.40457 -3.86426,2.24931 -6.2346,2.24931c-5.39327,0 -9.7654,-4.37214 -9.7654,-9.76543c0,-2.37034 0.84473,-4.54323 2.2493,-6.23457l2.18505,2.18506c-0.75557,0.44653 -1.46013,0.99103 -2.09704,1.62793l0.81175,0.81175c0.64651,-0.64647 1.36508,-1.17781 2.12979,-1.59518l1.68652,1.68652c-0.80719,0.3452 -1.56307,0.84638 -2.22083,1.50414l0.81175,0.81175c0.66836,-0.66832 1.45753,-1.14382 2.29775,-1.42723l1.86097,1.86098c-0.95065,0.01255 -1.89748,0.37987 -2.62129,1.10364l0.81175,0.81175c1.02562,-1.0255 2.69434,-1.02558 3.71988,0zM10.34101,15.66823c-0.01393,-0.31099 -0.25221,-0.574 -0.574,-0.574c-0.30024,0 -0.58789,0.264 -0.574,0.574c0.01393,0.31099 0.25221,0.574 0.574,0.574c0.30024,0 0.58789,-0.264 0.574,-0.574zM5.63765,5.29153l-2.5314,-2.53333c1.79392,-1.70906 4.2214,-2.7582 6.89375,-2.7582c5.52284,0 10,4.48059 10,10.00761c0,2.67443 -1.04834,5.10376 -2.75609,6.89906l-7.83154,-7.83753c1.75043,-0.1682 3.56018,0.41702 4.89782,1.75565l0.83125,-0.83188c-1.82911,-1.83051 -4.39824,-2.47957 -6.75256,-1.94804l-1.84694,-1.84835c3.4295,-1.32259 7.4715,-0.60255 10.23331,2.16137l0.83125,-0.83188c-2.03174,-2.03329 -4.73313,-3.15314 -7.6065,-3.15314c-1.52766,0 -3.00672,0.31659 -4.36235,0.91867z" vector-effect="non-scaling-stroke"/></defs></g></svg>