<svg version="1.2" xmlns="http://www.w3.org/2000/svg" xmlns:xlink="http://www.w3.org/1999/xlink" overflow="visible" preserveAspectRatio="none" viewBox="0 0 19 19" width="19" height="19"><g transform="translate(0, 0)"><g transform="translate(0, 0) rotate(0)"><path d="M10.04807,11.69268v0.51916c0,0.30266 -0.2454,0.54807 -0.54807,0.54807c-0.30266,0 -0.54807,-0.24537 -0.54807,-0.54807v-0.51953c0.00004,-0.04754 -0.00104,-0.09556 -0.00323,-0.14313c-0.01377,-0.30237 0.22024,-0.55868 0.52261,-0.57241c0.30148,-0.01399 0.55868,0.22021 0.57241,0.52261c0.00293,0.06431 0.00438,0.12936 0.00434,0.1933zM9.15518,10.04696c-0.09571,0.06706 -0.20544,0.09927 -0.31406,0.09927c-0.17271,0 -0.34271,-0.08142 -0.44932,-0.23364c-0.11163,-0.15935 -0.23898,-0.30901 -0.3784,-0.44487c-0.21679,-0.21123 -0.22128,-0.5582 -0.01006,-0.77503c0.21123,-0.21687 0.55824,-0.22128 0.77503,-0.01009c0.18833,0.18354 0.36029,0.38571 0.51114,0.60099c0.17367,0.24789 0.11359,0.58967 -0.13434,0.76338zM7.13725,8.22915c-0.05422,0.25824 -0.28207,0.43552 -0.53579,0.43552c-0.03737,0 -0.07522,-0.00382 -0.11326,-0.0118c-0.18944,-0.03982 -0.38456,-0.06194 -0.57995,-0.06572c-0.30266,-0.00594 -0.54321,-0.25602 -0.53731,-0.55868c0.00579,-0.29899 0.25004,-0.53742 0.54773,-0.53742c0.00364,0 0.00724,0.00004 0.01087,0.00011c0.26381,0.00516 0.52751,0.03511 0.78397,0.08895c0.29624,0.06223 0.48595,0.35284 0.42371,0.64904zM10.99365,17.79539c-0.10739,0.10999 -0.24982,0.16525 -0.39228,0.16525c-0.13808,0 -0.27621,-0.0518 -0.38278,-0.15582c-0.18826,-0.18369 -0.36004,-0.38612 -0.5107,-0.60162c-0.17341,-0.24811 -0.11292,-0.58982 0.13519,-0.76323c0.24808,-0.17337 0.58985,-0.11296 0.76323,0.13519c0.11148,0.15946 0.23865,0.30923 0.37788,0.4452c0.21664,0.21141 0.22087,0.55835 0.00946,0.77503zM13.62512,18.46243c-0.00612,0.29877 -0.25027,0.53679 -0.54773,0.53679c-0.00379,0 -0.00764,-0.00004 -0.01147,-0.00011c-0.2637,-0.00538 -0.52736,-0.03562 -0.78379,-0.08973c-0.29613,-0.06257 -0.48558,-0.35336 -0.42305,-0.64949c0.06253,-0.29613 0.35332,-0.48554 0.64949,-0.42308c0.18944,0.04 0.38456,0.06234 0.57991,0.06635c0.30263,0.0062 0.54287,0.25661 0.53664,0.55928zM10.05119,14.93804c0.01329,0.30237 -0.2211,0.55831 -0.5235,0.5716c-0.0082,0.00037 -0.01633,0.00056 -0.02449,0.00056c-0.29168,0 -0.53419,-0.22982 -0.54714,-0.52402c-0.00275,-0.06238 -0.00412,-0.12569 -0.00412,-0.18811v-0.52346c0,-0.30266 0.2454,-0.54807 0.54807,-0.54807c0.30266,0 0.54807,0.24537 0.54807,0.54807v0.52346c0,0.04646 0.00104,0.09355 0.00312,0.13998zM7,3.65883c0,1.37724 -0.74442,2.6383 -1.91026,3.26033l-1.12867,1.81899c-0.10132,0.16333 -0.27482,0.26185 -0.46101,0.26185c-0.18615,0 -0.35969,-0.09856 -0.46101,-0.26185l-1.12871,-1.81899c-1.16592,-0.62203 -1.91034,-1.88309 -1.91034,-3.26033c0,-2.01748 1.57011,-3.65883 3.50002,-3.65883c1.92995,0 3.49998,1.64135 3.49998,3.65883zM4.46702,3.65883c0,-0.55742 -0.43381,-1.01092 -0.967,-1.01092c-0.53323,0 -0.96704,0.45345 -0.96704,1.01088c0,0.55742 0.43381,1.01092 0.96704,1.01092c0.53319,0 0.967,-0.45345 0.967,-1.01088zM19,13.65887c0,1.3772 -0.74442,2.63826 -1.91026,3.26029l-1.12871,1.81899c-0.10132,0.16329 -0.27482,0.26185 -0.46101,0.26185c-0.18615,0 -0.35969,-0.09856 -0.46101,-0.26185l-1.12867,-1.81895c-1.16592,-0.62207 -1.91034,-1.88313 -1.91034,-3.26037c0,-2.01748 1.57003,-3.65883 3.49998,-3.65883c1.92991,0 3.50002,1.64135 3.50002,3.65887zM16.46702,13.65883c0,-0.55739 -0.43381,-1.01088 -0.96704,-1.01088c-0.53319,0 -0.967,0.45349 -0.967,1.01088c0,0.55742 0.43381,1.01092 0.967,1.01092c0.53323,0 0.967,-0.45349 0.96704,-1.01092z" style="stroke-width: 0; stroke-linecap: butt; stroke-linejoin: miter; fill: rgb(0, 0, 0);" vector-effect="non-scaling-stroke"/></g><defs><path id="path-1638388469276127403" d="M10.04807,11.69268v0.51916c0,0.30266 -0.2454,0.54807 -0.54807,0.54807c-0.30266,0 -0.54807,-0.24537 -0.54807,-0.54807v-0.51953c0.00004,-0.04754 -0.00104,-0.09556 -0.00323,-0.14313c-0.01377,-0.30237 0.22024,-0.55868 0.52261,-0.57241c0.30148,-0.01399 0.55868,0.22021 0.57241,0.52261c0.00293,0.06431 0.00438,0.12936 0.00434,0.1933zM9.15518,10.04696c-0.09571,0.06706 -0.20544,0.09927 -0.31406,0.09927c-0.17271,0 -0.34271,-0.08142 -0.44932,-0.23364c-0.11163,-0.15935 -0.23898,-0.30901 -0.3784,-0.44487c-0.21679,-0.21123 -0.22128,-0.5582 -0.01006,-0.77503c0.21123,-0.21687 0.55824,-0.22128 0.77503,-0.01009c0.18833,0.18354 0.36029,0.38571 0.51114,0.60099c0.17367,0.24789 0.11359,0.58967 -0.13434,0.76338zM7.13725,8.22915c-0.05422,0.25824 -0.28207,0.43552 -0.53579,0.43552c-0.03737,0 -0.07522,-0.00382 -0.11326,-0.0118c-0.18944,-0.03982 -0.38456,-0.06194 -0.57995,-0.06572c-0.30266,-0.00594 -0.54321,-0.25602 -0.53731,-0.55868c0.00579,-0.29899 0.25004,-0.53742 0.54773,-0.53742c0.00364,0 0.00724,0.00004 0.01087,0.00011c0.26381,0.00516 0.52751,0.03511 0.78397,0.08895c0.29624,0.06223 0.48595,0.35284 0.42371,0.64904zM10.99365,17.79539c-0.10739,0.10999 -0.24982,0.16525 -0.39228,0.16525c-0.13808,0 -0.27621,-0.0518 -0.38278,-0.15582c-0.18826,-0.18369 -0.36004,-0.38612 -0.5107,-0.60162c-0.17341,-0.24811 -0.11292,-0.58982 0.13519,-0.76323c0.24808,-0.17337 0.58985,-0.11296 0.76323,0.13519c0.11148,0.15946 0.23865,0.30923 0.37788,0.4452c0.21664,0.21141 0.22087,0.55835 0.00946,0.77503zM13.62512,18.46243c-0.00612,0.29877 -0.25027,0.53679 -0.54773,0.53679c-0.00379,0 -0.00764,-0.00004 -0.01147,-0.00011c-0.2637,-0.00538 -0.52736,-0.03562 -0.78379,-0.08973c-0.29613,-0.06257 -0.48558,-0.35336 -0.42305,-0.64949c0.06253,-0.29613 0.35332,-0.48554 0.64949,-0.42308c0.18944,0.04 0.38456,0.06234 0.57991,0.06635c0.30263,0.0062 0.54287,0.25661 0.53664,0.55928zM10.05119,14.93804c0.01329,0.30237 -0.2211,0.55831 -0.5235,0.5716c-0.0082,0.00037 -0.01633,0.00056 -0.02449,0.00056c-0.29168,0 -0.53419,-0.22982 -0.54714,-0.52402c-0.00275,-0.06238 -0.00412,-0.12569 -0.00412,-0.18811v-0.52346c0,-0.30266 0.2454,-0.54807 0.54807,-0.54807c0.30266,0 0.54807,0.24537 0.54807,0.54807v0.52346c0,0.04646 0.00104,0.09355 0.00312,0.13998zM7,3.65883c0,1.37724 -0.74442,2.6383 -1.91026,3.26033l-1.12867,1.81899c-0.10132,0.16333 -0.27482,0.26185 -0.46101,0.26185c-0.18615,0 -0.35969,-0.09856 -0.46101,-0.26185l-1.12871,-1.81899c-1.16592,-0.62203 -1.91034,-1.88309 -1.91034,-3.26033c0,-2.01748 1.57011,-3.65883 3.50002,-3.65883c1.92995,0 3.49998,1.64135 3.49998,3.65883zM4.46702,3.65883c0,-0.55742 -0.43381,-1.01092 -0.967,-1.01092c-0.53323,0 -0.96704,0.45345 -0.96704,1.01088c0,0.55742 0.43381,1.01092 0.96704,1.01092c0.53319,0 0.967,-0.45345 0.967,-1.01088zM19,13.65887c0,1.3772 -0.74442,2.63826 -1.91026,3.26029l-1.12871,1.81899c-0.10132,0.16329 -0.27482,0.26185 -0.46101,0.26185c-0.18615,0 -0.35969,-0.09856 -0.46101,-0.26185l-1.12867,-1.81895c-1.16592,-0.62207 -1.91034,-1.88313 -1.91034,-3.26037c0,-2.01748 1.57003,-3.65883 3.49998,-3.65883c1.92991,0 3.50002,1.64135 3.50002,3.65887zM16.46702,13.65883c0,-0.55739 -0.43381,-1.01088 -0.96704,-1.01088c-0.53319,0 -0.967,0.45349 -0.967,1.01088c0,0.55742 0.43381,1.01092 0.967,1.01092c0.53323,0 0.967,-0.45349 0.96704,-1.01092z" vector-effect="non-scaling-stroke"/></defs></g></svg>