<svg version="1.2" xmlns="http://www.w3.org/2000/svg" xmlns:xlink="http://www.w3.org/1999/xlink" overflow="visible" preserveAspectRatio="none" viewBox="0 0 18 18.000000000000057" width="18" height="18.000000000000057"><g transform="translate(0, 0)"><g transform="translate(0, 0) rotate(0)"><path d="M12,10.66667c0,1.37849 -1.12148,2.5 -2.5,2.5c-1.37852,0 -2.5,-1.12151 -2.5,-2.5c0,-1.37849 1.12148,-2.5 2.5,-2.5c1.37852,0 2.5,1.12151 2.5,2.5zM10.95062,10.66667c0,-0.79988 -0.65074,-1.45062 -1.45062,-1.45062c-0.79988,0 -1.45062,0.65074 -1.45062,1.45062c0,0.79988 0.65074,1.45062 1.45062,1.45062c0.79988,0 1.45062,-0.65074 1.45062,-1.45062zM9.41734,6.78811c-2.03657,0.07488 -3.67935,1.71766 -3.7542,3.75427l-2.66737,-2.66737l3.75423,-3.75423zM18,2.8125v11.06673l-4.95872,-4.95872c-0.22852,-0.4481 -0.54113,-0.84642 -0.91688,-1.17415l5.75346,-5.75343c0.07917,0.25942 0.12213,0.53455 0.12213,0.81956zM11.62923,18h-6.38346l3.19173,-3.19173zM7.66044,14.09382l-3.90621,3.90618h-0.94173c-1.55081,0 -2.8125,-1.26169 -2.8125,-2.8125v-4.31673l2.25,-2.25l3.83372,3.83372c0.35177,0.6898 0.90285,1.26155 1.57672,1.63934zM17.35594,1.02329l-6.10594,6.10594l-3.75423,-3.75423l3.375,-3.375h4.31673c0.87177,0 1.65213,0.39871 2.16844,1.02329zM17.99385,15.36462c-0.09176,1.46855 -1.31505,2.63538 -2.80635,2.63538h-2.06673l-3.41314,-3.41311c2.03657,-0.07488 3.67938,-1.7177 3.75423,-3.75427zM9.37923,0l-7.50203,7.5021c-0.00004,0 -0.00004,0 -0.00007,0.00004c-0.00004,0.00004 -1.8771,1.8771 -1.87713,1.87713v-6.56677c0,-1.55081 1.26169,-2.8125 2.8125,-2.8125z" style="stroke-width: 0; stroke-linecap: butt; stroke-linejoin: miter; fill: rgb(0, 0, 0);" vector-effect="non-scaling-stroke"/></g><defs><path id="path-163838836345595672" d="M12,10.66667c0,1.37849 -1.12148,2.5 -2.5,2.5c-1.37852,0 -2.5,-1.12151 -2.5,-2.5c0,-1.37849 1.12148,-2.5 2.5,-2.5c1.37852,0 2.5,1.12151 2.5,2.5zM10.95062,10.66667c0,-0.79988 -0.65074,-1.45062 -1.45062,-1.45062c-0.79988,0 -1.45062,0.65074 -1.45062,1.45062c0,0.79988 0.65074,1.45062 1.45062,1.45062c0.79988,0 1.45062,-0.65074 1.45062,-1.45062zM9.41734,6.78811c-2.03657,0.07488 -3.67935,1.71766 -3.7542,3.75427l-2.66737,-2.66737l3.75423,-3.75423zM18,2.8125v11.06673l-4.95872,-4.95872c-0.22852,-0.4481 -0.54113,-0.84642 -0.91688,-1.17415l5.75346,-5.75343c0.07917,0.25942 0.12213,0.53455 0.12213,0.81956zM11.62923,18h-6.38346l3.19173,-3.19173zM7.66044,14.09382l-3.90621,3.90618h-0.94173c-1.55081,0 -2.8125,-1.26169 -2.8125,-2.8125v-4.31673l2.25,-2.25l3.83372,3.83372c0.35177,0.6898 0.90285,1.26155 1.57672,1.63934zM17.35594,1.02329l-6.10594,6.10594l-3.75423,-3.75423l3.375,-3.375h4.31673c0.87177,0 1.65213,0.39871 2.16844,1.02329zM17.99385,15.36462c-0.09176,1.46855 -1.31505,2.63538 -2.80635,2.63538h-2.06673l-3.41314,-3.41311c2.03657,-0.07488 3.67938,-1.7177 3.75423,-3.75427zM9.37923,0l-7.50203,7.5021c-0.00004,0 -0.00004,0 -0.00007,0.00004c-0.00004,0.00004 -1.8771,1.8771 -1.87713,1.87713v-6.56677c0,-1.55081 1.26169,-2.8125 2.8125,-2.8125z" vector-effect="non-scaling-stroke"/></defs></g></svg>