<svg version="1.2" xmlns="http://www.w3.org/2000/svg" xmlns:xlink="http://www.w3.org/1999/xlink" overflow="visible" preserveAspectRatio="none" viewBox="0 0 15 18" width="15" height="18"><g transform="translate(0, 0)"><g transform="translate(0, 0) rotate(0)"><path d="M4.17003,2.13391c-0.20435,-0.20595 -0.20435,-0.53982 0,-0.74577c0.88817,-0.89511 2.07087,-1.38814 3.32993,-1.38814c0.0001,0 0,0 0.00007,0c1.25916,0 2.44172,0.493 3.32989,1.38814c0.20435,0.20595 0.20435,0.53982 0,0.74577c-0.10214,0.10301 -0.23609,0.15448 -0.36998,0.15448c-0.13388,0 -0.2678,-0.0515 -0.36998,-0.15448c-0.69056,-0.69592 -1.61034,-1.07923 -2.58994,-1.07923c-0.97964,0 -1.89942,0.38327 -2.59001,1.07923c-0.20435,0.20598 -0.53567,0.20598 -0.73999,0zM8.61003,3.62545c-0.6121,-0.61682 -1.60793,-0.61682 -2.22003,0c-0.20435,0.20595 -0.53567,0.20595 -0.73999,0c-0.20435,-0.20595 -0.20435,-0.53982 0,-0.74577c1.02007,-1.02807 2.67991,-1.02807 3.69998,0c0.20435,0.20595 0.20435,0.53982 0,0.74577c-0.10214,0.10301 -0.23606,0.15448 -0.36998,0.15448c-0.13392,0 -0.26784,-0.05147 -0.36998,-0.15448zM6.97674,4.74412c0,-0.29124 0.23427,-0.52734 0.52326,-0.52734c0.28899,0 0.52326,0.2361 0.52326,0.52734c0,0.29124 -0.23427,0.52734 -0.52326,0.52734c-0.28899,0 -0.52326,-0.2361 -0.52326,-0.52734zM1.39534,16.94531h3.13953v0.52734c0,0.29123 -0.23428,0.52734 -0.52326,0.52734h-2.09302c-0.28898,0 -0.52326,-0.23611 -0.52326,-0.52734zM10.46511,16.94531h3.13953v0.52734c0,0.29123 -0.23428,0.52734 -0.52326,0.52734h-2.09302c-0.28898,0 -0.52326,-0.23611 -0.52326,-0.52734zM15,12.66667v2.77778c0,0.30681 -0.23428,0.55556 -0.52326,0.55556h-13.95349c-0.28898,0 -0.52326,-0.24874 -0.52326,-0.55556v-2.77778c0,-0.919 0.7042,-1.66667 1.56977,-1.66667h2.74162c0.64291,0 1.23973,0.33911 1.59635,0.90707c0.08023,0.12778 0.21443,0.20404 0.35906,0.20404h2.46638c0.14463,0 0.27883,-0.07626 0.35906,-0.204c0.35665,-0.568 0.95344,-0.90711 1.59638,-0.90711h2.74162c0.86557,0 1.56977,0.74767 1.56977,1.66667zM3.66279,13.5c0,-0.30681 -0.23428,-0.55556 -0.52326,-0.55556h-1.04651c-0.28898,0 -0.52326,0.24874 -0.52326,0.55556c0,0.30681 0.23428,0.55556 0.52326,0.55556h1.04651c0.28898,0 0.52326,-0.24874 0.52326,-0.55556zM13.43023,13.5c0,-0.30681 -0.23428,-0.55556 -0.52326,-0.55556h-1.04651c-0.28898,0 -0.52326,0.24874 -0.52326,0.55556c0,0.30681 0.23428,0.55556 0.52326,0.55556h1.04651c0.28898,0 0.52326,-0.24874 0.52326,-0.55556zM4.31134,10.08984h-2.94432l0.62463,-1.88849c0.35665,-1.07838 1.35412,-1.80292 2.48201,-1.80292h2.50308v1.05469h-0.34884c-0.28898,0 -0.52326,0.23611 -0.52326,0.52734c0,0.29123 0.23428,0.52734 0.52326,0.52734h1.74419c0.28898,0 0.52326,-0.23611 0.52326,-0.52734c0,-0.29123 -0.23428,-0.52734 -0.52326,-0.52734h-0.34884v-1.05469h2.50308c1.12789,0 2.12536,0.72454 2.48201,1.80292l0.62463,1.88849h-2.94436c-0.87848,0 -1.70117,0.38879 -2.26092,1.05469h-1.85539c-0.55978,-0.66589 -1.38244,-1.05469 -2.26095,-1.05469z" style="stroke-width: 0; stroke-linecap: butt; stroke-linejoin: miter; fill: rgb(0, 0, 0);" vector-effect="non-scaling-stroke"/></g><defs><path id="path-163838836345595682" d="M4.17003,2.13391c-0.20435,-0.20595 -0.20435,-0.53982 0,-0.74577c0.88817,-0.89511 2.07087,-1.38814 3.32993,-1.38814c0.0001,0 0,0 0.00007,0c1.25916,0 2.44172,0.493 3.32989,1.38814c0.20435,0.20595 0.20435,0.53982 0,0.74577c-0.10214,0.10301 -0.23609,0.15448 -0.36998,0.15448c-0.13388,0 -0.2678,-0.0515 -0.36998,-0.15448c-0.69056,-0.69592 -1.61034,-1.07923 -2.58994,-1.07923c-0.97964,0 -1.89942,0.38327 -2.59001,1.07923c-0.20435,0.20598 -0.53567,0.20598 -0.73999,0zM8.61003,3.62545c-0.6121,-0.61682 -1.60793,-0.61682 -2.22003,0c-0.20435,0.20595 -0.53567,0.20595 -0.73999,0c-0.20435,-0.20595 -0.20435,-0.53982 0,-0.74577c1.02007,-1.02807 2.67991,-1.02807 3.69998,0c0.20435,0.20595 0.20435,0.53982 0,0.74577c-0.10214,0.10301 -0.23606,0.15448 -0.36998,0.15448c-0.13392,0 -0.26784,-0.05147 -0.36998,-0.15448zM6.97674,4.74412c0,-0.29124 0.23427,-0.52734 0.52326,-0.52734c0.28899,0 0.52326,0.2361 0.52326,0.52734c0,0.29124 -0.23427,0.52734 -0.52326,0.52734c-0.28899,0 -0.52326,-0.2361 -0.52326,-0.52734zM1.39534,16.94531h3.13953v0.52734c0,0.29123 -0.23428,0.52734 -0.52326,0.52734h-2.09302c-0.28898,0 -0.52326,-0.23611 -0.52326,-0.52734zM10.46511,16.94531h3.13953v0.52734c0,0.29123 -0.23428,0.52734 -0.52326,0.52734h-2.09302c-0.28898,0 -0.52326,-0.23611 -0.52326,-0.52734zM15,12.66667v2.77778c0,0.30681 -0.23428,0.55556 -0.52326,0.55556h-13.95349c-0.28898,0 -0.52326,-0.24874 -0.52326,-0.55556v-2.77778c0,-0.919 0.7042,-1.66667 1.56977,-1.66667h2.74162c0.64291,0 1.23973,0.33911 1.59635,0.90707c0.08023,0.12778 0.21443,0.20404 0.35906,0.20404h2.46638c0.14463,0 0.27883,-0.07626 0.35906,-0.204c0.35665,-0.568 0.95344,-0.90711 1.59638,-0.90711h2.74162c0.86557,0 1.56977,0.74767 1.56977,1.66667zM3.66279,13.5c0,-0.30681 -0.23428,-0.55556 -0.52326,-0.55556h-1.04651c-0.28898,0 -0.52326,0.24874 -0.52326,0.55556c0,0.30681 0.23428,0.55556 0.52326,0.55556h1.04651c0.28898,0 0.52326,-0.24874 0.52326,-0.55556zM13.43023,13.5c0,-0.30681 -0.23428,-0.55556 -0.52326,-0.55556h-1.04651c-0.28898,0 -0.52326,0.24874 -0.52326,0.55556c0,0.30681 0.23428,0.55556 0.52326,0.55556h1.04651c0.28898,0 0.52326,-0.24874 0.52326,-0.55556zM4.31134,10.08984h-2.94432l0.62463,-1.88849c0.35665,-1.07838 1.35412,-1.80292 2.48201,-1.80292h2.50308v1.05469h-0.34884c-0.28898,0 -0.52326,0.23611 -0.52326,0.52734c0,0.29123 0.23428,0.52734 0.52326,0.52734h1.74419c0.28898,0 0.52326,-0.23611 0.52326,-0.52734c0,-0.29123 -0.23428,-0.52734 -0.52326,-0.52734h-0.34884v-1.05469h2.50308c1.12789,0 2.12536,0.72454 2.48201,1.80292l0.62463,1.88849h-2.94436c-0.87848,0 -1.70117,0.38879 -2.26092,1.05469h-1.85539c-0.55978,-0.66589 -1.38244,-1.05469 -2.26095,-1.05469z" vector-effect="non-scaling-stroke"/></defs></g></svg>