<svg version="1.2" xmlns="http://www.w3.org/2000/svg" xmlns:xlink="http://www.w3.org/1999/xlink" overflow="visible" preserveAspectRatio="none" viewBox="0 0 9 15" width="9" height="15"><g transform="translate(0, 0)"><defs><path id="path-1638399549833302671" d="M8.474598942778034 5.302414344379735 C8.051623066528524 5.292419436881666 7.669193125358127 5.571422733195508 7.521840389941835 5.997503165142266 C7.374487654525545 6.423583597089025 7.494568754136449 6.903179775814809 7.8210018372336325 7.192334719884025 C7.8210018372336325 7.192334719884025 13.89732024285306 12.784920031955062 13.89732024285306 12.784920031955062 C13.89732024285306 12.784920031955062 7.821001837233634 18.375448935177246 7.821001837233634 18.375448935177246 C7.520702051656551 18.6125736553219 7.369252188950126 19.01037157452098 7.4287915635417106 19.40562768856198 C7.488330938133293 19.80088380260276 7.74883575074834 20.127054450649936 8.103421847306743 20.250313030989748 C8.458007943865145 20.373571611329556 8.846978697020257 20.27316682657854 9.110740855900655 19.990294385851897 C9.110740855900655 19.990294385851897 16.06757274262413 13.59546769230758 16.06757274262413 13.59546769230758 C16.28867126497274 13.392754224795857 16.416010210462016 13.096150697308943 16.416010210462016 12.783871666659506 C16.416010210462016 12.471592636010069 16.28867126497274 12.174989108523155 16.06757274262413 11.972275641011434 C16.06757274262413 11.972275641011434 9.110740855900655 5.57119907743673 9.110740855900655 5.57119907743673 C8.935000714803829 5.403493313876867 8.709589339132362 5.308194621706642 8.474598942778034 5.302253057411153 C8.474598942778034 5.302253057411153 8.474598942778034 5.302414344379735 8.474598942778034 5.302414344379735 Z" vector-effect="non-scaling-stroke"/></defs><g transform="translate(-7.416010210462016, -5.302154352882335)"><path d="M8.474598942778034 5.302414344379735 C8.051623066528524 5.292419436881666 7.669193125358127 5.571422733195508 7.521840389941835 5.997503165142266 C7.374487654525545 6.423583597089025 7.494568754136449 6.903179775814809 7.8210018372336325 7.192334719884025 C7.8210018372336325 7.192334719884025 13.89732024285306 12.784920031955062 13.89732024285306 12.784920031955062 C13.89732024285306 12.784920031955062 7.821001837233634 18.375448935177246 7.821001837233634 18.375448935177246 C7.520702051656551 18.6125736553219 7.369252188950126 19.01037157452098 7.4287915635417106 19.40562768856198 C7.488330938133293 19.80088380260276 7.74883575074834 20.127054450649936 8.103421847306743 20.250313030989748 C8.458007943865145 20.373571611329556 8.846978697020257 20.27316682657854 9.110740855900655 19.990294385851897 C9.110740855900655 19.990294385851897 16.06757274262413 13.59546769230758 16.06757274262413 13.59546769230758 C16.28867126497274 13.392754224795857 16.416010210462016 13.096150697308943 16.416010210462016 12.783871666659506 C16.416010210462016 12.471592636010069 16.28867126497274 12.174989108523155 16.06757274262413 11.972275641011434 C16.06757274262413 11.972275641011434 9.110740855900655 5.57119907743673 9.110740855900655 5.57119907743673 C8.935000714803829 5.403493313876867 8.709589339132362 5.308194621706642 8.474598942778034 5.302253057411153 C8.474598942778034 5.302253057411153 8.474598942778034 5.302414344379735 8.474598942778034 5.302414344379735 Z" style="stroke-width: 0; stroke-linecap: butt; stroke-linejoin: miter; fill: rgb(0, 0, 0);" vector-effect="non-scaling-stroke"/></g></g></svg>