<svg version="1.2" xmlns="http://www.w3.org/2000/svg" xmlns:xlink="http://www.w3.org/1999/xlink" overflow="visible" preserveAspectRatio="none" viewBox="0 0 18.19937316591252 18.540042828029527" width="18.19937316591252" height="18.540042828029527"><g transform="translate(0, 0)"><g transform="translate(0.19937316591249202, 0) rotate(0)"><path d="M17.25491,8.50842c-0.41136,0 -0.74509,-0.3319 -0.74509,-0.741c0,-0.00136 0,-0.00273 0,-0.00409c-0.33982,-0.33982 -0.18003,-0.18003 0,0c-0.00107,-2.0771 -0.81469,-4.02889 -2.29135,-5.49826c-0.2913,-0.2897 -0.2913,-0.75796 0,-1.0478c0.2913,-0.2897 0.76228,-0.2897 1.05358,0c1.75937,1.74958 2.72795,4.07585 2.72795,6.55015c0,0.4091 -0.33373,0.741 -0.74509,0.741zM0.74507,8.50842c-0.41121,0 -0.74507,-0.3319 -0.74507,-0.741c0,-0.00136 0,-0.00271 0,-0.00407c-0.33987,-0.33987 -0.18004,-0.18004 0,0c0.00106,-2.47278 0.96965,-4.79745 2.72788,-6.54608c0.29129,-0.2897 0.76226,-0.2897 1.05355,0c0.29143,0.28983 0.29143,0.7581 0,1.0478c-1.47759,1.46952 -2.29115,3.42372 -2.29115,5.50235c0,0.4091 -0.33386,0.741 -0.74521,0.741zM17,14.59991c0,0.77212 -0.62798,1.40009 -1.39995,1.40009h-13.19996c-0.77212,0 -1.40009,-0.62798 -1.40009,-1.40009c0,-0.40957 0.17842,-0.79673 0.4897,-1.06318c1.2167,-1.02876 1.9103,-2.52319 1.9103,-4.10638v-2.23036c0,-2.81513 2.09047,-5.14554 4.79999,-5.53592v-0.86411c0,-0.44238 0.35845,-0.79995 0.8001,-0.79995c0.4415,0 0.79995,0.35757 0.79995,0.79995v0.86411c2.70878,0.39038 4.79999,2.72079 4.79999,5.53592v2.23036c0,1.5832 0.6936,3.07763 1.90327,4.10009c0.31831,0.27275 0.49673,0.65991 0.49673,1.06948zM6,17h6c-0.28423,0.87727 -1.52131,1.54004 -3,1.54004c-1.47884,0 -2.71592,-0.66277 -3,-1.54004z" style="stroke-width: 0; stroke-linecap: butt; stroke-linejoin: miter; fill: rgb(0, 0, 0);" vector-effect="non-scaling-stroke"/></g><defs><path id="path-1638388813448159982" d="M17.25491,8.50842c-0.41136,0 -0.74509,-0.3319 -0.74509,-0.741c0,-0.00136 0,-0.00273 0,-0.00409c-0.33982,-0.33982 -0.18003,-0.18003 0,0c-0.00107,-2.0771 -0.81469,-4.02889 -2.29135,-5.49826c-0.2913,-0.2897 -0.2913,-0.75796 0,-1.0478c0.2913,-0.2897 0.76228,-0.2897 1.05358,0c1.75937,1.74958 2.72795,4.07585 2.72795,6.55015c0,0.4091 -0.33373,0.741 -0.74509,0.741zM0.74507,8.50842c-0.41121,0 -0.74507,-0.3319 -0.74507,-0.741c0,-0.00136 0,-0.00271 0,-0.00407c-0.33987,-0.33987 -0.18004,-0.18004 0,0c0.00106,-2.47278 0.96965,-4.79745 2.72788,-6.54608c0.29129,-0.2897 0.76226,-0.2897 1.05355,0c0.29143,0.28983 0.29143,0.7581 0,1.0478c-1.47759,1.46952 -2.29115,3.42372 -2.29115,5.50235c0,0.4091 -0.33386,0.741 -0.74521,0.741zM17,14.59991c0,0.77212 -0.62798,1.40009 -1.39995,1.40009h-13.19996c-0.77212,0 -1.40009,-0.62798 -1.40009,-1.40009c0,-0.40957 0.17842,-0.79673 0.4897,-1.06318c1.2167,-1.02876 1.9103,-2.52319 1.9103,-4.10638v-2.23036c0,-2.81513 2.09047,-5.14554 4.79999,-5.53592v-0.86411c0,-0.44238 0.35845,-0.79995 0.8001,-0.79995c0.4415,0 0.79995,0.35757 0.79995,0.79995v0.86411c2.70878,0.39038 4.79999,2.72079 4.79999,5.53592v2.23036c0,1.5832 0.6936,3.07763 1.90327,4.10009c0.31831,0.27275 0.49673,0.65991 0.49673,1.06948zM6,17h6c-0.28423,0.87727 -1.52131,1.54004 -3,1.54004c-1.47884,0 -2.71592,-0.66277 -3,-1.54004z" vector-effect="non-scaling-stroke"/></defs></g></svg>