<svg version="1.2" xmlns="http://www.w3.org/2000/svg" xmlns:xlink="http://www.w3.org/1999/xlink" overflow="visible" preserveAspectRatio="none" viewBox="0 0 19 19" width="19" height="19"><g transform="translate(0, 0)"><g transform="translate(0, 0) rotate(0)"><path d="M9.50026,4.50641l4.45122,9.0941l-4.45122,-1.57021l-4.45122,1.57021zM19,8.9433v1.11341h-0.98444c-0.18776,4.15724 -3.80151,7.77114 -7.95886,7.95886v0.98444h-1.11341v-0.98444c-4.15724,-0.18776 -7.7711,-3.80151 -7.95886,-7.95886h-0.98444v-1.11341h0.98444c0.18776,-4.15724 3.80151,-7.77114 7.95886,-7.95886v-0.98444h1.11341v0.98444c4.15724,0.18776 7.7711,3.80151 7.95882,7.95886zM16.89919,10.0567h-0.94595v-1.11341h0.94595c-0.27189,-3.64856 -3.19396,-6.57063 -6.84248,-6.84252v0.94595h-1.11341v-0.94599c-3.64856,0.27193 -6.57063,3.19399 -6.84252,6.84252h0.94599v1.11341h-0.94599c0.27193,3.64856 3.19399,6.57063 6.84252,6.84252v-0.94599h1.11341v0.94599c3.64852,-0.27189 6.57055,-3.19396 6.84248,-6.84248z" style="stroke-width: 0; stroke-linecap: butt; stroke-linejoin: miter; fill: rgb(0, 0, 0);" vector-effect="non-scaling-stroke"/></g><defs><path id="path-1638388813448159989" d="M9.50026,4.50641l4.45122,9.0941l-4.45122,-1.57021l-4.45122,1.57021zM19,8.9433v1.11341h-0.98444c-0.18776,4.15724 -3.80151,7.77114 -7.95886,7.95886v0.98444h-1.11341v-0.98444c-4.15724,-0.18776 -7.7711,-3.80151 -7.95886,-7.95886h-0.98444v-1.11341h0.98444c0.18776,-4.15724 3.80151,-7.77114 7.95886,-7.95886v-0.98444h1.11341v0.98444c4.15724,0.18776 7.7711,3.80151 7.95882,7.95886zM16.89919,10.0567h-0.94595v-1.11341h0.94595c-0.27189,-3.64856 -3.19396,-6.57063 -6.84248,-6.84252v0.94595h-1.11341v-0.94599c-3.64856,0.27193 -6.57063,3.19399 -6.84252,6.84252h0.94599v1.11341h-0.94599c0.27193,3.64856 3.19399,6.57063 6.84252,6.84252v-0.94599h1.11341v0.94599c3.64852,-0.27189 6.57055,-3.19396 6.84248,-6.84248z" vector-effect="non-scaling-stroke"/></defs></g></svg>