<svg version="1.2" xmlns="http://www.w3.org/2000/svg" xmlns:xlink="http://www.w3.org/1999/xlink" overflow="visible" preserveAspectRatio="none" viewBox="0 0 20 15" width="20" height="15"><g transform="translate(0, 0)"><g transform="translate(0, 0) rotate(0)"><path d="M10,3.33325c0,1.84072 -1.49253,3.3335 -3.33325,3.3335c-1.84072,0 -3.3335,-1.49272 -3.3335,-3.3335c0,-1.84077 1.49272,-3.33325 3.3335,-3.33325c1.84077,0 3.33325,1.49253 3.33325,3.33325zM13.33325,11.66675v3.33325h-13.33325v-3.33325c0,-1.84077 1.49248,-3.3335 3.33325,-3.3335h6.66675c1.84077,0 3.33325,1.49424 3.33325,3.3335zM16.66675,3.33325c0,1.84072 -1.49272,3.3335 -3.3335,3.3335c-0.88872,0 -1.69175,-0.35347 -2.28999,-0.92148c0.39648,-0.71528 0.62349,-1.53701 0.62349,-2.41201c0,-0.87476 -0.227,-1.69678 -0.62349,-2.41201c0.598,-0.56797 1.40122,-0.92124 2.28999,-0.92124c1.84072,0 3.3335,1.49253 3.3335,3.33325zM20,11.66675v3.33325h-5v-3.33325c0,-1.28101 -0.48823,-2.448 -1.2835,-3.3335h2.95024c1.84077,0 3.33325,1.49424 3.33325,3.3335z" style="stroke-width: 0; stroke-linecap: butt; stroke-linejoin: miter; fill: rgb(0, 0, 0);" vector-effect="non-scaling-stroke"/></g><defs><path id="path-1638388813445159922" d="M10,3.33325c0,1.84072 -1.49253,3.3335 -3.33325,3.3335c-1.84072,0 -3.3335,-1.49272 -3.3335,-3.3335c0,-1.84077 1.49272,-3.33325 3.3335,-3.33325c1.84077,0 3.33325,1.49253 3.33325,3.33325zM13.33325,11.66675v3.33325h-13.33325v-3.33325c0,-1.84077 1.49248,-3.3335 3.33325,-3.3335h6.66675c1.84077,0 3.33325,1.49424 3.33325,3.3335zM16.66675,3.33325c0,1.84072 -1.49272,3.3335 -3.3335,3.3335c-0.88872,0 -1.69175,-0.35347 -2.28999,-0.92148c0.39648,-0.71528 0.62349,-1.53701 0.62349,-2.41201c0,-0.87476 -0.227,-1.69678 -0.62349,-2.41201c0.598,-0.56797 1.40122,-0.92124 2.28999,-0.92124c1.84072,0 3.3335,1.49253 3.3335,3.33325zM20,11.66675v3.33325h-5v-3.33325c0,-1.28101 -0.48823,-2.448 -1.2835,-3.3335h2.95024c1.84077,0 3.33325,1.49424 3.33325,3.3335z" vector-effect="non-scaling-stroke"/></defs></g></svg>