<svg version="1.2" xmlns="http://www.w3.org/2000/svg" xmlns:xlink="http://www.w3.org/1999/xlink" overflow="visible" preserveAspectRatio="none" viewBox="0 0 20.00001 20.000009999999996" width="20.00001" height="20.000009999999996"><g transform="translate(0, 0)"><g transform="translate(0.00001000000000095369, 2.220446049250313e-16) rotate(0)"><path d="M8.7875,1.52269v5.74207c0,0.83966 -0.68303,1.52269 -1.5227,1.52269h-5.74211c-0.83967,0 -1.5227,-0.68303 -1.5227,-1.52269v-5.74207c0,-0.83966 0.68303,-1.52269 1.5227,-1.52269h5.74211c0.83967,0 1.52256,0.68303 1.5227,1.52269zM20,1.52269v5.74207c0,0.83966 -0.68303,1.52269 -1.5227,1.52269h-5.74211c-0.83967,0 -1.5227,-0.68303 -1.5227,-1.52269v-5.74207c0,-0.83966 0.68303,-1.52269 1.5227,-1.52269h5.74211c0.83967,0 1.5227,0.68303 1.5227,1.52269zM8.7875,12.73518v5.74207c0,0.83966 -0.68303,1.52269 -1.5227,1.52269h-5.74211c-0.83967,0 -1.5227,-0.68303 -1.5227,-1.52269v-5.74207c0,-0.83966 0.68303,-1.52262 1.5227,-1.52262h5.74211c0.83967,0 1.52256,0.68296 1.5227,1.52262zM20,12.73518v5.74207c0,0.83966 -0.68303,1.52269 -1.5227,1.52276h-5.74211c-0.83967,0 -1.5227,-0.68303 -1.5227,-1.52269v-5.74207c0,-0.83966 0.68303,-1.52269 1.5227,-1.52269h5.74211c0.83967,0 1.5227,0.68296 1.5227,1.52262z" style="stroke-width: 0; stroke-linecap: butt; stroke-linejoin: miter; fill: rgb(0, 0, 0);" vector-effect="non-scaling-stroke"/></g><defs><path id="path-1638644186385671" d="M8.7875,1.52269v5.74207c0,0.83966 -0.68303,1.52269 -1.5227,1.52269h-5.74211c-0.83967,0 -1.5227,-0.68303 -1.5227,-1.52269v-5.74207c0,-0.83966 0.68303,-1.52269 1.5227,-1.52269h5.74211c0.83967,0 1.52256,0.68303 1.5227,1.52269zM20,1.52269v5.74207c0,0.83966 -0.68303,1.52269 -1.5227,1.52269h-5.74211c-0.83967,0 -1.5227,-0.68303 -1.5227,-1.52269v-5.74207c0,-0.83966 0.68303,-1.52269 1.5227,-1.52269h5.74211c0.83967,0 1.5227,0.68303 1.5227,1.52269zM8.7875,12.73518v5.74207c0,0.83966 -0.68303,1.52269 -1.5227,1.52269h-5.74211c-0.83967,0 -1.5227,-0.68303 -1.5227,-1.52269v-5.74207c0,-0.83966 0.68303,-1.52262 1.5227,-1.52262h5.74211c0.83967,0 1.52256,0.68296 1.5227,1.52262zM20,12.73518v5.74207c0,0.83966 -0.68303,1.52269 -1.5227,1.52276h-5.74211c-0.83967,0 -1.5227,-0.68303 -1.5227,-1.52269v-5.74207c0,-0.83966 0.68303,-1.52269 1.5227,-1.52269h5.74211c0.83967,0 1.5227,0.68296 1.5227,1.52262z" vector-effect="non-scaling-stroke"/></defs></g></svg>