<svg version="1.2" xmlns="http://www.w3.org/2000/svg" xmlns:xlink="http://www.w3.org/1999/xlink" overflow="visible" preserveAspectRatio="none" viewBox="0 0 20 20" width="20" height="20"><g transform="translate(0, 0)"><g transform="translate(0, 0) rotate(0)"><path d="M10,0c-5.52671,0 -10,4.47255 -10,10c0,5.52671 4.47251,10 10,10c5.52675,0 10,-4.47255 10,-10c0,-5.52671 -4.47251,-10 -10,-10zM12.94118,13.77306l-2.76886,-2.76886l0.83188,-0.83188l1.34875,1.34875v-4.16812c0,-1.45961 -1.18745,-2.64706 -2.64706,-2.64706c-1.45961,0 -2.64706,1.18745 -2.64706,2.64706v8.52941h-1.17647v-8.52941c0,-2.10831 1.71522,-3.82353 3.82353,-3.82353c2.10831,0 3.82353,1.71522 3.82353,3.82353v4.16812l1.34878,-1.34878l0.83188,0.83188z" style="stroke-width: 0; stroke-linecap: butt; stroke-linejoin: miter; fill: rgb(245, 88, 60);" vector-effect="non-scaling-stroke"/></g><defs><path id="path-1638915676936464" d="M10,0c-5.52671,0 -10,4.47255 -10,10c0,5.52671 4.47251,10 10,10c5.52675,0 10,-4.47255 10,-10c0,-5.52671 -4.47251,-10 -10,-10zM12.94118,13.77306l-2.76886,-2.76886l0.83188,-0.83188l1.34875,1.34875v-4.16812c0,-1.45961 -1.18745,-2.64706 -2.64706,-2.64706c-1.45961,0 -2.64706,1.18745 -2.64706,2.64706v8.52941h-1.17647v-8.52941c0,-2.10831 1.71522,-3.82353 3.82353,-3.82353c2.10831,0 3.82353,1.71522 3.82353,3.82353v4.16812l1.34878,-1.34878l0.83188,0.83188z" vector-effect="non-scaling-stroke"/></defs></g></svg>