<svg version="1.2" xmlns="http://www.w3.org/2000/svg" xmlns:xlink="http://www.w3.org/1999/xlink" overflow="visible" preserveAspectRatio="none" viewBox="0 0 15 10.00000989164973" width="15" height="10.00000989164973"><g transform="translate(0, 0)"><g transform="translate(-0.000010000000000036022, -1.0835026881110023e-7) rotate(0)"><path d="M4.23273,3.56874c-0.43836,0.36718 -0.80215,0.79999 -1.08122,1.28645c-0.03306,0.05764 -0.09549,0.09029 -0.15988,0.09029c-0.02953,0 -0.05946,-0.00684 -0.08718,-0.0213l-1.91678,-0.99842c-0.04238,-0.02205 -0.0738,-0.05925 -0.08738,-0.1034c-0.01358,-0.04412 -0.00816,-0.0916 0.01498,-0.13198c0.42223,-0.73597 0.97228,-1.39059 1.63494,-1.94567c0.03625,-0.03036 0.08348,-0.04575 0.13189,-0.04281c0.04821,0.00297 0.09319,0.02403 0.12505,0.05858l1.44215,1.56347c0.03186,0.03454 0.04804,0.07978 0.04493,0.12568c-0.00306,0.04594 -0.02517,0.0888 -0.06149,0.11912zM3.91418,1.03158c-0.04706,-0.08467 -0.01326,-0.18963 0.07554,-0.23452c0.77997,-0.39423 1.61921,-0.65147 2.4944,-0.76458c0.09936,-0.01278 0.19135,0.05367 0.20485,0.14859l0.2936,2.06271c0.0135,0.09494 -0.05632,0.18234 -0.15593,0.19521c-0.5763,0.07451 -1.12899,0.24393 -1.64276,0.50358c-0.02716,0.01373 -0.05635,0.02025 -0.08512,0.02025c-0.06522,0 -0.12828,-0.03347 -0.16098,-0.09221zM2.72085,5.87484c-0.11431,0.40156 -0.17228,0.81853 -0.17228,1.23941c0,0.071 0.00184,0.14348 0.00564,0.22151c0.00225,0.04594 -0.01478,0.0909 -0.0473,0.12488c-0.03248,0.03398 -0.07789,0.0543 -0.1261,0.0564l-2.18212,0.09606c-0.00284,0.00014 -0.00574,0.00019 -0.00858,0.00019c-0.09672,0 -0.17718,-0.07245 -0.18172,-0.16543c-0.00566,-0.11573 -0.00838,-0.22485 -0.00838,-0.33362c0,-0.63561 0.08789,-1.26655 0.26115,-1.8753c0.01267,-0.0444 0.04328,-0.08219 0.08517,-0.10508c0.04189,-0.02289 0.09159,-0.02894 0.13819,-0.01693l2.10825,0.54508c0.09701,0.02511 0.15434,0.12038 0.12809,0.21282zM10.83807,0.90474l-0.94853,1.87518c-0.02096,0.04143 -0.05836,0.07327 -0.10392,0.08843c-0.01951,0.00647 -0.0398,0.00972 -0.06005,0.00972c-0.02713,0 -0.05417,-0.00579 -0.07904,-0.01724c-0.52296,-0.24022 -1.08205,-0.38918 -1.66176,-0.44269c-0.10007,-0.00923 -0.17336,-0.09403 -0.16365,-0.18937l0.21061,-2.07196c0.00466,-0.04582 0.02819,-0.08796 0.06547,-0.1172c0.03728,-0.02922 0.08498,-0.04337 0.13331,-0.03875c0.87953,0.08123 1.72828,0.30739 2.52266,0.67233c0.09059,0.04157 0.1286,0.14527 0.0849,0.23155zM13.87865,3.68973l-1.87502,1.06802c-0.02924,0.01668 -0.06142,0.02462 -0.09321,0.02462c-0.06196,0 -0.12233,-0.03018 -0.15645,-0.0845c-0.29877,-0.47632 -0.67978,-0.8957 -1.13247,-1.24649c-0.03748,-0.02905 -0.0613,-0.07107 -0.06623,-0.11683c-0.00498,-0.04575 0.00939,-0.09151 0.03983,-0.12722l1.37835,-1.61493c0.03044,-0.03569 0.07453,-0.05837 0.12255,-0.06311c0.04821,-0.0046 0.09603,0.00899 0.1335,0.038c0.68419,0.53025 1.26019,1.16432 1.71195,1.8845c0.0248,0.03952 0.03206,0.08672 0.02029,0.13135c-0.01181,0.04463 -0.04172,0.08296 -0.08311,0.10657zM14.99999,7.11418c0,0.10877 -0.00277,0.21789 -0.00838,0.33362c-0.00456,0.09296 -0.08505,0.16543 -0.18172,0.16543c-0.00284,0 -0.00569,-0.00007 -0.00858,-0.00019l-2.18212,-0.09606c-0.04821,-0.0021 -0.09358,-0.0224 -0.1261,-0.0564c-0.03255,-0.03398 -0.04956,-0.07894 -0.0473,-0.12488c0.00377,-0.07801 0.00564,-0.15048 0.00564,-0.22151c0,-0.48242 -0.07586,-0.95778 -0.22546,-1.4129c-0.03005,-0.09139 0.02333,-0.18872 0.11929,-0.21735l2.0845,-0.62239c0.09586,-0.0287 0.19804,0.02223 0.22814,0.11367c0.22701,0.69029 0.34206,1.40993 0.34211,2.13896zM8.70085,7.22251c0.32247,0.30729 0.50007,0.71586 0.50007,1.15047c0,0.43461 -0.17757,0.84317 -0.50007,1.15047c-0.32247,0.30727 -0.75122,0.47656 -1.2073,0.47656c-0.45608,0 -0.88485,-0.16924 -1.20735,-0.47656c-0.32247,-0.30729 -0.50007,-0.71586 -0.50007,-1.15047c0,-0.05652 0.00316,-0.11255 0.00909,-0.16805l-1.61311,-2.88108c-0.03956,-0.07058 -0.025,-0.15765 0.03569,-0.21303c0.06064,-0.05542 0.15252,-0.06563 0.2249,-0.02487l2.9571,1.6626c0.0311,-0.00159 0.06233,-0.00257 0.09373,-0.00257c0.45605,0 0.88485,0.16924 1.20732,0.47653z" style="stroke-width: 0; stroke-linecap: butt; stroke-linejoin: miter; fill: rgb(245, 26, 10);" vector-effect="non-scaling-stroke"/></g><defs><path id="path-1647275004597432" d="M4.23273,3.56874c-0.43836,0.36718 -0.80215,0.79999 -1.08122,1.28645c-0.03306,0.05764 -0.09549,0.09029 -0.15988,0.09029c-0.02953,0 -0.05946,-0.00684 -0.08718,-0.0213l-1.91678,-0.99842c-0.04238,-0.02205 -0.0738,-0.05925 -0.08738,-0.1034c-0.01358,-0.04412 -0.00816,-0.0916 0.01498,-0.13198c0.42223,-0.73597 0.97228,-1.39059 1.63494,-1.94567c0.03625,-0.03036 0.08348,-0.04575 0.13189,-0.04281c0.04821,0.00297 0.09319,0.02403 0.12505,0.05858l1.44215,1.56347c0.03186,0.03454 0.04804,0.07978 0.04493,0.12568c-0.00306,0.04594 -0.02517,0.0888 -0.06149,0.11912zM3.91418,1.03158c-0.04706,-0.08467 -0.01326,-0.18963 0.07554,-0.23452c0.77997,-0.39423 1.61921,-0.65147 2.4944,-0.76458c0.09936,-0.01278 0.19135,0.05367 0.20485,0.14859l0.2936,2.06271c0.0135,0.09494 -0.05632,0.18234 -0.15593,0.19521c-0.5763,0.07451 -1.12899,0.24393 -1.64276,0.50358c-0.02716,0.01373 -0.05635,0.02025 -0.08512,0.02025c-0.06522,0 -0.12828,-0.03347 -0.16098,-0.09221zM2.72085,5.87484c-0.11431,0.40156 -0.17228,0.81853 -0.17228,1.23941c0,0.071 0.00184,0.14348 0.00564,0.22151c0.00225,0.04594 -0.01478,0.0909 -0.0473,0.12488c-0.03248,0.03398 -0.07789,0.0543 -0.1261,0.0564l-2.18212,0.09606c-0.00284,0.00014 -0.00574,0.00019 -0.00858,0.00019c-0.09672,0 -0.17718,-0.07245 -0.18172,-0.16543c-0.00566,-0.11573 -0.00838,-0.22485 -0.00838,-0.33362c0,-0.63561 0.08789,-1.26655 0.26115,-1.8753c0.01267,-0.0444 0.04328,-0.08219 0.08517,-0.10508c0.04189,-0.02289 0.09159,-0.02894 0.13819,-0.01693l2.10825,0.54508c0.09701,0.02511 0.15434,0.12038 0.12809,0.21282zM10.83807,0.90474l-0.94853,1.87518c-0.02096,0.04143 -0.05836,0.07327 -0.10392,0.08843c-0.01951,0.00647 -0.0398,0.00972 -0.06005,0.00972c-0.02713,0 -0.05417,-0.00579 -0.07904,-0.01724c-0.52296,-0.24022 -1.08205,-0.38918 -1.66176,-0.44269c-0.10007,-0.00923 -0.17336,-0.09403 -0.16365,-0.18937l0.21061,-2.07196c0.00466,-0.04582 0.02819,-0.08796 0.06547,-0.1172c0.03728,-0.02922 0.08498,-0.04337 0.13331,-0.03875c0.87953,0.08123 1.72828,0.30739 2.52266,0.67233c0.09059,0.04157 0.1286,0.14527 0.0849,0.23155zM13.87865,3.68973l-1.87502,1.06802c-0.02924,0.01668 -0.06142,0.02462 -0.09321,0.02462c-0.06196,0 -0.12233,-0.03018 -0.15645,-0.0845c-0.29877,-0.47632 -0.67978,-0.8957 -1.13247,-1.24649c-0.03748,-0.02905 -0.0613,-0.07107 -0.06623,-0.11683c-0.00498,-0.04575 0.00939,-0.09151 0.03983,-0.12722l1.37835,-1.61493c0.03044,-0.03569 0.07453,-0.05837 0.12255,-0.06311c0.04821,-0.0046 0.09603,0.00899 0.1335,0.038c0.68419,0.53025 1.26019,1.16432 1.71195,1.8845c0.0248,0.03952 0.03206,0.08672 0.02029,0.13135c-0.01181,0.04463 -0.04172,0.08296 -0.08311,0.10657zM14.99999,7.11418c0,0.10877 -0.00277,0.21789 -0.00838,0.33362c-0.00456,0.09296 -0.08505,0.16543 -0.18172,0.16543c-0.00284,0 -0.00569,-0.00007 -0.00858,-0.00019l-2.18212,-0.09606c-0.04821,-0.0021 -0.09358,-0.0224 -0.1261,-0.0564c-0.03255,-0.03398 -0.04956,-0.07894 -0.0473,-0.12488c0.00377,-0.07801 0.00564,-0.15048 0.00564,-0.22151c0,-0.48242 -0.07586,-0.95778 -0.22546,-1.4129c-0.03005,-0.09139 0.02333,-0.18872 0.11929,-0.21735l2.0845,-0.62239c0.09586,-0.0287 0.19804,0.02223 0.22814,0.11367c0.22701,0.69029 0.34206,1.40993 0.34211,2.13896zM8.70085,7.22251c0.32247,0.30729 0.50007,0.71586 0.50007,1.15047c0,0.43461 -0.17757,0.84317 -0.50007,1.15047c-0.32247,0.30727 -0.75122,0.47656 -1.2073,0.47656c-0.45608,0 -0.88485,-0.16924 -1.20735,-0.47656c-0.32247,-0.30729 -0.50007,-0.71586 -0.50007,-1.15047c0,-0.05652 0.00316,-0.11255 0.00909,-0.16805l-1.61311,-2.88108c-0.03956,-0.07058 -0.025,-0.15765 0.03569,-0.21303c0.06064,-0.05542 0.15252,-0.06563 0.2249,-0.02487l2.9571,1.6626c0.0311,-0.00159 0.06233,-0.00257 0.09373,-0.00257c0.45605,0 0.88485,0.16924 1.20732,0.47653z" vector-effect="non-scaling-stroke"/></defs></g></svg>