<svg version="1.2" xmlns="http://www.w3.org/2000/svg" xmlns:xlink="http://www.w3.org/1999/xlink" overflow="visible" preserveAspectRatio="none" viewBox="0 0 20.999999999999986 12" width="20.999999999999986" height="12"><g transform="translate(0, 0)"><g transform="translate(1.4210854715202004e-14, 0) rotate(0)"><path d="M10.5,0c-4.01227,0 -7.65081,2.10432 -10.33569,5.52231c-0.21909,0.28003 -0.21909,0.67124 0,0.95127c2.68487,3.4221 6.32341,5.52642 10.33569,5.52642c4.01227,0 7.65081,-2.10432 10.33569,-5.52231c0.21909,-0.28003 0.21909,-0.67124 0,-0.95127c-2.68487,-3.4221 -6.32341,-5.52642 -10.33569,-5.52642zM10.78782,10.22512c-2.66339,0.1606 -4.86284,-1.94372 -4.69531,-4.50103c0.13747,-2.10844 1.92022,-3.81743 4.11967,-3.94921c2.66339,-0.1606 4.86284,1.94372 4.69531,4.50103c-0.14176,2.10432 -1.92452,3.81332 -4.11967,3.94921zM10.65465,8.27316c-1.4348,0.08648 -2.62044,-1.04598 -2.52593,-2.42141c0.07303,-1.13658 1.03529,-2.05491 2.22093,-2.12903c1.4348,-0.08648 2.62044,1.04598 2.52593,2.42141c-0.07732,1.1407 -1.03958,2.05903 -2.22093,2.12903z" style="stroke-width: 0; stroke-linecap: butt; stroke-linejoin: miter; fill: rgb(161, 161, 194);" vector-effect="non-scaling-stroke"/></g><defs><path id="path-163838658469625108" d="M10.5,0c-4.01227,0 -7.65081,2.10432 -10.33569,5.52231c-0.21909,0.28003 -0.21909,0.67124 0,0.95127c2.68487,3.4221 6.32341,5.52642 10.33569,5.52642c4.01227,0 7.65081,-2.10432 10.33569,-5.52231c0.21909,-0.28003 0.21909,-0.67124 0,-0.95127c-2.68487,-3.4221 -6.32341,-5.52642 -10.33569,-5.52642zM10.78782,10.22512c-2.66339,0.1606 -4.86284,-1.94372 -4.69531,-4.50103c0.13747,-2.10844 1.92022,-3.81743 4.11967,-3.94921c2.66339,-0.1606 4.86284,1.94372 4.69531,4.50103c-0.14176,2.10432 -1.92452,3.81332 -4.11967,3.94921zM10.65465,8.27316c-1.4348,0.08648 -2.62044,-1.04598 -2.52593,-2.42141c0.07303,-1.13658 1.03529,-2.05491 2.22093,-2.12903c1.4348,-0.08648 2.62044,1.04598 2.52593,2.42141c-0.07732,1.1407 -1.03958,2.05903 -2.22093,2.12903z" vector-effect="non-scaling-stroke"/></defs></g></svg>