<svg version="1.2" xmlns="http://www.w3.org/2000/svg" xmlns:xlink="http://www.w3.org/1999/xlink" overflow="visible" preserveAspectRatio="none" viewBox="0 0 12 14" width="12" height="14"><g transform="translate(0, 0)"><g transform="translate(0, 0) rotate(0)"><path d="M9.6,3.69141c0,2.03544 -1.61496,3.69141 -3.6,3.69141c-1.98504,0 -3.6,-1.65596 -3.6,-3.69141c0,-2.03544 1.61496,-3.69141 3.6,-3.69141c1.98504,0 3.6,1.65596 3.6,3.69141zM12,13.58984c0,0.22652 -0.17909,0.41016 -0.4,0.41016h-11.2c-0.22091,0 -0.4,-0.18364 -0.4,-0.41016c0,-1.42644 0.54013,-2.77432 1.52091,-3.79545c0.9856,-1.02616 2.29221,-1.59127 3.67909,-1.59127h1.6c1.38691,0 2.69349,0.56511 3.67909,1.59127c0.98077,1.02112 1.52091,2.36901 1.52091,3.79545z" style="stroke-width: 0; stroke-linecap: butt; stroke-linejoin: miter; fill: rgb(161, 161, 194);" vector-effect="non-scaling-stroke"/></g><defs><path id="path-163838658474525356" d="M9.6,3.69141c0,2.03544 -1.61496,3.69141 -3.6,3.69141c-1.98504,0 -3.6,-1.65596 -3.6,-3.69141c0,-2.03544 1.61496,-3.69141 3.6,-3.69141c1.98504,0 3.6,1.65596 3.6,3.69141zM12,13.58984c0,0.22652 -0.17909,0.41016 -0.4,0.41016h-11.2c-0.22091,0 -0.4,-0.18364 -0.4,-0.41016c0,-1.42644 0.54013,-2.77432 1.52091,-3.79545c0.9856,-1.02616 2.29221,-1.59127 3.67909,-1.59127h1.6c1.38691,0 2.69349,0.56511 3.67909,1.59127c0.98077,1.02112 1.52091,2.36901 1.52091,3.79545z" vector-effect="non-scaling-stroke"/></defs></g></svg>