<svg version="1.2" xmlns="http://www.w3.org/2000/svg" xmlns:xlink="http://www.w3.org/1999/xlink" overflow="visible" preserveAspectRatio="none" viewBox="0 0 15 15.444444444444445" width="15" height="15.444444444444445"><g transform="translate(0, 0)"><g transform="translate(0, 0.4720044444444445) rotate(0)"><path d="M15,10.97244c0,2.20567 -1.79433,4 -4,4c-2.20567,0 -4,-1.79433 -4,-4c0,-2.20567 1.79433,-4 4,-4c2.20567,0 4,1.79433 4,4zM13.22222,10.97244c0,-0.2456 -0.19884,-0.44444 -0.44444,-0.44444h-0.88889c-0.06325,-0.06325 -0.08416,-0.08416 0,0h-0.44444v-1.33333c0,-0.2456 -0.19884,-0.44444 -0.44444,-0.44444c-0.2456,0 -0.44444,0.19884 -0.44444,0.44444v1.77778c0,0.2456 0.19884,0.44444 0.44444,0.44444h1.77778c0.2456,0 0.44444,-0.19884 0.44444,-0.44444zM13.50466,3.97244h-13.50466v-2.5c0,-0.28008 0.18524,-0.5 0.42114,-0.5h1.57787v-0.5c0,-0.26464 0.32996,-0.47244 0.75017,-0.47244c0.42022,0 0.75017,0.2078 0.75017,0.47244v0.5h1.50064v-0.5c0,-0.26464 0.33042,-0.47244 0.75122,-0.47244c0.4208,0 0.75122,0.2078 0.75122,0.47244v0.5h1.10622v1.5c0,0.27995 0.18524,0.5 0.42114,0.5c0.23591,0 0.42114,-0.22005 0.42114,-0.5v-1.49606h-0.45094v-0.50394c0,-0.26464 0.11481,-0.47244 0.26102,-0.47244c0.14621,0 0.26102,0.2078 0.26102,0.47244v0.5h1.61348v1.5c0,0.27995 0.18524,0.5 0.42114,0.5c0.23591,0 0.42114,-0.22005 0.42114,-0.5v-1.5h0.5222v-0.49625c0,-0.26674 0.1323,-0.47619 0.30078,-0.47619c0.16848,0 0.30078,0.20945 0.30078,0.47619v0.49625h0.98195c0.23591,0 0.42114,0.21992 0.42114,0.5zM5.08179,2.47244c0,0.27995 0.18524,0.5 0.42114,0.5c0.23591,0 0.42114,-0.22005 0.42114,-0.5v-1.49606h-0.84229zM2.55494,2.47244c0,0.27995 0.18524,0.5 0.42114,0.5c0.23591,0 0.42114,-0.22005 0.42114,-0.5v-1.49606h-0.84229zM6.14137,9.37244c0,0.14656 0.09005,0.26906 0.21818,0.33875c-0.132,0.40135 -0.21818,0.82094 -0.21818,1.26125c0,0.72042 0.19374,1.39917 0.53016,2h-6.23494c-0.24126,0 -0.43659,-0.17896 -0.43659,-0.4v-7.6h14v2.60854c-0.83089,-0.62958 -1.8961,-1.00854 -3.05613,-1.00854c0.24126,0 0.43659,-0.17896 0.43659,-0.4c0,-0.22104 -0.19533,-0.4 -0.43659,-0.4h-0.87318c-0.24126,0 -0.43659,0.17896 -0.43659,0.4c0,0.22104 0.19533,0.4 0.43659,0.4h0.87318c-1.17823,0 -2.2572,0.3924 -3.09365,1.03979c-0.06754,-0.14094 -0.22023,-0.23979 -0.39907,-0.23979h-0.87318c-0.24126,0 -0.43659,0.17896 -0.43659,0.4c0,0.22104 0.19533,0.4 0.43659,0.4h0.66421c-0.22011,0.24385 -0.39998,0.51625 -0.55938,0.8h-0.10483c-0.24126,0 -0.43659,0.17896 -0.43659,0.4zM6.14137,6.17244c0,0.22104 0.19533,0.4 0.43659,0.4h0.87318c0.24126,0 0.43659,-0.17896 0.43659,-0.4c0,-0.22104 -0.19533,-0.4 -0.43659,-0.4h-0.87318c-0.24126,0 -0.43659,0.17896 -0.43659,0.4zM4.39501,10.97244c0,-0.22104 -0.19533,-0.4 -0.43659,-0.4h-0.87318c-0.24126,0 -0.43659,0.17896 -0.43659,0.4c0,0.22104 0.19533,0.4 0.43659,0.4h0.87318c0.24126,0 0.43659,-0.17896 0.43659,-0.4zM4.39501,9.37244c0,-0.22104 -0.19533,-0.4 -0.43659,-0.4h-0.87318c-0.24126,0 -0.43659,0.17896 -0.43659,0.4c0,0.22104 0.19533,0.4 0.43659,0.4h0.87318c0.24126,0 0.43659,-0.17896 0.43659,-0.4zM4.39501,7.77244c0,-0.22104 -0.19533,-0.4 -0.43659,-0.4h-0.87318c-0.24126,0 -0.43659,0.17896 -0.43659,0.4c0,0.22104 0.19533,0.4 0.43659,0.4h0.87318c0.24126,0 0.43659,-0.17896 0.43659,-0.4zM4.39501,6.17244c0,-0.22104 -0.19533,-0.4 -0.43659,-0.4h-0.87318c-0.24126,0 -0.43659,0.17896 -0.43659,0.4c0,0.22104 0.19533,0.4 0.43659,0.4h0.87318c0.24126,0 0.43659,-0.17896 0.43659,-0.4zM2.99871,-0.02756c-1,-1 0,0 0,0zM6.00015,-0.02756c-1,-1 0,0 0,0z" style="stroke-width: 0; stroke-linecap: butt; stroke-linejoin: miter; fill: rgb(57, 57, 57);" vector-effect="non-scaling-stroke"/></g><defs><path id="path-1640041274141152124" d="M15,10.97244c0,2.20567 -1.79433,4 -4,4c-2.20567,0 -4,-1.79433 -4,-4c0,-2.20567 1.79433,-4 4,-4c2.20567,0 4,1.79433 4,4zM13.22222,10.97244c0,-0.2456 -0.19884,-0.44444 -0.44444,-0.44444h-0.88889c-0.06325,-0.06325 -0.08416,-0.08416 0,0h-0.44444v-1.33333c0,-0.2456 -0.19884,-0.44444 -0.44444,-0.44444c-0.2456,0 -0.44444,0.19884 -0.44444,0.44444v1.77778c0,0.2456 0.19884,0.44444 0.44444,0.44444h1.77778c0.2456,0 0.44444,-0.19884 0.44444,-0.44444zM13.50466,3.97244h-13.50466v-2.5c0,-0.28008 0.18524,-0.5 0.42114,-0.5h1.57787v-0.5c0,-0.26464 0.32996,-0.47244 0.75017,-0.47244c0.42022,0 0.75017,0.2078 0.75017,0.47244v0.5h1.50064v-0.5c0,-0.26464 0.33042,-0.47244 0.75122,-0.47244c0.4208,0 0.75122,0.2078 0.75122,0.47244v0.5h1.10622v1.5c0,0.27995 0.18524,0.5 0.42114,0.5c0.23591,0 0.42114,-0.22005 0.42114,-0.5v-1.49606h-0.45094v-0.50394c0,-0.26464 0.11481,-0.47244 0.26102,-0.47244c0.14621,0 0.26102,0.2078 0.26102,0.47244v0.5h1.61348v1.5c0,0.27995 0.18524,0.5 0.42114,0.5c0.23591,0 0.42114,-0.22005 0.42114,-0.5v-1.5h0.5222v-0.49625c0,-0.26674 0.1323,-0.47619 0.30078,-0.47619c0.16848,0 0.30078,0.20945 0.30078,0.47619v0.49625h0.98195c0.23591,0 0.42114,0.21992 0.42114,0.5zM5.08179,2.47244c0,0.27995 0.18524,0.5 0.42114,0.5c0.23591,0 0.42114,-0.22005 0.42114,-0.5v-1.49606h-0.84229zM2.55494,2.47244c0,0.27995 0.18524,0.5 0.42114,0.5c0.23591,0 0.42114,-0.22005 0.42114,-0.5v-1.49606h-0.84229zM6.14137,9.37244c0,0.14656 0.09005,0.26906 0.21818,0.33875c-0.132,0.40135 -0.21818,0.82094 -0.21818,1.26125c0,0.72042 0.19374,1.39917 0.53016,2h-6.23494c-0.24126,0 -0.43659,-0.17896 -0.43659,-0.4v-7.6h14v2.60854c-0.83089,-0.62958 -1.8961,-1.00854 -3.05613,-1.00854c0.24126,0 0.43659,-0.17896 0.43659,-0.4c0,-0.22104 -0.19533,-0.4 -0.43659,-0.4h-0.87318c-0.24126,0 -0.43659,0.17896 -0.43659,0.4c0,0.22104 0.19533,0.4 0.43659,0.4h0.87318c-1.17823,0 -2.2572,0.3924 -3.09365,1.03979c-0.06754,-0.14094 -0.22023,-0.23979 -0.39907,-0.23979h-0.87318c-0.24126,0 -0.43659,0.17896 -0.43659,0.4c0,0.22104 0.19533,0.4 0.43659,0.4h0.66421c-0.22011,0.24385 -0.39998,0.51625 -0.55938,0.8h-0.10483c-0.24126,0 -0.43659,0.17896 -0.43659,0.4zM6.14137,6.17244c0,0.22104 0.19533,0.4 0.43659,0.4h0.87318c0.24126,0 0.43659,-0.17896 0.43659,-0.4c0,-0.22104 -0.19533,-0.4 -0.43659,-0.4h-0.87318c-0.24126,0 -0.43659,0.17896 -0.43659,0.4zM4.39501,10.97244c0,-0.22104 -0.19533,-0.4 -0.43659,-0.4h-0.87318c-0.24126,0 -0.43659,0.17896 -0.43659,0.4c0,0.22104 0.19533,0.4 0.43659,0.4h0.87318c0.24126,0 0.43659,-0.17896 0.43659,-0.4zM4.39501,9.37244c0,-0.22104 -0.19533,-0.4 -0.43659,-0.4h-0.87318c-0.24126,0 -0.43659,0.17896 -0.43659,0.4c0,0.22104 0.19533,0.4 0.43659,0.4h0.87318c0.24126,0 0.43659,-0.17896 0.43659,-0.4zM4.39501,7.77244c0,-0.22104 -0.19533,-0.4 -0.43659,-0.4h-0.87318c-0.24126,0 -0.43659,0.17896 -0.43659,0.4c0,0.22104 0.19533,0.4 0.43659,0.4h0.87318c0.24126,0 0.43659,-0.17896 0.43659,-0.4zM4.39501,6.17244c0,-0.22104 -0.19533,-0.4 -0.43659,-0.4h-0.87318c-0.24126,0 -0.43659,0.17896 -0.43659,0.4c0,0.22104 0.19533,0.4 0.43659,0.4h0.87318c0.24126,0 0.43659,-0.17896 0.43659,-0.4zM2.99871,-0.02756c-1,-1 0,0 0,0zM6.00015,-0.02756c-1,-1 0,0 0,0z" vector-effect="non-scaling-stroke"/></defs></g></svg>