<svg version="1.2" xmlns="http://www.w3.org/2000/svg" xmlns:xlink="http://www.w3.org/1999/xlink" overflow="visible" preserveAspectRatio="none" viewBox="0 0 19.99999 19.9999975" width="19.99999" height="19.9999975"><g transform="translate(0, 0)"><g transform="translate(0.00024249999999792493, 0.004567499999999836) rotate(0)"><path d="M17.074,2.92125c-3.90183,-3.90109 -10.2473,-3.90109 -14.14913,0c-3.90015,3.90109 -3.90015,10.24834 0,14.14943c1.95091,1.95013 4.51293,2.92475 7.07499,2.92475c2.56206,0 5.12322,-0.97466 7.07413,-2.92475c3.90101,-3.90105 3.90101,-10.24834 0,-14.14943zM14.12618,12.94823c0.32597,0.32598 0.32597,0.85292 0,1.1789c-0.16258,0.16258 -0.376,0.2443 -0.58946,0.2443c-0.21342,0 -0.42688,-0.08172 -0.58946,-0.2443l-2.9472,-2.94812l-2.94638,2.94726c-0.1634,0.16258 -0.37686,0.2443 -0.58946,0.2443c-0.21342,0 -0.42688,-0.08172 -0.58946,-0.2443c-0.32597,-0.32598 -0.32597,-0.85374 0,-1.1789l2.94638,-2.94726l-2.9472,-2.94726c-0.32597,-0.32598 -0.32597,-0.85374 0,-1.1789c0.32515,-0.32598 0.8529,-0.32598 1.17887,0l2.9472,2.94726l2.9472,-2.94726c0.32597,-0.32598 0.8529,-0.32598 1.17887,0c0.32597,0.32516 0.32597,0.85292 0,1.1789l-2.9472,2.94726z" style="stroke-width: 0; stroke-linecap: butt; stroke-linejoin: miter; fill: rgb(255, 255, 255);" vector-effect="non-scaling-stroke"/></g><defs><path id="path-1640041274138152116" d="M17.074,2.92125c-3.90183,-3.90109 -10.2473,-3.90109 -14.14913,0c-3.90015,3.90109 -3.90015,10.24834 0,14.14943c1.95091,1.95013 4.51293,2.92475 7.07499,2.92475c2.56206,0 5.12322,-0.97466 7.07413,-2.92475c3.90101,-3.90105 3.90101,-10.24834 0,-14.14943zM14.12618,12.94823c0.32597,0.32598 0.32597,0.85292 0,1.1789c-0.16258,0.16258 -0.376,0.2443 -0.58946,0.2443c-0.21342,0 -0.42688,-0.08172 -0.58946,-0.2443l-2.9472,-2.94812l-2.94638,2.94726c-0.1634,0.16258 -0.37686,0.2443 -0.58946,0.2443c-0.21342,0 -0.42688,-0.08172 -0.58946,-0.2443c-0.32597,-0.32598 -0.32597,-0.85374 0,-1.1789l2.94638,-2.94726l-2.9472,-2.94726c-0.32597,-0.32598 -0.32597,-0.85374 0,-1.1789c0.32515,-0.32598 0.8529,-0.32598 1.17887,0l2.9472,2.94726l2.9472,-2.94726c0.32597,-0.32598 0.8529,-0.32598 1.17887,0c0.32597,0.32516 0.32597,0.85292 0,1.1789l-2.9472,2.94726z" vector-effect="non-scaling-stroke"/></defs></g></svg>