<svg version="1.2" xmlns="http://www.w3.org/2000/svg" xmlns:xlink="http://www.w3.org/1999/xlink" overflow="visible" preserveAspectRatio="none" viewBox="0 0 11 15.66668" width="11" height="15.66668"><g transform="translate(0, 0)"><g transform="translate(0, -1.1102230246251565e-16) rotate(0)"><path d="M0.7857,4h9.42859v10c0,0.92086 -0.7032,1.66668 -1.57141,1.66668h-6.28574c-0.86824,0 -1.57144,-0.74582 -1.57144,-1.66668zM11,0.83332v1.66668h-11v-1.66668h2.74998l0.78574,-0.83332h3.92856l0.78574,0.83332z" style="stroke-width: 0; stroke-linecap: butt; stroke-linejoin: miter; fill: rgb(245, 26, 10);" vector-effect="non-scaling-stroke"/></g><defs><path id="path-1638924866870181287" d="M0.7857,4h9.42859v10c0,0.92086 -0.7032,1.66668 -1.57141,1.66668h-6.28574c-0.86824,0 -1.57144,-0.74582 -1.57144,-1.66668zM11,0.83332v1.66668h-11v-1.66668h2.74998l0.78574,-0.83332h3.92856l0.78574,0.83332z" vector-effect="non-scaling-stroke"/></defs></g></svg>