<svg version="1.2" xmlns="http://www.w3.org/2000/svg" xmlns:xlink="http://www.w3.org/1999/xlink" overflow="visible" preserveAspectRatio="none" viewBox="0 0 24.000008568771815 30.00001" width="24.000008568771815" height="30.00001"><g transform="translate(0, 0)"><g transform="translate(0.000004284385908936983, 0) rotate(0)"><path d="M21.85097,5.23256c-2.18141,-3.34884 -5.78247,-5.23256 -9.83366,-5.23256c-4.01657,0 -7.61762,1.88372 -9.86829,5.23256c-2.25066,3.27907 -2.77004,7.46512 -1.38502,11.12791c0.38088,0.97674 0.96952,1.98837 1.73128,2.89535l8.76027,10.39535c0.20775,0.2093 0.41551,0.34884 0.72714,0.34884c0.31163,0 0.51938,-0.13953 0.72714,-0.34884l8.79489,-10.39535c0.76176,-0.90698 1.38502,-1.88372 1.73128,-2.89535c1.38502,-3.66279 0.86564,-7.84884 -1.38502,-11.12791zM12.01731,17.5814c-2.9778,0 -5.43621,-2.47674 -5.43621,-5.47674c0,-3 2.45841,-5.47674 5.43621,-5.47674c2.9778,0 5.43621,2.47674 5.43621,5.47674c0,3 -2.42379,5.47674 -5.43621,5.47674z" style="stroke: rgb(245, 88, 60); stroke-width: 0; stroke-linecap: butt; stroke-linejoin: miter; fill: rgb(66, 173, 69);" vector-effect="non-scaling-stroke"/></g><defs><path id="path-163899132549476187" d="M21.85097,5.23256c-2.18141,-3.34884 -5.78247,-5.23256 -9.83366,-5.23256c-4.01657,0 -7.61762,1.88372 -9.86829,5.23256c-2.25066,3.27907 -2.77004,7.46512 -1.38502,11.12791c0.38088,0.97674 0.96952,1.98837 1.73128,2.89535l8.76027,10.39535c0.20775,0.2093 0.41551,0.34884 0.72714,0.34884c0.31163,0 0.51938,-0.13953 0.72714,-0.34884l8.79489,-10.39535c0.76176,-0.90698 1.38502,-1.88372 1.73128,-2.89535c1.38502,-3.66279 0.86564,-7.84884 -1.38502,-11.12791zM12.01731,17.5814c-2.9778,0 -5.43621,-2.47674 -5.43621,-5.47674c0,-3 2.45841,-5.47674 5.43621,-5.47674c2.9778,0 5.43621,2.47674 5.43621,5.47674c0,3 -2.42379,5.47674 -5.43621,5.47674z" vector-effect="non-scaling-stroke"/></defs></g></svg>