<svg version="1.2" xmlns="http://www.w3.org/2000/svg" xmlns:xlink="http://www.w3.org/1999/xlink" overflow="visible" preserveAspectRatio="none" viewBox="0 0 20 20" width="20" height="20"><g transform="translate(0, 0)"><g transform="translate(0, 0) rotate(0)"><path d="M10,0c-5.52285,0 -10,4.47715 -10,10c0,5.52285 4.47715,10 10,10c5.52285,0 10,-4.47715 10,-10c0,-5.52285 -4.47715,-10 -10,-10zM15.03359,10.04789l-1.21277,1.17645c-0.14289,0.17637 -0.37605,0.26703 -0.61094,0.21875c-0.25688,-0.05039 -0.22711,-0.07281 -1.5598,-1.4466c-0.24031,-0.24777 -0.23434,-0.64344 0.01344,-0.88379c0.24777,-0.24031 0.64352,-0.23434 0.88379,0.01344l0.18129,0.18688c-0.24758,-0.97793 -1.00957,-1.78301 -2.04824,-2.04195c-1.50469,-0.37516 -3.03418,0.54379 -3.40934,2.04855c-0.61719,2.47547 2.11867,4.4073 4.24324,3.05047c0.29078,-0.1857 0.67738,-0.10059 0.86313,0.19035c0.18582,0.2909 0.10059,0.67734 -0.19035,0.86316c-0.65715,0.41969 -1.42207,0.63789 -2.19234,0.63789c-2.63871,0 -4.57277,-2.49238 -3.93656,-5.04426c0.54195,-2.17352 2.75113,-3.50094 4.92465,-2.95902c1.60715,0.4007 2.75145,1.71305 3.01969,3.24844l0.16074,-0.1559c0.24773,-0.24039 0.64352,-0.23434 0.88379,0.01344c0.24035,0.2477 0.23438,0.64336 -0.0134,0.88371z" style="stroke-width: 0; stroke-linecap: butt; stroke-linejoin: miter; fill: rgb(66, 173, 69);" vector-effect="non-scaling-stroke"/></g><defs><path id="path-163889806453053061" d="M10,0c-5.52285,0 -10,4.47715 -10,10c0,5.52285 4.47715,10 10,10c5.52285,0 10,-4.47715 10,-10c0,-5.52285 -4.47715,-10 -10,-10zM15.03359,10.04789l-1.21277,1.17645c-0.14289,0.17637 -0.37605,0.26703 -0.61094,0.21875c-0.25688,-0.05039 -0.22711,-0.07281 -1.5598,-1.4466c-0.24031,-0.24777 -0.23434,-0.64344 0.01344,-0.88379c0.24777,-0.24031 0.64352,-0.23434 0.88379,0.01344l0.18129,0.18688c-0.24758,-0.97793 -1.00957,-1.78301 -2.04824,-2.04195c-1.50469,-0.37516 -3.03418,0.54379 -3.40934,2.04855c-0.61719,2.47547 2.11867,4.4073 4.24324,3.05047c0.29078,-0.1857 0.67738,-0.10059 0.86313,0.19035c0.18582,0.2909 0.10059,0.67734 -0.19035,0.86316c-0.65715,0.41969 -1.42207,0.63789 -2.19234,0.63789c-2.63871,0 -4.57277,-2.49238 -3.93656,-5.04426c0.54195,-2.17352 2.75113,-3.50094 4.92465,-2.95902c1.60715,0.4007 2.75145,1.71305 3.01969,3.24844l0.16074,-0.1559c0.24773,-0.24039 0.64352,-0.23434 0.88379,0.01344c0.24035,0.2477 0.23438,0.64336 -0.0134,0.88371z" vector-effect="non-scaling-stroke"/></defs></g></svg>