<svg version="1.2" xmlns="http://www.w3.org/2000/svg" xmlns:xlink="http://www.w3.org/1999/xlink" overflow="visible" preserveAspectRatio="none" viewBox="0 0 17.00000375122633 17.00000604958698" width="17.00000375122633" height="17.00000604958698"><g transform="translate(0, 0)"><g transform="translate(-0.000003736439757193611, 0.000003333437153016372) rotate(0)"><path d="M11.04543,16.03668c0.09136,0.36869 -0.13174,0.74239 -0.49794,0.8342c-0.16708,0.042 -0.33733,0.07914 -0.50627,0.11073c-0.1882,0.03526 -0.37289,-0.01119 -0.518,-0.11408c-0.1408,-0.10001 -0.24451,-0.25322 -0.27839,-0.43716c-0.06859,-0.37388 0.17658,-0.73315 0.54742,-0.80262c0.14186,-0.02632 0.28478,-0.05757 0.42496,-0.09276c0.36642,-0.09188 0.73708,0.13266 0.82822,0.50169zM15.12178,5.89602c-0.14029,-0.35312 0.0304,-0.75366 0.38067,-0.89479c0.35063,-0.1412 0.74815,0.03066 0.88834,0.38368c0.06384,0.16064 0.12377,0.32563 0.17778,0.49009c0.11855,0.36078 -0.07561,0.75001 -0.43395,0.86987c-0.21374,0.07119 -0.43772,0.03033 -0.60889,-0.09111c-0.11544,-0.08198 -0.20684,-0.20062 -0.25471,-0.34594c-0.04535,-0.13819 -0.0956,-0.27678 -0.14924,-0.4118zM13.38469,14.74698c0.20808,0.31723 0.12143,0.74434 -0.19335,0.95383c-0.14358,0.09563 -0.29176,0.18773 -0.44079,0.27431c-0.23837,0.13833 -0.52469,0.11595 -0.73551,-0.03346c-0.07853,-0.05595 -0.14672,-0.12917 -0.19792,-0.21873c-0.18856,-0.32927 -0.07656,-0.75034 0.25047,-0.94036c0.12534,-0.0727 0.24977,-0.1503 0.37033,-0.23047c0.3149,-0.20964 0.73873,-0.12247 0.94677,0.19487zM16.99796,8.75269c-0.00837,0.38014 -0.32096,0.68151 -0.69816,0.67308c-0.14095,-0.00324 -0.27093,-0.04922 -0.37804,-0.12519c-0.17979,-0.12766 -0.29549,-0.34006 -0.29019,-0.57833c0.00333,-0.14507 0.00186,-0.29246 -0.0038,-0.43768c-0.0148,-0.37981 0.27901,-0.69995 0.65585,-0.71493c0.37731,-0.01483 0.69502,0.2809 0.70989,0.66086c0.0068,0.17323 0.00822,0.34885 0.00446,0.52219zM15.29588,13.70488c-0.10367,0.13911 -0.21257,0.27652 -0.32429,0.40867c-0.23088,0.27291 -0.62774,0.31951 -0.91329,0.11673c-0.01718,-0.01207 -0.03373,-0.02492 -0.0501,-0.03891c-0.28723,-0.24645 -0.32177,-0.68103 -0.07729,-0.97036c0.09355,-0.11076 0.18491,-0.2258 0.27166,-0.34226c0.22653,-0.30413 0.65446,-0.36619 0.95693,-0.1376c0.30163,0.22826 0.36295,0.65961 0.13638,0.96373zM16.61173,11.11545c-0.05149,0.16476 -0.10842,0.33045 -0.16978,0.4926c-0.13441,0.35533 -0.52926,0.53353 -0.88187,0.39799c-0.05471,-0.02083 -0.10506,-0.04826 -0.15078,-0.08061c-0.24923,-0.17702 -0.35794,-0.50736 -0.24448,-0.80758c0.05167,-0.13638 0.09954,-0.27564 0.14274,-0.41423c0.11285,-0.36277 0.49637,-0.56471 0.85651,-0.45097c0.36006,0.11374 0.56039,0.49996 0.44766,0.8628zM7.78747,16.43309c-0.06666,0.37407 -0.42157,0.6232 -0.7931,0.55595c-1.2245,-0.22134 -2.36469,-0.70175 -3.38864,-1.42854c-0.39127,-0.27759 -0.75466,-0.58459 -1.08874,-0.91651c-0.00099,-0.00107 -0.00212,-0.00166 -0.00314,-0.0028c-0.00292,-0.00302 -0.00592,-0.00618 -0.00881,-0.00909c-1.24346,-1.2407 -2.07329,-2.83522 -2.37821,-4.6072c-0.03,-0.17367 -0.05394,-0.34738 -0.07301,-0.52068c-0.00186,-0.01112 -0.00431,-0.02164 -0.0053,-0.03276c-0.01845,-0.17235 -0.03205,-0.34742 -0.03976,-0.5201c-0.00015,-0.00596 0.00018,-0.01182 0,-0.01763c-0.07959,-1.76771 0.38451,-3.50406 1.3467,-5.00597c0.00636,-0.01101 0.01191,-0.02209 0.01919,-0.03298c0.0581,-0.09041 0.11884,-0.18081 0.18045,-0.26901c0.03768,-0.05382 0.07616,-0.10763 0.11493,-0.16024c0.00928,-0.01277 0.0194,-0.02426 0.02923,-0.036c1.16599,-1.56989 2.80003,-2.67019 4.67289,-3.15466c0.008,-0.00225 0.01633,-0.00493 0.02456,-0.00696c0.00132,-0.00029 0.00263,-0.00048 0.00428,-0.00077c0.21272,-0.05433 0.4284,-0.10101 0.64715,-0.13914c2.17189,-0.37937 4.36007,0.09103 6.18447,1.32466l0.53518,-0.77895c0.14859,-0.21626 0.3271,-0.18593 0.39683,0.06747l0.62281,2.26038c0.06998,0.25311 -0.08562,0.47982 -0.34581,0.50338l-2.3193,0.20916c-0.25986,0.02356 -0.35118,-0.13406 -0.20274,-0.35036l0.53394,-0.77711c-2.48602,-1.6698 -5.66504,-1.56029 -8.00627,0.06468c-0.00811,0.00578 -0.0163,0.01148 -0.02448,0.01723c-0.6644,0.46543 -1.26035,1.05267 -1.75281,1.75656c-2.26474,3.23825 -1.49178,7.72869 1.72302,10.00983c0.22047,0.15633 0.4474,0.29905 0.67993,0.42803c0.00069,0.00029 0.0015,0.00063 0.00194,0.00114c0.12673,0.0695 0.25749,0.13601 0.38846,0.19811c0.00691,0.00317 0.01279,0.0071 0.01937,0.01056c0.55579,0.26246 1.14191,0.45063 1.75292,0.56114c0.37143,0.06703 0.61853,0.42483 0.55192,0.79916zM8.63316,3.55741v4.8708l4.44029,2.31236c0.27137,0.14117 0.37742,0.47699 0.23728,0.75034c-0.09827,0.19152 -0.29154,0.30129 -0.49166,0.30129c-0.08544,0 -0.17227,-0.01991 -0.25336,-0.06221l-5.03825,-2.62352v-5.54907c0,-0.3074 0.24755,-0.55698 0.55316,-0.55698c0.30525,0 0.5525,0.24957 0.55254,0.55698z" style="stroke-width: 0; stroke-linecap: butt; stroke-linejoin: miter; fill: rgb(57, 57, 57);" vector-effect="non-scaling-stroke"/></g><defs><path id="path-1640041274144152130" d="M11.04543,16.03668c0.09136,0.36869 -0.13174,0.74239 -0.49794,0.8342c-0.16708,0.042 -0.33733,0.07914 -0.50627,0.11073c-0.1882,0.03526 -0.37289,-0.01119 -0.518,-0.11408c-0.1408,-0.10001 -0.24451,-0.25322 -0.27839,-0.43716c-0.06859,-0.37388 0.17658,-0.73315 0.54742,-0.80262c0.14186,-0.02632 0.28478,-0.05757 0.42496,-0.09276c0.36642,-0.09188 0.73708,0.13266 0.82822,0.50169zM15.12178,5.89602c-0.14029,-0.35312 0.0304,-0.75366 0.38067,-0.89479c0.35063,-0.1412 0.74815,0.03066 0.88834,0.38368c0.06384,0.16064 0.12377,0.32563 0.17778,0.49009c0.11855,0.36078 -0.07561,0.75001 -0.43395,0.86987c-0.21374,0.07119 -0.43772,0.03033 -0.60889,-0.09111c-0.11544,-0.08198 -0.20684,-0.20062 -0.25471,-0.34594c-0.04535,-0.13819 -0.0956,-0.27678 -0.14924,-0.4118zM13.38469,14.74698c0.20808,0.31723 0.12143,0.74434 -0.19335,0.95383c-0.14358,0.09563 -0.29176,0.18773 -0.44079,0.27431c-0.23837,0.13833 -0.52469,0.11595 -0.73551,-0.03346c-0.07853,-0.05595 -0.14672,-0.12917 -0.19792,-0.21873c-0.18856,-0.32927 -0.07656,-0.75034 0.25047,-0.94036c0.12534,-0.0727 0.24977,-0.1503 0.37033,-0.23047c0.3149,-0.20964 0.73873,-0.12247 0.94677,0.19487zM16.99796,8.75269c-0.00837,0.38014 -0.32096,0.68151 -0.69816,0.67308c-0.14095,-0.00324 -0.27093,-0.04922 -0.37804,-0.12519c-0.17979,-0.12766 -0.29549,-0.34006 -0.29019,-0.57833c0.00333,-0.14507 0.00186,-0.29246 -0.0038,-0.43768c-0.0148,-0.37981 0.27901,-0.69995 0.65585,-0.71493c0.37731,-0.01483 0.69502,0.2809 0.70989,0.66086c0.0068,0.17323 0.00822,0.34885 0.00446,0.52219zM15.29588,13.70488c-0.10367,0.13911 -0.21257,0.27652 -0.32429,0.40867c-0.23088,0.27291 -0.62774,0.31951 -0.91329,0.11673c-0.01718,-0.01207 -0.03373,-0.02492 -0.0501,-0.03891c-0.28723,-0.24645 -0.32177,-0.68103 -0.07729,-0.97036c0.09355,-0.11076 0.18491,-0.2258 0.27166,-0.34226c0.22653,-0.30413 0.65446,-0.36619 0.95693,-0.1376c0.30163,0.22826 0.36295,0.65961 0.13638,0.96373zM16.61173,11.11545c-0.05149,0.16476 -0.10842,0.33045 -0.16978,0.4926c-0.13441,0.35533 -0.52926,0.53353 -0.88187,0.39799c-0.05471,-0.02083 -0.10506,-0.04826 -0.15078,-0.08061c-0.24923,-0.17702 -0.35794,-0.50736 -0.24448,-0.80758c0.05167,-0.13638 0.09954,-0.27564 0.14274,-0.41423c0.11285,-0.36277 0.49637,-0.56471 0.85651,-0.45097c0.36006,0.11374 0.56039,0.49996 0.44766,0.8628zM7.78747,16.43309c-0.06666,0.37407 -0.42157,0.6232 -0.7931,0.55595c-1.2245,-0.22134 -2.36469,-0.70175 -3.38864,-1.42854c-0.39127,-0.27759 -0.75466,-0.58459 -1.08874,-0.91651c-0.00099,-0.00107 -0.00212,-0.00166 -0.00314,-0.0028c-0.00292,-0.00302 -0.00592,-0.00618 -0.00881,-0.00909c-1.24346,-1.2407 -2.07329,-2.83522 -2.37821,-4.6072c-0.03,-0.17367 -0.05394,-0.34738 -0.07301,-0.52068c-0.00186,-0.01112 -0.00431,-0.02164 -0.0053,-0.03276c-0.01845,-0.17235 -0.03205,-0.34742 -0.03976,-0.5201c-0.00015,-0.00596 0.00018,-0.01182 0,-0.01763c-0.07959,-1.76771 0.38451,-3.50406 1.3467,-5.00597c0.00636,-0.01101 0.01191,-0.02209 0.01919,-0.03298c0.0581,-0.09041 0.11884,-0.18081 0.18045,-0.26901c0.03768,-0.05382 0.07616,-0.10763 0.11493,-0.16024c0.00928,-0.01277 0.0194,-0.02426 0.02923,-0.036c1.16599,-1.56989 2.80003,-2.67019 4.67289,-3.15466c0.008,-0.00225 0.01633,-0.00493 0.02456,-0.00696c0.00132,-0.00029 0.00263,-0.00048 0.00428,-0.00077c0.21272,-0.05433 0.4284,-0.10101 0.64715,-0.13914c2.17189,-0.37937 4.36007,0.09103 6.18447,1.32466l0.53518,-0.77895c0.14859,-0.21626 0.3271,-0.18593 0.39683,0.06747l0.62281,2.26038c0.06998,0.25311 -0.08562,0.47982 -0.34581,0.50338l-2.3193,0.20916c-0.25986,0.02356 -0.35118,-0.13406 -0.20274,-0.35036l0.53394,-0.77711c-2.48602,-1.6698 -5.66504,-1.56029 -8.00627,0.06468c-0.00811,0.00578 -0.0163,0.01148 -0.02448,0.01723c-0.6644,0.46543 -1.26035,1.05267 -1.75281,1.75656c-2.26474,3.23825 -1.49178,7.72869 1.72302,10.00983c0.22047,0.15633 0.4474,0.29905 0.67993,0.42803c0.00069,0.00029 0.0015,0.00063 0.00194,0.00114c0.12673,0.0695 0.25749,0.13601 0.38846,0.19811c0.00691,0.00317 0.01279,0.0071 0.01937,0.01056c0.55579,0.26246 1.14191,0.45063 1.75292,0.56114c0.37143,0.06703 0.61853,0.42483 0.55192,0.79916zM8.63316,3.55741v4.8708l4.44029,2.31236c0.27137,0.14117 0.37742,0.47699 0.23728,0.75034c-0.09827,0.19152 -0.29154,0.30129 -0.49166,0.30129c-0.08544,0 -0.17227,-0.01991 -0.25336,-0.06221l-5.03825,-2.62352v-5.54907c0,-0.3074 0.24755,-0.55698 0.55316,-0.55698c0.30525,0 0.5525,0.24957 0.55254,0.55698z" vector-effect="non-scaling-stroke"/></defs></g></svg>