<svg version="1.2" xmlns="http://www.w3.org/2000/svg" xmlns:xlink="http://www.w3.org/1999/xlink" overflow="visible" preserveAspectRatio="none" viewBox="0 0 46 46" width="25" height="25"><g><g xmlns:default="http://www.w3.org/2000/svg">
	<g>
		<path d="M23,0C10.3,0,0,10.3,0,23c0,4.3,1.2,8.5,3.5,12.2L0.6,46l11-3c3.5,2,7.4,3,11.4,3c12.7,0,23-10.3,23-23    C46,10.3,35.7,0,23,0z M23,44c-3.8,0-7.5-1-10.7-2.9l-0.4-0.2l-8.5,2.3l2.2-8.3l-0.2-0.4C3.2,31.1,2,27.1,2,23C2,11.4,11.4,2,23,2    c11.6,0,21,9.4,21,21C44,34.6,34.6,44,23,44z M22,27h2V12h-2V27z M22,33h2v-3h-2V33z" style="fill: rgb(161, 161, 194);" vector-effect="non-scaling-stroke"/>
	</g>
</g></g></svg>